<svg width="120" height="53" viewBox="0 0 120 53" fill="none" xmlns="http://www.w3.org/2000/svg">
<path d="M66.5926 19.5819C66.5926 26.5 61.8162 31.6593 54.858 31.6593C48.0767 31.6593 42.7106 26.7931 42.7106 19.5819C42.7106 12.3706 48.3125 7.56305 54.8403 7.56305C61.2265 7.56305 66.5926 12.4292 66.5926 19.5819ZM74.1995 19.9336C74.1995 8.26659 66.5926 0 54.858 0C49.6314 0.00769247 44.6202 2.07139 40.919 5.74036C37.2177 9.40932 35.127 14.3854 35.1037 19.5819C35.1037 30.8971 43.5951 39.2223 54.858 39.2223C59.2216 39.2223 63.9391 37.4049 66.5926 34.7666V38.8119H74.1995V19.9336ZM112.393 19.5819C112.393 26.0896 107.735 31.6593 100.246 31.6593C98.6515 31.6656 97.0719 31.357 95.5985 30.7516C94.1252 30.1461 92.7874 29.2558 91.6629 28.1323C90.5384 27.0088 89.6494 25.6744 89.0476 24.2066C88.4458 22.7388 88.1432 21.1668 88.1572 19.5819C88.1572 16.3865 89.434 13.322 91.7065 11.0626C93.9791 8.80309 97.0613 7.53374 100.275 7.53374C103.489 7.53374 106.571 8.80309 108.844 11.0626C111.116 13.322 112.393 16.3865 112.393 19.5819ZM120 19.5819C120 9.3219 111.155 0 100.246 0C89.0418 0 80.5504 8.38385 80.5504 19.9336V52.3551H88.1572V34.8838C89.9853 36.5841 95.2334 39.2223 100.246 39.2223C112.039 39.2223 120 30.1936 120 19.5819ZM16.0393 53C26.2998 53 31.371 45.906 31.371 38.1084C31.3961 35.5755 30.6937 33.0881 29.3462 30.9383C27.9988 28.7886 26.0622 27.0658 23.7641 25.9723C27.8329 23.9204 30.4865 19.1128 30.4865 13.8363C30.4865 6.33186 24.5307 0 15.6855 0C6.8403 0 0.766585 5.8042 0.530713 14.0122H8.07862C8.16564 12.134 8.98289 10.3628 10.358 9.07216C11.7332 7.78151 13.5587 7.07228 15.4496 7.09403C19.7543 7.09403 22.7027 9.90819 22.7027 14.0708C22.7027 18.9956 19.1057 22.4546 13.5037 22.4546H11.7936V29.5487H13.5037C19.7543 29.5487 23.8821 32.5973 23.8821 37.7566C23.8821 42.7987 20.5209 45.4956 15.9803 45.4956C11.4398 45.4956 7.78378 42.7987 7.54791 38.2843H0C0.235872 46.3164 5.89681 53 16.0393 53Z" fill="white"/>
</svg>
