<svg width="474" height="513" viewBox="0 0 474 513" fill="none" xmlns="http://www.w3.org/2000/svg">
<rect opacity="0.8" width="306.247" height="239.921" transform="matrix(0.866025 0.5 -0.866025 0.5 208.407 0.262939)" fill="url(#paint0_linear)"/>
<g style="mix-blend-mode:screen">
<rect width="307.878" height="238.723" transform="matrix(0.866025 0.5 -0.866025 0.5 207.37 73.1238)" fill="url(#paint1_linear)"/>
</g>
<g style="mix-blend-mode:screen">
<rect width="307.878" height="238.723" transform="matrix(0.866025 0.5 -0.866025 0.5 207.37 164.121)" fill="url(#paint2_linear)"/>
</g>
<rect opacity="0.8" width="307.496" height="238.723" transform="matrix(0.866025 0.5 -2.20305e-08 1 0.629272 120.224)" fill="url(#paint3_linear)"/>
<rect opacity="0.8" width="238.723" height="238.723" transform="matrix(0.866025 -0.5 2.20305e-08 1 266.929 272.776)" fill="url(#paint4_linear)"/>
<defs>
<linearGradient id="paint0_linear" x1="12.0897" y1="216.418" x2="172.741" y2="-52.0135" gradientUnits="userSpaceOnUse">
<stop stop-color="#8489FF"/>
<stop offset="1" stop-color="#2DBCFF"/>
</linearGradient>
<linearGradient id="paint1_linear" x1="12.1541" y1="215.338" x2="171.219" y2="-53.2002" gradientUnits="userSpaceOnUse">
<stop stop-color="#8489FF"/>
<stop offset="1" stop-color="#2DBCFF"/>
</linearGradient>
<linearGradient id="paint2_linear" x1="12.1541" y1="215.338" x2="171.219" y2="-53.2002" gradientUnits="userSpaceOnUse">
<stop stop-color="#8489FF"/>
<stop offset="1" stop-color="#2DBCFF"/>
</linearGradient>
<linearGradient id="paint3_linear" x1="41.7205" y1="26.382" x2="179.59" y2="272.687" gradientUnits="userSpaceOnUse">
<stop stop-color="#5D48E2"/>
<stop offset="1" stop-color="#2658D8"/>
</linearGradient>
<linearGradient id="paint4_linear" x1="118.981" y1="16.4054" x2="119.362" y2="238.723" gradientUnits="userSpaceOnUse">
<stop stop-color="#46ADFF"/>
<stop offset="1" stop-color="#595BEA"/>
</linearGradient>
</defs>
</svg>
