<svg width="2061" height="1038" viewBox="0 0 2061 1038" fill="none" xmlns="http://www.w3.org/2000/svg">
<path opacity="0.2" fill-rule="evenodd" clip-rule="evenodd" d="M974.502 34.6988C1181.28 34.8052 1415.6 -32.6458 1583.38 20.2565C1755.63 74.5701 1700.59 193.937 1761.74 282.922C1808.17 350.475 1860.09 413.591 1900.62 481.868C1954.39 572.442 2119.31 664.2 2039.63 751.039C1961.83 835.824 1698.43 848.045 1520.67 895.936C1337.19 945.364 1189.93 1036.83 974.502 1037.99C759.08 1039.15 589.685 960.253 420.536 901.851C269.932 849.852 118.684 794.318 44.5072 716.889C-25.9884 643.303 5.15749 561.457 18.1923 481.868C30.4206 407.202 65.0969 336.651 118.429 265.527C183.3 179.015 187.688 67.3855 364.801 19.6295C541.117 -27.9119 767.416 34.5922 974.502 34.6988Z" fill="#829CF8"/>
</svg>
