<svg width="1622" height="1212" viewBox="0 0 1622 1212" fill="none" xmlns="http://www.w3.org/2000/svg">
<g clip-path="url(#clip0)">
<path d="M1192 157.5L843 -48" stroke="#1C2129" stroke-width="3" stroke-dasharray="6 6"/>
<rect width="373.17" height="970.745" transform="matrix(0.866025 0.5 -0.866025 0.5 1298.33 0)" fill="#29313C"/>
<rect width="181.765" height="26.1323" transform="matrix(0.866025 0.5 -0.866025 0.5 827.919 390.357)" fill="white"/>
<rect width="181.765" height="26.1323" transform="matrix(0.866025 0.5 -0.866025 0.5 703.902 461.224)" fill="white"/>
<path d="M1456 90L1205.94 232.343M611 571L953.793 375.872" stroke="white" stroke-width="3" stroke-dasharray="6 6"/>
<rect opacity="0.8" width="208.25" height="163.148" transform="matrix(0.866025 0.5 -0.866025 0.5 1024.74 90.2358)" fill="url(#paint0_linear)"/>
<g style="mix-blend-mode:screen">
<rect width="209.359" height="162.334" transform="matrix(0.866025 0.5 -0.866025 0.5 1024.04 139.782)" fill="url(#paint1_linear)"/>
</g>
<g style="mix-blend-mode:screen">
<rect width="209.359" height="162.334" transform="matrix(0.866025 0.5 -0.866025 0.5 1024.04 201.661)" fill="url(#paint2_linear)"/>
</g>
<rect opacity="0.8" width="209.099" height="162.334" transform="matrix(0.866025 0.5 -2.20305e-08 1 883.45 171.81)" fill="url(#paint3_linear)"/>
<rect opacity="0.8" width="162.334" height="162.334" transform="matrix(0.866025 -0.5 2.20305e-08 1 1064.54 275.547)" fill="url(#paint4_linear)"/>
<rect width="373.672" height="489.402" transform="matrix(0.866025 0.5 -2.20305e-08 1 457.207 485.122)" fill="#1C2129"/>
<rect width="198.608" height="30.2892" transform="matrix(0.866025 0.5 -2.20305e-08 1 553 797)" fill="white"/>
<rect width="198.608" height="30.2892" transform="matrix(0.866025 0.5 -2.20305e-08 1 553 919)" fill="white"/>
<rect width="970.805" height="489.194" transform="matrix(0.866025 -0.5 2.20305e-08 1 780.556 671.958)" fill="#1C2129"/>
<g clip-path="url(#clip1)">
<path d="M1317.79 81.9957C1318.67 80.7515 1319.11 79.4369 1319.11 78.0906C1319.11 76.7431 1318.67 75.4297 1317.79 74.1854C1316.89 72.8958 1315.56 71.7401 1313.84 70.7499C1312.13 69.7597 1310.12 68.993 1307.89 68.469C1305.74 67.9642 1303.46 67.7091 1301.13 67.7079C1298.79 67.7079 1296.52 67.9642 1294.36 68.469C1292.13 68.9918 1290.13 69.7597 1288.41 70.7499C1288.25 70.8406 1288.25 70.9892 1288.41 71.0811L1293.93 74.2649C1294.09 74.3567 1294.34 74.3556 1294.5 74.2649C1298.15 72.1552 1304.1 72.1551 1307.76 74.2649C1311.41 76.3745 1311.41 79.809 1307.76 81.9187C1305.68 83.1165 1302.82 83.6768 1299.91 83.4578C1299.52 83.4283 1299.12 83.3841 1298.74 83.3263C1298.7 83.3195 1298.66 83.3127 1298.61 83.307C1298.59 83.3036 1298.56 83.3002 1298.54 83.2956L1298.53 83.2945C1292.61 82.2601 1286.21 83.1865 1281.84 85.7126L1279.65 86.9739C1279.5 87.0658 1279.5 87.2132 1279.65 87.3051L1285.17 90.4889C1285.33 90.5796 1285.58 90.5796 1285.74 90.4877L1287.92 89.2265C1290.07 87.9902 1293.2 87.5433 1296.09 88.0605C1296.16 88.0718 1296.22 88.0809 1296.28 88.0911L1296.34 88.099C1296.41 88.1104 1296.48 88.1217 1296.55 88.1331C1297.29 88.2454 1298.04 88.3282 1298.79 88.3849C1301.46 88.5856 1304.22 88.4348 1306.78 87.9482C1309.46 87.4367 1311.84 86.5905 1313.84 85.4326C1315.56 84.4413 1316.89 83.2856 1317.79 81.9959L1317.79 81.9957Z" fill="white"/>
<path d="M1277.93 91.4833C1275.35 89.9941 1271.15 89.9941 1268.57 91.4833C1265.99 92.9725 1265.99 95.3952 1268.57 96.8844C1271.15 98.3737 1275.35 98.3737 1277.93 96.8844C1280.51 95.3952 1280.51 92.9725 1277.93 91.4833Z" fill="white"/>
</g>
<rect width="181.765" height="26.1323" transform="matrix(0.866025 0.5 -0.866025 0.5 1332.44 96.5933)" fill="white"/>
<g clip-path="url(#clip2)">
<path d="M1227.12 138.272C1228 137.028 1228.44 135.713 1228.44 134.367C1228.44 133.019 1228 131.706 1227.12 130.462C1226.22 129.172 1224.89 128.016 1223.17 127.026C1221.46 126.036 1219.45 125.269 1217.22 124.745C1215.07 124.241 1212.79 123.985 1210.46 123.984C1208.12 123.984 1205.85 124.241 1203.69 124.745C1201.46 125.268 1199.46 126.036 1197.74 127.026C1197.59 127.117 1197.58 127.266 1197.74 127.357L1203.26 130.541C1203.42 130.633 1203.68 130.632 1203.83 130.541C1207.49 128.432 1213.43 128.431 1217.09 130.541C1220.74 132.651 1220.74 136.085 1217.09 138.195C1215.01 139.393 1212.15 139.953 1209.24 139.734C1208.85 139.705 1208.46 139.66 1208.07 139.603C1208.03 139.596 1207.99 139.589 1207.94 139.583C1207.92 139.58 1207.9 139.577 1207.87 139.572L1207.87 139.571C1201.94 138.536 1195.55 139.463 1191.17 141.989L1188.99 143.25C1188.83 143.342 1188.83 143.49 1188.99 143.581L1194.5 146.765C1194.66 146.856 1194.91 146.856 1195.07 146.764L1197.26 145.503C1199.4 144.267 1202.53 143.82 1205.43 144.337C1205.49 144.348 1205.55 144.357 1205.62 144.367L1205.67 144.375C1205.74 144.387 1205.81 144.398 1205.89 144.409C1206.62 144.522 1207.37 144.605 1208.12 144.661C1210.79 144.862 1213.55 144.711 1216.11 144.225C1218.79 143.713 1221.17 142.867 1223.17 141.709C1224.89 140.718 1226.22 139.562 1227.12 138.272L1227.12 138.272Z" fill="white"/>
<path d="M1187.26 147.76C1184.68 146.27 1180.48 146.27 1177.9 147.76C1175.32 149.249 1175.32 151.672 1177.9 153.161C1180.48 154.65 1184.68 154.65 1187.26 153.161C1189.84 151.672 1189.84 149.249 1187.26 147.76Z" fill="white"/>
</g>
<rect width="181.765" height="26.1323" transform="matrix(0.866025 0.5 -0.866025 0.5 1241.77 152.87)" fill="white"/>
<g clip-path="url(#clip3)">
<path d="M804.952 382.425L804.772 382.25C804.099 381.595 803.524 380.914 803.008 380.214C802.738 379.85 802.403 379.436 801.986 378.975C800.211 377.036 797.813 375.185 794.864 373.482C792.074 371.871 789.046 370.544 785.865 369.533C782.815 368.57 781.393 368.54 779.366 367.369C777.339 366.199 777.289 365.372 775.615 363.615C773.868 361.783 771.567 360.032 768.78 358.423C765.832 356.72 762.627 355.336 759.261 354.308C758.324 354.025 757.497 353.809 756.802 353.64C755.696 353.377 754.634 353.057 753.601 352.699L753.281 352.593C752.664 352.378 751.865 352.437 751.354 352.732L749.562 353.767C749.163 353.997 749.005 354.334 749.152 354.652L749.588 355.586C749.812 356.059 749.577 356.565 748.969 356.916C743.199 360.239 742.432 365.612 747.627 369.235C753.59 373.392 764.325 373.609 770.777 369.884C770.9 369.813 771.029 369.738 771.148 369.662C772.328 368.93 774.36 368.897 775.575 369.616C775.643 369.656 775.709 369.701 775.772 369.743C776.799 370.427 776.564 371.485 775.413 372.097C775.38 372.116 775.34 372.138 775.299 372.155C769.384 375.387 768.811 380.855 774.02 384.471C779.98 388.611 790.696 388.819 797.137 385.1L797.148 385.094C797.947 384.633 799.109 384.456 800.193 384.62L801.378 384.805C801.928 384.89 802.508 384.801 802.911 384.568L804.704 383.534C805.222 383.242 805.322 382.781 804.952 382.425L804.952 382.425ZM749.768 367.849C745.944 364.973 746.55 360.777 751.1 358.275C752.285 357.624 753.643 357.123 755.133 356.79C756.333 356.518 757.684 356.635 758.783 357.018C761.21 357.862 763.535 358.926 765.718 360.186C767.774 361.373 769.527 362.639 770.949 363.951C771.622 364.573 771.842 365.343 771.399 366.027C770.786 366.983 769.821 367.852 768.533 368.596C763.283 371.624 754.462 371.375 749.769 367.85L749.768 367.849ZM776.791 383.522C772.28 380.626 772.686 376.002 777.673 373.376C778.854 372.753 780.201 372.279 781.666 371.965C782.869 371.707 784.209 371.832 785.3 372.221C787.575 373.04 789.758 374.05 791.813 375.237C793.998 376.498 795.841 377.841 797.3 379.241C798.018 379.929 798.125 380.768 797.588 381.507C796.971 382.357 796.076 383.132 794.913 383.803C789.885 386.709 781.6 386.615 776.792 383.522L776.791 383.522Z" fill="white"/>
</g>
<path d="M668.973 454.379C669.348 453.513 669.372 452.613 669.048 451.741C668.729 450.894 668.205 450.077 667.492 449.313C667.104 448.889 666.604 448.392 666.038 447.825C665.588 447.365 665.072 446.877 664.245 446.141C663.385 445.381 662.633 444.582 661.992 443.751C661.691 443.34 661.571 442.89 661.639 442.445C661.726 442.063 662.051 441.711 662.554 441.456L662.766 441.333C663.188 441.115 663.71 440.976 664.267 440.928C665.202 440.875 666.143 440.97 666.992 441.204C668.37 441.597 669.611 442.134 670.654 442.786C671.496 443.273 672.224 443.82 672.821 444.412C673.207 444.813 673.468 445.25 673.591 445.701C673.672 445.986 673.657 446.278 673.552 446.56L672.885 448.353L679.096 449.132L679.763 447.339C680.039 446.609 680.076 445.855 679.87 445.118C679.631 444.245 679.126 443.402 678.383 442.63C678.091 442.33 677.775 442.039 677.433 441.758L682.139 439.041L677.646 436.447L673.034 439.109C672.02 438.656 670.932 438.26 669.783 437.931C667.898 437.4 665.794 437.176 663.705 437.283L663.572 437.289C661.608 437.424 659.769 437.918 658.324 438.697C656.691 439.531 655.63 440.676 655.331 441.922L655.307 442.02L655.309 442.021C655.118 443.124 655.425 444.239 656.2 445.254C656.983 446.253 657.9 447.216 658.942 448.134C659.69 448.812 660.156 449.25 660.548 449.659L660.61 449.695C661.143 450.21 661.582 450.651 661.946 451.043L661.948 451.042C662.376 451.497 662.694 451.985 662.887 452.491C662.992 452.798 662.981 453.116 662.852 453.418C662.652 453.769 662.301 454.083 661.829 454.333L661.729 454.391C661.202 454.718 660.511 454.937 659.752 455.021C658.681 455.122 657.586 455.037 656.601 454.778C655.094 454.389 653.738 453.826 652.619 453.127L652.479 453.046C651.174 452.338 650.186 451.459 649.592 450.485C649.331 449.982 649.285 449.451 649.451 448.937L650.017 447.131L643.767 446.478L643.201 448.285L643.199 448.286C642.848 449.39 642.962 450.528 643.532 451.602L643.565 451.654C644.195 452.699 645.112 453.679 646.283 454.553L641.7 457.2L646.193 459.794L650.877 457.089C651.88 457.496 652.953 457.842 654.081 458.12C656.171 458.661 658.493 458.841 660.757 458.636C664.611 458.201 667.751 456.592 668.957 454.433L668.973 454.379Z" fill="white"/>
<path d="M520.591 926.316C520.029 924.91 519.261 923.552 518.344 922.339C517.451 921.159 516.481 920.085 515.463 919.145C514.902 918.621 514.222 918.02 513.447 917.333C512.824 916.773 512.144 916.19 511.093 915.325C510.005 914.433 508.937 913.452 507.897 912.39C507.39 911.859 506.94 911.22 506.589 910.533C506.302 909.934 506.159 909.312 506.19 908.785L506.19 908.54C506.212 908.091 506.352 907.731 506.589 907.498C507.01 907.149 507.563 907.02 508.191 907.126C509.22 907.317 510.306 907.764 511.392 908.442C512.234 908.928 513.072 909.539 513.884 910.256C514.424 910.745 514.933 911.325 515.385 911.966C515.672 912.37 515.918 912.813 516.109 913.266L517.328 916.149L521.109 915.524L519.889 912.641C519.395 911.467 518.761 910.326 518.019 909.279C517.144 908.039 516.161 906.92 515.121 905.977C514.715 905.611 514.305 905.265 513.89 904.942L513.89 899.508L509.397 896.914L509.397 902.239C508.498 901.852 507.611 901.573 506.752 901.411C505.35 901.159 504.103 901.43 503.151 902.192L503.09 902.241C502.225 903.011 501.734 904.282 501.686 905.868C501.591 907.59 502.052 909.614 502.982 911.57L503.055 911.723L503.057 911.724C503.917 913.434 505.036 915.017 506.302 916.316C507.559 917.589 508.851 918.768 510.167 919.845C511.128 920.645 511.74 921.168 512.291 921.669L512.353 921.704C513.066 922.323 513.667 922.858 514.189 923.342L514.189 923.339C514.796 923.898 515.378 924.538 515.913 925.242C516.231 925.671 516.501 926.151 516.699 926.643C516.903 927.227 516.999 927.799 516.979 928.31L516.979 928.426C516.999 929.068 516.843 929.597 516.536 929.941C516.089 930.402 515.468 930.591 514.75 930.486C513.66 930.338 512.495 929.885 511.33 929.16L511.19 929.079C509.924 928.393 508.669 927.36 507.528 926.07C506.962 925.391 506.479 924.609 506.117 923.789L504.836 920.916L501.146 921.742L502.427 924.615L502.427 924.617C503.208 926.376 504.25 928.049 505.466 929.495L505.527 929.564C506.747 930.949 508.055 932.155 509.397 933.128L509.397 938.42L513.89 941.014L513.89 935.606C514.744 935.926 515.58 936.135 516.385 936.228C517.899 936.435 519.215 936.035 520.169 935.074C521.721 933.309 521.896 929.988 520.63 926.402L520.591 926.316Z" fill="white"/>
<path d="M609 575V1062" stroke="white" stroke-width="3" stroke-dasharray="6 6"/>
<path d="M608 1063L424 1172L75 966.5L-36.5 1035" stroke="#1C2129" stroke-width="3" stroke-dasharray="6 6"/>
<g clip-path="url(#clip4)">
<path d="M523.774 651.631C521.678 652.704 518.831 652.43 515.747 650.649C512.662 648.868 509.815 645.855 507.719 642.362C503.844 643.731 501.314 647.887 501.314 652.224C501.314 659.119 503.489 662.658 515.747 669.735C528.004 676.812 530.179 675.785 530.179 668.889C530.179 664.552 527.649 657.477 523.774 651.631Z" fill="white"/>
<path d="M524.96 642.318C524.96 648.193 520.834 650.575 515.746 647.637C510.659 644.7 506.533 637.554 506.533 631.679C506.533 625.804 510.659 623.422 515.746 626.359C520.834 629.297 524.96 636.443 524.96 642.318Z" fill="white"/>
</g>
<rect width="198.608" height="30.2892" transform="matrix(0.866025 0.5 -2.20305e-08 1 553 653.554)" fill="white"/>
<g clip-path="url(#clip5)">
<path d="M491.431 778.405L491.431 783.428C491.431 784.336 492.075 785.452 492.862 785.906L493.535 786.294L493.535 777.969L492.862 777.581C492.075 777.127 491.431 777.497 491.431 778.405L491.431 778.405Z" fill="white"/>
<path d="M535.786 802.364L535.121 801.98L535.121 810.305L535.786 810.689C536.58 811.147 537.217 810.771 537.217 809.862L537.217 804.84C537.217 803.931 536.58 802.822 535.786 802.363L535.786 802.364Z" fill="white"/>
<path d="M494.966 775.317L494.966 790.601C494.966 791.509 495.61 792.625 496.397 793.079L497.841 793.913L497.841 775.325L496.397 774.491C495.61 774.037 494.966 774.407 494.966 775.317L494.966 775.317Z" fill="white"/>
<path d="M532.259 795.197L530.807 794.358L530.807 812.946L532.259 813.785C533.046 814.239 533.69 813.867 533.69 812.958L533.69 797.675C533.69 796.765 533.046 795.651 532.259 795.197L532.259 795.197Z" fill="white"/>
<path d="M504.623 775.159L500.703 772.896C499.916 772.442 499.272 772.814 499.272 773.722L499.272 797.16C499.272 798.068 499.916 799.184 500.703 799.638L504.623 801.901C505.417 802.36 506.054 801.984 506.054 801.075L506.054 777.638C506.054 776.729 505.417 775.618 504.623 775.159V775.159Z" fill="white"/>
<path d="M527.946 788.625L524.025 786.361C523.238 785.907 522.594 786.279 522.594 787.187L522.594 810.625C522.594 811.533 523.238 812.649 524.025 813.103L527.946 815.367C528.74 815.825 529.376 815.449 529.376 814.541L529.376 791.103C529.376 790.195 528.74 789.083 527.946 788.625V788.625Z" fill="white"/>
<path d="M507.485 786.642L521.163 794.539L521.163 802.305L507.485 794.408L507.485 786.642Z" fill="white"/>
</g>
</g>
<defs>
<linearGradient id="paint0_linear" x1="8.22111" y1="147.166" x2="117.465" y2="-35.3695" gradientUnits="userSpaceOnUse">
<stop stop-color="#8489FF"/>
<stop offset="1" stop-color="#2DBCFF"/>
</linearGradient>
<linearGradient id="paint1_linear" x1="8.2649" y1="146.431" x2="116.43" y2="-36.1765" gradientUnits="userSpaceOnUse">
<stop stop-color="#8489FF"/>
<stop offset="1" stop-color="#2DBCFF"/>
</linearGradient>
<linearGradient id="paint2_linear" x1="8.2649" y1="146.431" x2="116.43" y2="-36.1765" gradientUnits="userSpaceOnUse">
<stop stop-color="#8489FF"/>
<stop offset="1" stop-color="#2DBCFF"/>
</linearGradient>
<linearGradient id="paint3_linear" x1="28.3703" y1="17.94" x2="122.123" y2="185.429" gradientUnits="userSpaceOnUse">
<stop stop-color="#5D48E2"/>
<stop offset="1" stop-color="#2658D8"/>
</linearGradient>
<linearGradient id="paint4_linear" x1="80.9078" y1="11.1558" x2="81.1672" y2="162.334" gradientUnits="userSpaceOnUse">
<stop stop-color="#46ADFF"/>
<stop offset="1" stop-color="#595BEA"/>
</linearGradient>
<clipPath id="clip0">
<rect width="1622" height="1212" fill="white"/>
</clipPath>
<clipPath id="clip1">
<rect width="58.0719" height="58.0719" fill="white" transform="matrix(0.866025 0.5 -0.866025 0.5 1291.2 54.7822)"/>
</clipPath>
<clipPath id="clip2">
<rect width="58.0719" height="58.0719" fill="white" transform="matrix(0.866025 0.5 -0.866025 0.5 1200.53 111.059)"/>
</clipPath>
<clipPath id="clip3">
<rect width="64.853" height="64.853" fill="white" transform="matrix(0.866025 0.5 -0.866025 0.5 771.826 339.292)"/>
</clipPath>
<clipPath id="clip4">
<rect width="57.1495" height="57.1495" fill="white" transform="matrix(0.866025 0.5 -2.20305e-08 1 491 605.185)"/>
</clipPath>
<clipPath id="clip5">
<rect width="56.1739" height="56.1739" fill="white" transform="matrix(0.866025 0.5 -2.20305e-08 1 490 752)"/>
</clipPath>
</defs>
</svg>
