<svg width="1622" height="1212" viewBox="0 0 1622 1212" fill="none" xmlns="http://www.w3.org/2000/svg">
<g clip-path="url(#clip0)">
<path d="M574 -209L1424.5 293" stroke="#1C2129" stroke-width="3" stroke-dasharray="6 6"/>
<path d="M330 -95L1250 449" stroke="#1C2129" stroke-width="3" stroke-dasharray="6 6"/>
<path d="M14 -14L983 558" stroke="#1C2129" stroke-width="3" stroke-dasharray="6 6"/>
<path d="M-204 132L788 720.5" stroke="#1C2129" stroke-width="3" stroke-dasharray="6 6"/>
<path d="M-444 275L534.5 851" stroke="#1C2129" stroke-width="3" stroke-dasharray="6 6"/>
<rect width="1462.86" height="202.733" transform="matrix(-0.866025 0.5 0.866025 0.5 1433.88 70.7622)" fill="#29313C"/>
<rect width="1464.44" height="133.899" transform="matrix(-0.866025 0.5 2.20305e-08 1 1609.65 171.312)" fill="#1C2129"/>
<rect width="201.481" height="134.42" transform="matrix(-0.866025 -0.5 -2.20305e-08 1 342.09 902.845)" fill="#1C2129"/>
<rect opacity="0.8" width="87.1224" height="68.2538" transform="matrix(-0.866025 0.5 0.866025 0.5 1364.33 125.728)" fill="url(#paint0_linear)"/>
<g style="mix-blend-mode:screen">
<rect width="87.5864" height="67.913" transform="matrix(-0.866025 0.5 0.866025 0.5 1364.63 146.455)" fill="url(#paint1_linear)"/>
</g>
<g style="mix-blend-mode:screen">
<rect width="87.5864" height="67.913" transform="matrix(-0.866025 0.5 0.866025 0.5 1364.63 172.343)" fill="url(#paint2_linear)"/>
</g>
<rect opacity="0.8" width="87.4777" height="67.913" transform="matrix(-0.866025 0.5 2.20305e-08 1 1423.44 159.854)" fill="url(#paint3_linear)"/>
<rect opacity="0.8" width="67.913" height="67.913" transform="matrix(-0.866025 -0.5 -2.20305e-08 1 1347.69 203.253)" fill="url(#paint4_linear)"/>
<rect opacity="0.8" width="87.1224" height="68.2538" transform="matrix(-0.866025 0.5 0.866025 0.5 1146.72 255.849)" fill="url(#paint5_linear)"/>
<g style="mix-blend-mode:screen">
<rect width="87.5864" height="67.913" transform="matrix(-0.866025 0.5 0.866025 0.5 1147.01 276.576)" fill="url(#paint6_linear)"/>
</g>
<g style="mix-blend-mode:screen">
<rect width="87.5864" height="67.913" transform="matrix(-0.866025 0.5 0.866025 0.5 1147.01 302.464)" fill="url(#paint7_linear)"/>
</g>
<rect opacity="0.8" width="87.4777" height="67.913" transform="matrix(-0.866025 0.5 2.20305e-08 1 1205.83 289.976)" fill="url(#paint8_linear)"/>
<rect opacity="0.8" width="67.913" height="67.913" transform="matrix(-0.866025 -0.5 -2.20305e-08 1 1130.07 333.374)" fill="url(#paint9_linear)"/>
<rect opacity="0.8" width="87.1224" height="68.2538" transform="matrix(-0.866025 0.5 0.866025 0.5 919.005 385.97)" fill="url(#paint10_linear)"/>
<g style="mix-blend-mode:screen">
<rect width="87.5864" height="67.913" transform="matrix(-0.866025 0.5 0.866025 0.5 919.3 406.698)" fill="url(#paint11_linear)"/>
</g>
<g style="mix-blend-mode:screen">
<rect width="87.5864" height="67.913" transform="matrix(-0.866025 0.5 0.866025 0.5 919.3 432.585)" fill="url(#paint12_linear)"/>
</g>
<rect opacity="0.8" width="87.4777" height="67.913" transform="matrix(-0.866025 0.5 2.20305e-08 1 978.114 420.097)" fill="url(#paint13_linear)"/>
<rect opacity="0.8" width="67.913" height="67.913" transform="matrix(-0.866025 -0.5 -2.20305e-08 1 902.356 463.496)" fill="url(#paint14_linear)"/>
<rect opacity="0.8" width="87.1224" height="68.2538" transform="matrix(-0.866025 0.5 0.866025 0.5 684.562 523.944)" fill="url(#paint15_linear)"/>
<g style="mix-blend-mode:screen">
<rect width="87.5864" height="67.913" transform="matrix(-0.866025 0.5 0.866025 0.5 684.857 544.671)" fill="url(#paint16_linear)"/>
</g>
<g style="mix-blend-mode:screen">
<rect width="87.5864" height="67.913" transform="matrix(-0.866025 0.5 0.866025 0.5 684.857 570.559)" fill="url(#paint17_linear)"/>
</g>
<rect opacity="0.8" width="87.4777" height="67.913" transform="matrix(-0.866025 0.5 2.20305e-08 1 743.671 558.071)" fill="url(#paint18_linear)"/>
<rect opacity="0.8" width="67.913" height="67.913" transform="matrix(-0.866025 -0.5 -2.20305e-08 1 667.913 601.469)" fill="url(#paint19_linear)"/>
<rect opacity="0.8" width="87.1224" height="68.2538" transform="matrix(-0.866025 0.5 0.866025 0.5 446.943 665.312)" fill="url(#paint20_linear)"/>
<g style="mix-blend-mode:screen">
<rect width="87.5864" height="67.913" transform="matrix(-0.866025 0.5 0.866025 0.5 447.238 686.039)" fill="url(#paint21_linear)"/>
</g>
<g style="mix-blend-mode:screen">
<rect width="87.5864" height="67.913" transform="matrix(-0.866025 0.5 0.866025 0.5 447.238 711.927)" fill="url(#paint22_linear)"/>
</g>
<rect opacity="0.8" width="87.4777" height="67.913" transform="matrix(-0.866025 0.5 2.20305e-08 1 506.052 699.438)" fill="url(#paint23_linear)"/>
<rect opacity="0.8" width="67.913" height="67.913" transform="matrix(-0.866025 -0.5 -2.20305e-08 1 430.294 742.837)" fill="url(#paint24_linear)"/>
<g clip-path="url(#clip1)">
<path d="M506.783 837.798L472.403 857.647C466.894 860.828 462.427 868.562 462.427 874.924L462.427 930.665C462.427 937.026 466.894 939.602 472.403 936.421L489.593 926.5L506.783 916.575C512.289 913.396 516.759 905.66 516.759 899.299L516.759 843.555C516.759 837.193 512.289 834.619 506.783 837.798L506.783 837.798ZM484.393 868.035L494.795 862.03C495.895 861.395 496.789 861.911 496.789 863.182C496.789 864.453 495.895 866.001 494.795 866.637L484.393 872.645C483.293 873.281 482.399 872.768 482.399 871.494C482.396 870.221 483.29 868.672 484.393 868.035L484.393 868.035ZM506.425 901.391L472.761 920.828C471.66 921.463 470.766 920.95 470.766 919.676C470.766 918.405 471.66 916.857 472.761 916.221L506.428 896.783C507.529 896.148 508.423 896.664 508.423 897.935C508.42 899.207 507.529 900.754 506.425 901.391L506.425 901.391ZM506.425 891.023L472.761 910.459C471.66 911.095 470.766 910.582 470.766 909.308C470.766 908.037 471.66 906.488 472.761 905.853L506.428 886.415C507.529 885.779 508.423 886.295 508.423 887.566C508.42 888.842 507.529 890.386 506.425 891.023L506.425 891.023ZM506.425 881.81L472.761 901.246C471.66 901.882 470.766 901.369 470.766 900.094C470.766 898.823 471.66 897.275 472.761 896.639L506.428 877.202C507.529 876.566 508.423 877.082 508.423 878.353C508.42 879.626 507.529 881.173 506.425 881.81L506.425 881.81ZM506.425 871.441L472.761 890.878C471.66 891.513 470.766 891 470.766 889.726C470.766 888.455 471.66 886.907 472.761 886.271L506.428 866.833C507.529 866.198 508.423 866.714 508.423 867.985C508.42 869.261 507.529 870.804 506.425 871.441L506.425 871.441Z" fill="white"/>
</g>
<g clip-path="url(#clip2)">
<path d="M691.382 696.012L769.604 650.85L769.604 677.947L691.382 723.109L691.382 696.012Z" fill="white"/>
<path d="M696.974 699.219L699.871 697.546L699.871 697.998L698.648 698.704L698.648 702.204L698.184 702.472L698.184 698.972L696.974 699.67L696.974 699.219ZM702.508 698.183L702.508 699.975L702.08 700.222L702.08 698.444C702.08 698.173 702.031 697.993 701.933 697.908C701.842 697.82 701.704 697.829 701.518 697.936C701.288 698.068 701.108 698.257 700.98 698.501C700.848 698.746 700.784 699.009 700.784 699.291L700.784 700.97L700.357 701.217L700.357 697.096L700.784 696.849L700.784 698.472C700.882 698.24 700.998 698.038 701.139 697.873C701.276 697.702 701.432 697.562 701.603 697.463C701.903 697.291 702.129 697.269 702.275 697.4C702.428 697.52 702.508 697.781 702.508 698.183ZM705.621 696.569L705.621 696.809L703.678 697.931C703.693 698.261 703.779 698.472 703.935 698.559C704.096 698.635 704.316 698.592 704.595 698.432C704.756 698.338 704.912 698.227 705.059 698.093C705.212 697.959 705.368 697.802 705.523 697.627L705.523 698.079C705.368 698.247 705.209 698.395 705.047 698.524C704.891 698.649 704.732 698.762 704.57 698.855C704.161 699.092 703.837 699.145 703.592 699.011C703.354 698.876 703.238 698.573 703.238 698.1C703.238 697.613 703.351 697.16 703.58 696.745C703.806 696.333 704.112 696.015 704.497 695.793C704.845 695.592 705.12 695.56 705.316 695.701C705.517 695.839 705.621 696.128 705.621 696.569L705.621 696.569ZM705.193 696.675C705.193 696.414 705.126 696.241 704.998 696.153C704.876 696.064 704.711 696.079 704.509 696.195C704.271 696.333 704.081 696.523 703.935 696.767C703.794 696.999 703.715 697.257 703.69 697.543L705.193 696.675ZM707.94 692.887L708.564 692.527L710.079 694.955L710.079 691.652L710.531 691.391L710.531 695.343L709.908 695.703L708.38 693.282L708.38 696.585L707.94 696.839L707.94 692.887ZM712.521 691.569C712.291 691.702 712.111 691.912 711.983 692.19C711.851 692.464 711.787 692.78 711.787 693.136C711.787 693.496 711.852 693.741 711.983 693.87C712.111 693.993 712.291 693.988 712.521 693.856C712.741 693.729 712.915 693.529 713.046 693.256C713.175 692.977 713.242 692.656 713.242 692.296C713.242 691.951 713.175 691.711 713.046 691.577C712.915 691.448 712.741 691.442 712.521 691.569ZM712.521 691.16C712.887 690.948 713.171 690.922 713.376 691.075C713.587 691.229 713.694 691.548 713.694 692.035C713.694 692.526 713.587 692.968 713.376 693.362C713.172 693.755 712.887 694.053 712.521 694.265C712.145 694.482 711.851 694.517 711.641 694.364C711.436 694.21 711.335 693.887 711.335 693.397C711.335 692.91 711.436 692.471 711.641 692.078C711.851 691.684 712.145 691.377 712.521 691.16ZM714.427 691.922L714.427 690.13L714.843 689.89L714.843 691.668C714.843 691.951 714.886 692.138 714.977 692.226C715.075 692.303 715.222 692.282 715.417 692.169C715.643 692.039 715.824 691.857 715.955 691.619C716.083 691.375 716.151 691.107 716.151 690.814L716.151 689.135L716.578 688.888L716.578 691.852L716.151 692.099L716.151 691.647C716.044 691.889 715.921 692.09 715.784 692.254C715.653 692.414 715.497 692.547 715.32 692.649C715.026 692.818 714.8 692.847 714.647 692.727C714.501 692.596 714.427 692.328 714.427 691.922V691.922ZM719.655 688.283L719.655 690.075L719.228 690.322L719.228 688.544C719.228 688.272 719.179 688.092 719.081 688.008C718.989 687.919 718.852 687.928 718.665 688.036C718.436 688.168 718.256 688.357 718.128 688.6C717.996 688.846 717.932 689.108 717.932 689.391L717.932 691.07L717.504 691.317L717.504 688.354L717.932 688.107L717.932 688.572C718.03 688.339 718.146 688.138 718.286 687.972C718.424 687.801 718.58 687.662 718.751 687.563C719.05 687.39 719.276 687.369 719.423 687.5C719.576 687.62 719.655 687.881 719.655 688.283L719.655 688.283ZM722.586 684.869L722.586 686.351L723.16 686.02C723.38 685.893 723.545 685.737 723.661 685.547C723.783 685.346 723.845 685.127 723.845 684.891C723.845 684.658 723.783 684.509 723.661 684.446C723.545 684.382 723.38 684.411 723.16 684.538L722.586 684.869ZM722.121 684.7L723.16 684.1C723.542 683.88 723.832 683.818 724.028 683.91C724.223 683.994 724.321 684.231 724.321 684.615C724.321 685.003 724.223 685.349 724.028 685.66C723.832 685.97 723.542 686.237 723.16 686.457L722.586 686.789L722.586 688.383L722.121 688.652L722.121 684.7ZM726.494 683.615C726.445 683.615 726.39 683.629 726.335 683.65C726.277 683.666 726.216 683.691 726.151 683.728C725.913 683.866 725.73 684.063 725.601 684.314C725.479 684.564 725.418 684.854 725.418 685.182L725.418 686.748L724.99 686.995L724.99 684.032L725.418 683.785L725.418 684.25C725.498 684.017 725.608 683.816 725.748 683.651C725.895 683.481 726.069 683.338 726.274 683.22C726.304 683.202 726.338 683.19 726.371 683.178C726.402 683.16 726.445 683.142 726.494 683.121L726.494 683.615ZM727.985 682.641C727.756 682.774 727.575 682.984 727.447 683.262C727.316 683.536 727.251 683.852 727.251 684.208C727.251 684.568 727.316 684.813 727.447 684.942C727.575 685.065 727.756 685.06 727.985 684.928C728.205 684.801 728.379 684.601 728.51 684.328C728.639 684.049 728.706 683.728 728.706 683.368C728.706 683.022 728.639 682.783 728.51 682.648C728.379 682.52 728.205 682.514 727.985 682.641ZM727.985 682.232C728.351 682.02 728.636 681.994 728.84 682.147C729.051 682.301 729.158 682.62 729.158 683.107C729.158 683.597 729.051 684.04 728.84 684.434C728.636 684.827 728.351 685.125 727.985 685.337C727.609 685.554 727.316 685.589 727.105 685.436C726.9 685.282 726.799 684.959 726.799 684.469C726.799 683.982 726.9 683.543 727.105 683.149C727.316 682.756 727.609 682.449 727.985 682.232ZM729.928 681.181L730.356 680.934L730.356 683.954C730.356 684.328 730.289 684.642 730.16 684.885C730.038 685.125 729.836 685.326 729.561 685.485L729.403 685.577L729.403 685.168L729.513 685.104C729.674 685.011 729.784 684.898 729.843 684.772C729.898 684.656 729.928 684.462 729.928 684.201L729.928 681.181ZM729.928 680.023L730.356 679.776L730.356 680.397L729.928 680.644L729.928 680.023ZM733.466 680.493L733.466 680.733L731.523 681.855C731.538 682.184 731.624 682.396 731.78 682.483C731.942 682.558 732.162 682.516 732.44 682.356C732.602 682.262 732.757 682.151 732.904 682.017C733.057 681.883 733.213 681.726 733.369 681.551L733.369 682.003C733.213 682.17 733.054 682.319 732.892 682.447C732.736 682.573 732.577 682.686 732.415 682.779C732.006 683.015 731.682 683.068 731.437 682.934C731.199 682.8 731.083 682.497 731.083 682.024C731.083 681.537 731.196 681.084 731.425 680.669C731.651 680.256 731.957 679.939 732.342 679.717C732.69 679.515 732.965 679.484 733.161 679.625C733.362 679.762 733.466 680.052 733.466 680.493L733.466 680.493ZM733.039 680.599C733.039 680.337 732.971 680.165 732.843 680.076C732.721 679.988 732.556 680.002 732.354 680.119C732.116 680.256 731.926 680.447 731.78 680.69C731.639 680.923 731.56 681.181 731.535 681.466L733.039 680.599ZM736.073 677.746L736.073 678.198C735.957 678.19 735.841 678.201 735.718 678.233C735.596 678.268 735.474 678.317 735.352 678.388C735.083 678.543 734.869 678.773 734.716 679.065C734.569 679.348 734.496 679.669 734.496 680.025C734.496 680.392 734.569 680.632 734.716 680.745C734.869 680.854 735.083 680.83 735.352 680.674C735.474 680.604 735.596 680.516 735.718 680.406C735.841 680.3 735.957 680.177 736.073 680.032L736.073 680.484C735.957 680.618 735.834 680.734 735.706 680.837C735.584 680.935 735.452 681.025 735.315 681.105C734.924 681.331 734.612 681.376 734.386 681.232C734.157 681.082 734.044 680.766 734.044 680.286C734.044 679.806 734.157 679.367 734.386 678.96C734.621 678.542 734.939 678.217 735.339 677.986C735.468 677.912 735.596 677.852 735.718 677.809C735.841 677.767 735.957 677.749 736.073 677.746L736.073 677.746ZM737.292 676.082L737.292 676.929L738.16 676.428L738.16 676.809L737.292 677.31L737.292 678.919C737.292 679.155 737.319 679.295 737.377 679.335C737.432 679.371 737.552 679.334 737.732 679.23L738.16 678.983L738.16 679.392L737.732 679.639C737.405 679.828 737.182 679.886 737.06 679.815C736.937 679.745 736.876 679.526 736.876 679.159L736.876 677.55L736.559 677.734L736.559 677.353L736.876 677.169L736.876 676.322L737.292 676.082Z" fill="white"/>
<path d="M698.169 704.178L698.474 704.001L698.474 706.641L698.169 706.817L698.169 704.178ZM700.314 703.673L700.314 703.984C700.231 703.975 700.149 703.987 700.069 704.012C699.996 704.026 699.917 704.058 699.837 704.104C699.648 704.213 699.501 704.365 699.397 704.555C699.299 704.746 699.25 704.961 699.25 705.205C699.25 705.452 699.299 705.61 699.397 705.684C699.501 705.758 699.648 705.737 699.837 705.628C699.917 705.582 699.996 705.529 700.069 705.466C700.149 705.392 700.231 705.302 700.314 705.198L700.314 705.508C700.231 705.594 700.149 705.67 700.069 705.734C699.987 705.81 699.898 705.875 699.8 705.931C699.538 706.083 699.33 706.111 699.177 706.009C699.03 705.907 698.957 705.695 698.957 705.374C698.957 705.056 699.034 704.762 699.189 704.492C699.342 704.217 699.556 703.998 699.825 703.843C699.904 703.797 699.987 703.76 700.069 703.73C700.149 703.705 700.231 703.686 700.314 703.673L700.314 703.673ZM701.46 703.167C701.313 703.252 701.194 703.391 701.105 703.583C701.014 703.77 700.971 703.979 700.971 704.211C700.971 704.448 701.014 704.61 701.105 704.698C701.194 704.781 701.313 704.776 701.46 704.691C701.612 704.603 701.732 704.471 701.814 704.289C701.903 704.097 701.949 703.883 701.949 703.647C701.949 703.414 701.903 703.257 701.814 703.174C701.732 703.081 701.612 703.079 701.46 703.167ZM701.46 702.899C701.704 702.758 701.894 702.744 702.034 702.849C702.181 702.945 702.254 703.153 702.254 703.47C702.254 703.792 702.181 704.088 702.034 704.36C701.894 704.631 701.704 704.832 701.46 704.973C701.215 705.115 701.023 705.134 700.885 705.023C700.745 704.917 700.677 704.702 700.677 704.381C700.677 704.063 700.745 703.774 700.885 703.513C701.023 703.246 701.215 703.04 701.46 702.899ZM704.145 702.167L704.145 703.366L703.864 703.529L703.864 702.343C703.864 702.156 703.831 702.038 703.767 701.99C703.699 701.937 703.608 701.941 703.485 702.012C703.33 702.101 703.207 702.228 703.119 702.393C703.027 702.551 702.984 702.724 702.984 702.922L702.984 704.037L702.703 704.199L702.703 702.223L702.984 702.061L702.984 702.371C703.058 702.209 703.137 702.072 703.229 701.962C703.317 701.855 703.424 701.765 703.547 701.694C703.742 701.581 703.889 701.567 703.987 701.652C704.09 701.726 704.145 701.895 704.145 702.167L704.145 702.167ZM705.386 700.011L707.317 698.896L707.317 699.207L706.51 699.672L706.51 702.001L706.205 702.177L706.205 699.849L705.386 700.321L705.386 700.011ZM709.071 699.45L709.071 699.605L707.775 700.353C707.791 700.57 707.849 700.713 707.947 700.777C708.05 700.83 708.197 700.801 708.387 700.692C708.49 700.632 708.594 700.558 708.692 700.473C708.796 700.385 708.903 700.277 709.01 700.149L709.01 700.459C708.903 700.57 708.796 700.667 708.692 700.755C708.585 700.845 708.478 700.921 708.374 700.981C708.096 701.142 707.876 701.181 707.714 701.094C707.558 700.997 707.482 700.787 707.482 700.466C707.482 700.149 707.555 699.852 707.702 699.577C707.855 699.302 708.063 699.087 708.325 698.935C708.552 698.804 708.732 698.785 708.863 698.878C709.001 698.968 709.071 699.161 709.071 699.45L709.071 699.45ZM708.79 699.514C708.79 699.344 708.744 699.237 708.655 699.182C708.573 699.117 708.463 699.124 708.325 699.203C708.17 699.293 708.044 699.418 707.946 699.577C707.855 699.736 707.803 699.91 707.788 700.106L708.79 699.514ZM710.861 697.894C710.935 697.704 711.02 697.545 711.118 697.421C711.216 697.301 711.329 697.201 711.46 697.125C711.638 697.023 711.778 697.012 711.876 697.097C711.974 697.181 712.023 697.358 712.023 697.619L712.023 698.818L711.741 698.981L711.741 697.795C711.741 697.608 711.708 697.49 711.644 697.442C711.586 697.384 711.5 697.384 711.387 697.45C711.24 697.534 711.121 697.659 711.033 697.824C710.95 697.977 710.91 698.148 710.91 698.346L710.91 699.461L710.629 699.623L710.629 698.437C710.629 698.25 710.599 698.13 710.544 698.078C710.486 698.019 710.397 698.021 710.275 698.092C710.128 698.176 710.009 698.302 709.92 698.466C709.838 698.619 709.798 698.79 709.798 698.988L709.798 700.103L709.517 700.265L709.517 698.289L709.798 698.127L709.798 698.437C709.862 698.28 709.939 698.145 710.03 698.035C710.119 697.928 710.226 697.838 710.348 697.767C710.476 697.693 710.583 697.67 710.666 697.697C710.754 697.712 710.819 697.778 710.861 697.894L710.861 697.894ZM712.845 698.048L712.845 699.092L712.563 699.254L712.563 696.53L712.845 696.368L712.845 696.664C712.909 696.515 712.985 696.386 713.077 696.276C713.165 696.169 713.272 696.079 713.395 696.008C713.605 695.886 713.776 695.883 713.908 695.994C714.036 696.111 714.103 696.319 714.103 696.629C714.103 696.94 714.036 697.232 713.908 697.504C713.776 697.771 713.605 697.961 713.395 698.083C713.272 698.153 713.165 698.187 713.077 698.182C712.985 698.171 712.909 698.123 712.845 698.048L712.845 698.048ZM713.81 696.799C713.81 696.566 713.764 696.409 713.676 696.326C713.593 696.232 713.48 696.227 713.333 696.312C713.178 696.402 713.055 696.543 712.967 696.735C712.884 696.917 712.845 697.123 712.845 697.356C712.845 697.592 712.884 697.756 712.967 697.85C713.055 697.933 713.178 697.926 713.333 697.836C713.48 697.751 713.593 697.622 713.676 697.441C713.764 697.248 713.81 697.035 713.81 696.799ZM714.562 694.6L714.843 694.438L714.843 697.19L714.562 697.353L714.562 694.6ZM716.215 695.41C715.986 695.542 715.827 695.662 715.738 695.77C715.646 695.879 715.604 696.01 715.604 696.158C715.604 696.271 715.634 696.345 715.701 696.37C715.775 696.395 715.863 696.375 715.97 696.313C716.132 696.22 716.258 696.088 716.349 695.911C716.447 695.724 716.496 695.527 716.496 695.318L716.496 695.248L716.215 695.41ZM716.777 694.944L716.777 696.073L716.496 696.236L716.496 695.939C716.429 696.091 716.349 696.229 716.251 696.349C716.154 696.462 716.035 696.559 715.897 696.638C715.726 696.737 715.585 696.762 715.481 696.709C715.375 696.65 715.323 696.525 715.323 696.335C715.323 696.119 715.387 695.916 715.518 695.728C715.646 695.541 715.839 695.373 716.093 695.227L716.496 694.994L716.496 694.952C716.496 694.803 716.45 694.717 716.361 694.69C716.279 694.653 716.16 694.68 716.007 694.768C715.909 694.824 715.811 694.895 715.714 694.98C715.622 695.061 715.537 695.153 715.457 695.255L715.457 694.944C715.555 694.842 715.653 694.754 715.75 694.676C715.848 694.602 715.94 694.539 716.032 694.486C716.282 694.341 716.472 694.309 716.594 694.387C716.716 694.458 716.777 694.645 716.777 694.944L716.777 694.944ZM717.63 693.041L717.63 693.605L718.204 693.274L718.204 693.528L717.63 693.86L717.63 694.932C717.63 695.094 717.645 695.188 717.678 695.214C717.718 695.241 717.801 695.214 717.923 695.144L718.204 694.982L718.204 695.25L717.923 695.412C717.703 695.539 717.55 695.581 717.471 695.532C717.388 695.488 717.348 695.341 717.348 695.094L717.348 694.022L717.141 694.142L717.141 693.888L717.348 693.768L717.348 693.203L717.63 693.041ZM720.043 693.115L720.043 693.27L718.748 694.018C718.763 694.235 718.821 694.378 718.919 694.442C719.023 694.495 719.17 694.466 719.359 694.357C719.463 694.297 719.567 694.223 719.665 694.138C719.768 694.05 719.875 693.942 719.982 693.814L719.982 694.124C719.875 694.235 719.768 694.332 719.665 694.421C719.558 694.51 719.451 694.586 719.347 694.646C719.069 694.807 718.849 694.846 718.687 694.759C718.531 694.662 718.455 694.452 718.455 694.131C718.455 693.814 718.528 693.517 718.675 693.242C718.827 692.967 719.035 692.752 719.298 692.6C719.524 692.469 719.704 692.45 719.836 692.543C719.973 692.633 720.043 692.826 720.043 693.115L720.043 693.115ZM719.762 693.179C719.762 693.009 719.716 692.902 719.628 692.847C719.545 692.782 719.435 692.789 719.298 692.868C719.142 692.958 719.017 693.083 718.919 693.242C718.827 693.401 718.775 693.576 718.76 693.771L719.762 693.179Z" fill="white"/>
<path d="M697.64 711.818L705.462 707.302Z" fill="white"/>
<path d="M697.64 711.818L705.462 707.302" stroke="white" stroke-miterlimit="10"/>
<path d="M757.758 714.594L749.267 719.496C745.383 721.738 742.227 719.912 742.227 715.431L742.227 703.689L710.938 721.754C706.617 724.248 703.116 730.313 703.116 735.302L703.116 798.528C703.116 803.517 706.617 805.539 710.938 803.044L750.049 780.464C754.369 777.969 757.871 771.904 757.871 766.915L757.871 717.238C757.871 716.299 757.828 715.424 757.758 714.593L757.758 714.594ZM740.271 777.077L712.893 792.883C711.812 793.508 710.938 793.003 710.938 791.754C710.938 790.505 711.812 788.992 712.893 788.367L740.271 772.561C741.353 771.936 742.227 772.441 742.227 773.69C742.227 774.939 741.353 776.452 740.271 777.077ZM748.093 764.431L712.893 784.754C711.812 785.379 710.938 784.874 710.938 783.625C710.938 782.376 711.812 780.862 712.893 780.238L748.093 759.915C749.175 759.291 750.049 759.795 750.049 761.044C750.049 762.293 749.175 763.807 748.093 764.431ZM710.938 769.173C710.938 767.924 711.812 766.411 712.893 765.786L732.449 754.496C733.531 753.871 734.404 754.376 734.404 755.625C734.404 756.874 733.531 758.388 732.449 759.012L712.893 770.302C711.812 770.927 710.938 770.422 710.938 769.173ZM748.093 741.851L712.893 762.173C711.812 762.798 710.938 762.293 710.938 761.044C710.938 759.795 711.812 758.282 712.893 757.657L748.093 737.335C749.175 736.71 750.049 737.215 750.049 738.464C750.049 739.713 749.175 741.226 748.093 741.851ZM748.093 733.722L712.893 754.044C711.812 754.669 710.938 754.164 710.938 752.915C710.938 751.666 711.812 750.153 712.893 749.528L748.093 729.206C749.175 728.581 750.049 729.086 750.049 730.335C750.049 731.584 749.175 733.097 748.093 733.722Z" fill="white"/>
<path d="M749.267 715.883L757.241 711.279C754.714 700.551 745.374 701.88 745.356 701.883L745.356 713.625C745.356 716.119 747.106 717.13 749.267 715.883Z" fill="white"/>
</g>
<g clip-path="url(#clip3)">
<path fill-rule="evenodd" clip-rule="evenodd" d="M1378.25 339.688L1378.25 413.752L1414.55 392.791L1426.74 371.674L1426.74 311.687L1378.25 339.688ZM1402.5 333.875L1411.36 333.876L1411.36 346.666L1402.5 356.907L1393.63 356.903L1393.63 344.114L1402.5 333.875ZM1402.5 335.893L1395.2 344.325L1395.2 354.885L1402.5 354.885L1409.8 346.454L1409.8 335.895L1402.5 335.893ZM1402.5 338.543L1405.3 338.544L1405.3 341.995C1404.37 343.075 1403.43 344.156 1402.5 345.232L1399.69 345.232L1399.69 341.782L1402.5 338.543ZM1402.5 340.561L1401.26 341.993L1401.26 343.21L1402.5 343.207L1403.74 341.78L1403.74 340.563L1402.5 340.561ZM1397.67 348.173L1399.24 347.27L1399.24 350.212L1402.5 350.214L1405.76 346.449L1405.76 343.507L1407.32 342.604L1407.32 346.665L1402.5 352.232L1397.67 352.234L1397.67 348.173ZM1390.11 369.275L1414.89 354.97L1414.89 356.776L1390.11 371.082L1390.11 369.275ZM1390.11 376.332L1414.89 362.026L1414.89 363.833L1390.11 378.138L1390.11 376.332ZM1390.11 383.388L1414.89 369.083L1414.89 370.886L1390.11 385.191L1390.11 383.385L1390.11 383.388ZM1415.01 378.978L1424.07 373.745L1415.01 389.442L1415.01 378.978Z" fill="white"/>
</g>
<g clip-path="url(#clip4)">
<path d="M1176.31 455.633L1162.84 478.967L1176.31 471.189L1176.31 455.633Z" fill="white"/>
<path d="M1177.48 456.118L1177.48 471.671L1164.01 479.447L1164.01 537.543L1213.9 508.74L1213.9 435.092L1177.48 456.118ZM1208.55 503.848L1169.87 526.176L1169.87 525.015L1208.54 502.689L1208.54 503.849L1208.55 503.848ZM1208.55 496.887L1169.87 519.215L1169.87 518.054L1208.54 495.727L1208.54 496.888L1208.55 496.887ZM1208.55 489.926L1169.87 512.254L1169.87 511.097L1208.54 488.77L1208.54 489.927L1208.55 489.926ZM1208.55 482.968L1169.87 505.296L1169.87 504.135L1208.54 481.808L1208.54 482.969L1208.55 482.968ZM1208.55 476.01L1169.87 498.339L1169.87 497.178L1208.54 474.851L1208.54 476.012L1208.55 476.01ZM1208.55 469.049L1169.87 491.377L1169.87 490.217L1208.54 467.89L1208.54 469.05L1208.55 469.049ZM1208.55 462.091L1169.87 484.42L1169.87 483.259L1208.54 460.932L1208.54 462.093L1208.55 462.091Z" fill="white"/>
</g>
<g clip-path="url(#clip5)">
<path d="M980.075 564.12L945.695 583.969C940.186 587.15 935.719 594.884 935.719 601.245L935.719 656.986C935.719 663.348 940.186 665.923 945.695 662.743L962.885 652.821L980.075 642.897C985.581 639.717 990.051 631.982 990.051 625.62L990.051 569.876C990.051 563.515 985.581 560.94 980.075 564.12L980.075 564.12ZM957.686 594.357L968.087 588.352C969.187 587.716 970.081 588.232 970.081 589.503C970.081 590.774 969.187 592.323 968.087 592.958L957.686 598.967C956.585 599.602 955.691 599.089 955.691 597.815C955.688 596.542 956.582 594.994 957.686 594.357L957.686 594.357ZM979.717 627.713L946.053 647.149C944.952 647.785 944.058 647.272 944.058 645.997C944.058 644.726 944.952 643.178 946.053 642.542L979.72 623.104C980.821 622.469 981.715 622.985 981.715 624.256C981.712 625.529 980.821 627.076 979.717 627.713L979.717 627.713ZM979.717 617.344L946.053 636.781C944.952 637.416 944.058 636.903 944.058 635.629C944.058 634.358 944.952 632.809 946.053 632.174L979.72 612.736C980.821 612.1 981.715 612.617 981.715 613.888C981.712 615.164 980.821 616.707 979.717 617.344L979.717 617.344ZM979.717 608.131L946.053 627.567C944.952 628.203 944.058 627.69 944.058 626.416C944.058 625.145 944.952 623.596 946.053 622.961L979.72 603.523C980.821 602.887 981.715 603.404 981.715 604.675C981.712 605.947 980.821 607.494 979.717 608.131L979.717 608.131ZM979.717 597.763L946.053 617.199C944.952 617.835 944.058 617.322 944.058 616.047C944.058 614.776 944.952 613.228 946.053 612.592L979.72 593.154C980.821 592.519 981.715 593.035 981.715 594.306C981.712 595.582 980.821 597.126 979.717 597.763L979.717 597.763Z" fill="white"/>
</g>
<path d="M244 983.5L-9 1157.5" stroke="#1C2129" stroke-width="3" stroke-dasharray="6 6"/>
</g>
<defs>
<linearGradient id="paint0_linear" x1="3.43934" y1="61.5675" x2="49.1421" y2="-14.797" gradientUnits="userSpaceOnUse">
<stop stop-color="#8489FF"/>
<stop offset="1" stop-color="#2DBCFF"/>
</linearGradient>
<linearGradient id="paint1_linear" x1="3.45766" y1="61.2601" x2="48.7092" y2="-15.1346" gradientUnits="userSpaceOnUse">
<stop stop-color="#8489FF"/>
<stop offset="1" stop-color="#2DBCFF"/>
</linearGradient>
<linearGradient id="paint2_linear" x1="3.45766" y1="61.2601" x2="48.7092" y2="-15.1346" gradientUnits="userSpaceOnUse">
<stop stop-color="#8489FF"/>
<stop offset="1" stop-color="#2DBCFF"/>
</linearGradient>
<linearGradient id="paint3_linear" x1="11.8688" y1="7.50527" x2="51.0906" y2="77.5752" gradientUnits="userSpaceOnUse">
<stop stop-color="#5D48E2"/>
<stop offset="1" stop-color="#2658D8"/>
</linearGradient>
<linearGradient id="paint4_linear" x1="33.8481" y1="4.66708" x2="33.9567" y2="67.913" gradientUnits="userSpaceOnUse">
<stop stop-color="#46ADFF"/>
<stop offset="1" stop-color="#595BEA"/>
</linearGradient>
<linearGradient id="paint5_linear" x1="3.43934" y1="61.5675" x2="49.1421" y2="-14.797" gradientUnits="userSpaceOnUse">
<stop stop-color="#8489FF"/>
<stop offset="1" stop-color="#2DBCFF"/>
</linearGradient>
<linearGradient id="paint6_linear" x1="3.45766" y1="61.2601" x2="48.7092" y2="-15.1346" gradientUnits="userSpaceOnUse">
<stop stop-color="#8489FF"/>
<stop offset="1" stop-color="#2DBCFF"/>
</linearGradient>
<linearGradient id="paint7_linear" x1="3.45766" y1="61.2601" x2="48.7092" y2="-15.1346" gradientUnits="userSpaceOnUse">
<stop stop-color="#8489FF"/>
<stop offset="1" stop-color="#2DBCFF"/>
</linearGradient>
<linearGradient id="paint8_linear" x1="11.8688" y1="7.50527" x2="51.0906" y2="77.5752" gradientUnits="userSpaceOnUse">
<stop stop-color="#5D48E2"/>
<stop offset="1" stop-color="#2658D8"/>
</linearGradient>
<linearGradient id="paint9_linear" x1="33.8481" y1="4.66708" x2="33.9567" y2="67.913" gradientUnits="userSpaceOnUse">
<stop stop-color="#46ADFF"/>
<stop offset="1" stop-color="#595BEA"/>
</linearGradient>
<linearGradient id="paint10_linear" x1="3.43934" y1="61.5675" x2="49.1421" y2="-14.797" gradientUnits="userSpaceOnUse">
<stop stop-color="#8489FF"/>
<stop offset="1" stop-color="#2DBCFF"/>
</linearGradient>
<linearGradient id="paint11_linear" x1="3.45766" y1="61.2601" x2="48.7092" y2="-15.1346" gradientUnits="userSpaceOnUse">
<stop stop-color="#8489FF"/>
<stop offset="1" stop-color="#2DBCFF"/>
</linearGradient>
<linearGradient id="paint12_linear" x1="3.45766" y1="61.2601" x2="48.7092" y2="-15.1346" gradientUnits="userSpaceOnUse">
<stop stop-color="#8489FF"/>
<stop offset="1" stop-color="#2DBCFF"/>
</linearGradient>
<linearGradient id="paint13_linear" x1="11.8688" y1="7.50527" x2="51.0906" y2="77.5752" gradientUnits="userSpaceOnUse">
<stop stop-color="#5D48E2"/>
<stop offset="1" stop-color="#2658D8"/>
</linearGradient>
<linearGradient id="paint14_linear" x1="33.8481" y1="4.66708" x2="33.9567" y2="67.913" gradientUnits="userSpaceOnUse">
<stop stop-color="#46ADFF"/>
<stop offset="1" stop-color="#595BEA"/>
</linearGradient>
<linearGradient id="paint15_linear" x1="3.43934" y1="61.5675" x2="49.1421" y2="-14.797" gradientUnits="userSpaceOnUse">
<stop stop-color="#8489FF"/>
<stop offset="1" stop-color="#2DBCFF"/>
</linearGradient>
<linearGradient id="paint16_linear" x1="3.45766" y1="61.2601" x2="48.7092" y2="-15.1346" gradientUnits="userSpaceOnUse">
<stop stop-color="#8489FF"/>
<stop offset="1" stop-color="#2DBCFF"/>
</linearGradient>
<linearGradient id="paint17_linear" x1="3.45766" y1="61.2601" x2="48.7092" y2="-15.1346" gradientUnits="userSpaceOnUse">
<stop stop-color="#8489FF"/>
<stop offset="1" stop-color="#2DBCFF"/>
</linearGradient>
<linearGradient id="paint18_linear" x1="11.8688" y1="7.50527" x2="51.0906" y2="77.5752" gradientUnits="userSpaceOnUse">
<stop stop-color="#5D48E2"/>
<stop offset="1" stop-color="#2658D8"/>
</linearGradient>
<linearGradient id="paint19_linear" x1="33.8481" y1="4.66708" x2="33.9567" y2="67.913" gradientUnits="userSpaceOnUse">
<stop stop-color="#46ADFF"/>
<stop offset="1" stop-color="#595BEA"/>
</linearGradient>
<linearGradient id="paint20_linear" x1="3.43934" y1="61.5675" x2="49.1421" y2="-14.797" gradientUnits="userSpaceOnUse">
<stop stop-color="#8489FF"/>
<stop offset="1" stop-color="#2DBCFF"/>
</linearGradient>
<linearGradient id="paint21_linear" x1="3.45766" y1="61.2601" x2="48.7092" y2="-15.1346" gradientUnits="userSpaceOnUse">
<stop stop-color="#8489FF"/>
<stop offset="1" stop-color="#2DBCFF"/>
</linearGradient>
<linearGradient id="paint22_linear" x1="3.45766" y1="61.2601" x2="48.7092" y2="-15.1346" gradientUnits="userSpaceOnUse">
<stop stop-color="#8489FF"/>
<stop offset="1" stop-color="#2DBCFF"/>
</linearGradient>
<linearGradient id="paint23_linear" x1="11.8688" y1="7.50527" x2="51.0906" y2="77.5752" gradientUnits="userSpaceOnUse">
<stop stop-color="#5D48E2"/>
<stop offset="1" stop-color="#2658D8"/>
</linearGradient>
<linearGradient id="paint24_linear" x1="33.8481" y1="4.66708" x2="33.9567" y2="67.913" gradientUnits="userSpaceOnUse">
<stop stop-color="#46ADFF"/>
<stop offset="1" stop-color="#595BEA"/>
</linearGradient>
<clipPath id="clip0">
<rect width="1622" height="1212" fill="white"/>
</clipPath>
<clipPath id="clip1">
<rect width="82.5842" height="82.5842" fill="white" transform="matrix(0.866025 -0.5 2.20305e-08 1 453.833 866.466)"/>
</clipPath>
<clipPath id="clip2">
<rect width="90.3229" height="90.3229" fill="white" transform="matrix(0.866025 -0.5 2.20305e-08 1 691.382 728.528)"/>
</clipPath>
<clipPath id="clip3">
<rect width="90.3229" height="90.3229" fill="white" transform="matrix(0.866025 -0.5 2.20305e-08 1 1363.38 340.139)"/>
</clipPath>
<clipPath id="clip4">
<rect width="90.3229" height="90.3229" fill="white" transform="matrix(0.866025 -0.5 2.20305e-08 1 1149.32 463.882)"/>
</clipPath>
<clipPath id="clip5">
<rect width="82.5842" height="82.5842" fill="white" transform="matrix(0.866025 -0.5 2.20305e-08 1 927.125 592.787)"/>
</clipPath>
</defs>
</svg>
