<svg width="1622" height="1212" viewBox="0 0 1622 1212" fill="none" xmlns="http://www.w3.org/2000/svg">
<g clip-path="url(#clip0)">
<rect width="262.976" height="542.199" transform="matrix(-0.866025 0.5 0.866025 0.5 1014.97 7)" fill="#29313C"/>
<rect width="263.827" height="342.053" transform="matrix(-0.866025 0.5 2.20305e-08 1 1484.91 277.504)" fill="#1C2129"/>
<rect width="541.333" height="344.739" transform="matrix(-0.866025 -0.5 -2.20305e-08 1 1256.43 406.628)" fill="#1C2129"/>
<rect opacity="0.8" width="158.052" height="123.822" transform="matrix(0.866025 0.5 -0.866025 0.5 1068.54 7)" fill="url(#paint0_linear)"/>
<g style="mix-blend-mode:screen">
<rect width="158.894" height="123.204" transform="matrix(0.866025 0.5 -0.866025 0.5 1068.01 44.6025)" fill="url(#paint1_linear)"/>
</g>
<g style="mix-blend-mode:screen">
<rect width="158.894" height="123.204" transform="matrix(0.866025 0.5 -0.866025 0.5 1068.01 91.5674)" fill="url(#paint2_linear)"/>
</g>
<rect opacity="0.8" width="158.697" height="123.204" transform="matrix(0.866025 0.5 -2.20305e-08 1 961.311 68.9111)" fill="url(#paint3_linear)"/>
<rect opacity="0.8" width="123.204" height="123.204" transform="matrix(0.866025 -0.5 2.20305e-08 1 1098.75 147.642)" fill="url(#paint4_linear)"/>
<rect opacity="0.8" width="18.9163" height="25.1451" transform="matrix(0.864149 0.503236 -0.86789 0.496757 1267.92 289.001)" fill="url(#paint5_linear)"/>
<g clip-path="url(#clip1)">
<path opacity="0.8" d="M1273.28 169.836C1273 169.995 1272.82 170.341 1272.82 170.766L1237.85 259.352C1237.11 260.627 1237.44 261.318 1238.54 260.68L1262.12 247.067L1262.12 311.216L1284.2 298.466L1284.2 234.317L1308.47 220.305C1309.21 219.88 1309.65 218.751 1309.28 218.114L1274.31 169.903C1273.94 169.691 1273.55 169.677 1273.28 169.837L1273.28 169.836Z" fill="url(#paint6_linear)"/>
</g>
<g clip-path="url(#clip2)">
<path opacity="0.8" d="M1256.96 160.316C1256.68 160.475 1256.5 160.82 1256.5 161.245L1221.53 249.832C1220.79 251.107 1221.12 251.797 1222.22 251.16L1245.8 237.546L1245.8 301.695L1267.88 288.945L1267.88 224.796L1292.15 210.785C1292.89 210.36 1293.33 209.231 1292.96 208.593L1257.99 160.383C1257.62 160.17 1257.23 160.157 1256.96 160.316L1256.96 160.316Z" fill="url(#paint7_linear)"/>
<rect opacity="0.8" width="18.9163" height="82.2603" transform="matrix(0.864149 0.503236 -0.86789 0.496757 1292.46 209.828)" fill="url(#paint8_linear)"/>
</g>
<rect width="262.976" height="542.199" transform="matrix(-0.866025 0.5 0.866025 0.5 629.231 237.265)" fill="#29313C"/>
<rect width="263.827" height="342.053" transform="matrix(-0.866025 0.5 2.20305e-08 1 1099.17 507.769)" fill="#1C2129"/>
<rect width="541.333" height="344.739" transform="matrix(-0.866025 -0.5 -2.20305e-08 1 870.689 636.893)" fill="#1C2129"/>
<rect opacity="0.8" width="158.052" height="123.822" transform="matrix(0.866025 0.5 -0.866025 0.5 682.801 237.265)" fill="url(#paint9_linear)"/>
<g style="mix-blend-mode:screen">
<rect width="158.894" height="123.204" transform="matrix(0.866025 0.5 -0.866025 0.5 682.267 274.867)" fill="url(#paint10_linear)"/>
</g>
<g style="mix-blend-mode:screen">
<rect width="158.894" height="123.204" transform="matrix(0.866025 0.5 -0.866025 0.5 682.267 321.832)" fill="url(#paint11_linear)"/>
</g>
<rect opacity="0.8" width="158.697" height="123.204" transform="matrix(0.866025 0.5 -2.20305e-08 1 575.568 299.176)" fill="url(#paint12_linear)"/>
<rect opacity="0.8" width="123.204" height="123.204" transform="matrix(0.866025 -0.5 2.20305e-08 1 713.004 377.906)" fill="url(#paint13_linear)"/>
<rect opacity="0.8" width="18.9163" height="25.1451" transform="matrix(0.864149 0.503236 -0.86789 0.496757 882.179 519.266)" fill="url(#paint14_linear)"/>
<g clip-path="url(#clip3)">
<path opacity="0.8" d="M887.534 400.101C887.258 400.26 887.074 400.605 887.074 401.03L852.108 489.617C851.372 490.892 851.694 491.583 852.798 490.945L876.378 477.331L876.378 541.48L898.461 528.73L898.461 464.581L922.73 450.57C923.466 450.145 923.903 449.016 923.535 448.379L888.568 400.168C888.2 399.955 887.809 399.942 887.533 400.101L887.534 400.101Z" fill="url(#paint15_linear)"/>
</g>
<g clip-path="url(#clip4)">
<path opacity="0.8" d="M871.215 390.58C870.939 390.74 870.755 391.085 870.755 391.51L835.788 480.097C835.052 481.372 835.374 482.062 836.478 481.425L860.058 467.811L860.058 531.96L882.141 519.21L882.141 455.061L906.41 441.049C907.146 440.624 907.583 439.496 907.215 438.858L872.249 390.647C871.881 390.435 871.489 390.422 871.213 390.581L871.215 390.58Z" fill="url(#paint16_linear)"/>
<rect opacity="0.8" width="18.9163" height="82.2603" transform="matrix(0.864149 0.503236 -0.86789 0.496757 906.722 440.093)" fill="url(#paint17_linear)"/>
</g>
<rect width="262.976" height="542.199" transform="matrix(-0.866025 0.5 0.866025 0.5 227.744 467.529)" fill="#29313C"/>
<rect width="263.827" height="342.053" transform="matrix(-0.866025 0.5 2.20305e-08 1 697.683 738.033)" fill="#1C2129"/>
<rect width="541.333" height="344.739" transform="matrix(-0.866025 -0.5 -2.20305e-08 1 469.202 867.157)" fill="#1C2129"/>
<rect opacity="0.8" width="158.052" height="123.822" transform="matrix(0.866025 0.5 -0.866025 0.5 281.314 467.529)" fill="url(#paint18_linear)"/>
<g style="mix-blend-mode:screen">
<rect width="158.894" height="123.204" transform="matrix(0.866025 0.5 -0.866025 0.5 280.78 505.132)" fill="url(#paint19_linear)"/>
</g>
<g style="mix-blend-mode:screen">
<rect width="158.894" height="123.204" transform="matrix(0.866025 0.5 -0.866025 0.5 280.78 552.097)" fill="url(#paint20_linear)"/>
</g>
<rect opacity="0.8" width="158.697" height="123.204" transform="matrix(0.866025 0.5 -2.20305e-08 1 174.081 529.44)" fill="url(#paint21_linear)"/>
<rect opacity="0.8" width="123.204" height="123.204" transform="matrix(0.866025 -0.5 2.20305e-08 1 311.517 608.171)" fill="url(#paint22_linear)"/>
<rect opacity="0.8" width="18.9163" height="25.1451" transform="matrix(0.864149 0.503236 -0.86789 0.496757 480.692 749.53)" fill="url(#paint23_linear)"/>
<g clip-path="url(#clip5)">
<path opacity="0.8" d="M486.047 630.365C485.771 630.525 485.587 630.87 485.587 631.295L450.62 719.882C449.884 721.157 450.206 721.847 451.311 721.21L474.89 707.596L474.89 771.745L496.974 758.995L496.974 694.846L521.242 680.835C521.978 680.41 522.416 679.281 522.047 678.643L487.081 630.432C486.713 630.22 486.322 630.207 486.046 630.366L486.047 630.365Z" fill="url(#paint24_linear)"/>
</g>
<g clip-path="url(#clip6)">
<path opacity="0.8" d="M469.727 620.845C469.451 621.004 469.267 621.35 469.267 621.775L434.3 710.361C433.564 711.636 433.886 712.327 434.99 711.689L458.57 698.076L458.57 762.224L480.654 749.474L480.654 685.326L504.922 671.314C505.658 670.889 506.095 669.76 505.727 669.123L470.761 620.912C470.393 620.699 470.002 620.686 469.726 620.846L469.727 620.845Z" fill="url(#paint25_linear)"/>
<rect opacity="0.8" width="18.9163" height="82.2603" transform="matrix(0.864149 0.503236 -0.86789 0.496757 505.235 670.357)" fill="url(#paint26_linear)"/>
</g>
<path d="M1546 0L1293 174" stroke="#1C2129" stroke-width="3" stroke-dasharray="6 6"/>
<path d="M1369 685L1622 859" stroke="#1C2129" stroke-width="3" stroke-dasharray="6 6"/>
<path d="M985 904L1429 1212" stroke="#1C2129" stroke-width="3" stroke-dasharray="6 6"/>
<path d="M589 1132L1033 1440" stroke="#1C2129" stroke-width="3" stroke-dasharray="6 6"/>
</g>
<defs>
<linearGradient id="paint0_linear" x1="6.23944" y1="111.692" x2="89.1508" y2="-26.8438" gradientUnits="userSpaceOnUse">
<stop stop-color="#8489FF"/>
<stop offset="1" stop-color="#2DBCFF"/>
</linearGradient>
<linearGradient id="paint1_linear" x1="6.27268" y1="111.134" x2="88.3654" y2="-27.4563" gradientUnits="userSpaceOnUse">
<stop stop-color="#8489FF"/>
<stop offset="1" stop-color="#2DBCFF"/>
</linearGradient>
<linearGradient id="paint2_linear" x1="6.27268" y1="111.134" x2="88.3654" y2="-27.4563" gradientUnits="userSpaceOnUse">
<stop stop-color="#8489FF"/>
<stop offset="1" stop-color="#2DBCFF"/>
</linearGradient>
<linearGradient id="paint3_linear" x1="21.5317" y1="13.6156" x2="92.6855" y2="140.732" gradientUnits="userSpaceOnUse">
<stop stop-color="#5D48E2"/>
<stop offset="1" stop-color="#2658D8"/>
</linearGradient>
<linearGradient id="paint4_linear" x1="61.4053" y1="8.46674" x2="61.6022" y2="123.204" gradientUnits="userSpaceOnUse">
<stop stop-color="#46ADFF"/>
<stop offset="1" stop-color="#595BEA"/>
</linearGradient>
<linearGradient id="paint5_linear" x1="0.746761" y1="22.6819" x2="19.8495" y2="3.87037" gradientUnits="userSpaceOnUse">
<stop stop-color="#8489FF"/>
<stop offset="1" stop-color="#2DBCFF"/>
</linearGradient>
<linearGradient id="paint6_linear" x1="1240.29" y1="310.598" x2="1341.58" y2="192.169" gradientUnits="userSpaceOnUse">
<stop stop-color="#8489FF"/>
<stop offset="1" stop-color="#2DBCFF"/>
</linearGradient>
<linearGradient id="paint7_linear" x1="1223.97" y1="301.077" x2="1325.26" y2="182.649" gradientUnits="userSpaceOnUse">
<stop stop-color="#8489FF"/>
<stop offset="1" stop-color="#2DBCFF"/>
</linearGradient>
<linearGradient id="paint8_linear" x1="0.746761" y1="74.2019" x2="35.248" y2="63.8164" gradientUnits="userSpaceOnUse">
<stop stop-color="#8489FF"/>
<stop offset="1" stop-color="#2DBCFF"/>
</linearGradient>
<linearGradient id="paint9_linear" x1="6.23944" y1="111.692" x2="89.1508" y2="-26.8438" gradientUnits="userSpaceOnUse">
<stop stop-color="#8489FF"/>
<stop offset="1" stop-color="#2DBCFF"/>
</linearGradient>
<linearGradient id="paint10_linear" x1="6.27268" y1="111.134" x2="88.3654" y2="-27.4563" gradientUnits="userSpaceOnUse">
<stop stop-color="#8489FF"/>
<stop offset="1" stop-color="#2DBCFF"/>
</linearGradient>
<linearGradient id="paint11_linear" x1="6.27268" y1="111.134" x2="88.3654" y2="-27.4563" gradientUnits="userSpaceOnUse">
<stop stop-color="#8489FF"/>
<stop offset="1" stop-color="#2DBCFF"/>
</linearGradient>
<linearGradient id="paint12_linear" x1="21.5317" y1="13.6156" x2="92.6855" y2="140.732" gradientUnits="userSpaceOnUse">
<stop stop-color="#5D48E2"/>
<stop offset="1" stop-color="#2658D8"/>
</linearGradient>
<linearGradient id="paint13_linear" x1="61.4053" y1="8.46674" x2="61.6022" y2="123.204" gradientUnits="userSpaceOnUse">
<stop stop-color="#46ADFF"/>
<stop offset="1" stop-color="#595BEA"/>
</linearGradient>
<linearGradient id="paint14_linear" x1="0.746761" y1="22.6819" x2="19.8495" y2="3.87037" gradientUnits="userSpaceOnUse">
<stop stop-color="#8489FF"/>
<stop offset="1" stop-color="#2DBCFF"/>
</linearGradient>
<linearGradient id="paint15_linear" x1="854.552" y1="540.862" x2="955.835" y2="422.434" gradientUnits="userSpaceOnUse">
<stop stop-color="#8489FF"/>
<stop offset="1" stop-color="#2DBCFF"/>
</linearGradient>
<linearGradient id="paint16_linear" x1="838.232" y1="531.342" x2="939.515" y2="412.913" gradientUnits="userSpaceOnUse">
<stop stop-color="#8489FF"/>
<stop offset="1" stop-color="#2DBCFF"/>
</linearGradient>
<linearGradient id="paint17_linear" x1="0.746761" y1="74.2019" x2="35.248" y2="63.8164" gradientUnits="userSpaceOnUse">
<stop stop-color="#8489FF"/>
<stop offset="1" stop-color="#2DBCFF"/>
</linearGradient>
<linearGradient id="paint18_linear" x1="6.23944" y1="111.692" x2="89.1508" y2="-26.8438" gradientUnits="userSpaceOnUse">
<stop stop-color="#8489FF"/>
<stop offset="1" stop-color="#2DBCFF"/>
</linearGradient>
<linearGradient id="paint19_linear" x1="6.27268" y1="111.134" x2="88.3654" y2="-27.4563" gradientUnits="userSpaceOnUse">
<stop stop-color="#8489FF"/>
<stop offset="1" stop-color="#2DBCFF"/>
</linearGradient>
<linearGradient id="paint20_linear" x1="6.27268" y1="111.134" x2="88.3654" y2="-27.4563" gradientUnits="userSpaceOnUse">
<stop stop-color="#8489FF"/>
<stop offset="1" stop-color="#2DBCFF"/>
</linearGradient>
<linearGradient id="paint21_linear" x1="21.5317" y1="13.6156" x2="92.6855" y2="140.732" gradientUnits="userSpaceOnUse">
<stop stop-color="#5D48E2"/>
<stop offset="1" stop-color="#2658D8"/>
</linearGradient>
<linearGradient id="paint22_linear" x1="61.4053" y1="8.46674" x2="61.6022" y2="123.204" gradientUnits="userSpaceOnUse">
<stop stop-color="#46ADFF"/>
<stop offset="1" stop-color="#595BEA"/>
</linearGradient>
<linearGradient id="paint23_linear" x1="0.746761" y1="22.6819" x2="19.8495" y2="3.87037" gradientUnits="userSpaceOnUse">
<stop stop-color="#8489FF"/>
<stop offset="1" stop-color="#2DBCFF"/>
</linearGradient>
<linearGradient id="paint24_linear" x1="453.065" y1="771.127" x2="554.348" y2="652.699" gradientUnits="userSpaceOnUse">
<stop stop-color="#8489FF"/>
<stop offset="1" stop-color="#2DBCFF"/>
</linearGradient>
<linearGradient id="paint25_linear" x1="436.744" y1="761.607" x2="538.028" y2="643.178" gradientUnits="userSpaceOnUse">
<stop stop-color="#8489FF"/>
<stop offset="1" stop-color="#2DBCFF"/>
</linearGradient>
<linearGradient id="paint26_linear" x1="0.746761" y1="74.2019" x2="35.248" y2="63.8164" gradientUnits="userSpaceOnUse">
<stop stop-color="#8489FF"/>
<stop offset="1" stop-color="#2DBCFF"/>
</linearGradient>
<clipPath id="clip0">
<rect width="1622" height="1212" fill="white"/>
</clipPath>
<clipPath id="clip1">
<rect width="136.001" height="136.001" fill="white" transform="matrix(0.866025 -0.5 2.20305e-08 1 1214.27 202.841)"/>
</clipPath>
<clipPath id="clip2">
<rect width="136.001" height="136.001" fill="white" transform="matrix(0.866025 -0.5 2.20305e-08 1 1197.95 193.32)"/>
</clipPath>
<clipPath id="clip3">
<rect width="136.001" height="136.001" fill="white" transform="matrix(0.866025 -0.5 2.20305e-08 1 828.529 433.105)"/>
</clipPath>
<clipPath id="clip4">
<rect width="136.001" height="136.001" fill="white" transform="matrix(0.866025 -0.5 2.20305e-08 1 812.209 423.585)"/>
</clipPath>
<clipPath id="clip5">
<rect width="136.001" height="136.001" fill="white" transform="matrix(0.866025 -0.5 2.20305e-08 1 427.042 663.37)"/>
</clipPath>
<clipPath id="clip6">
<rect width="136.001" height="136.001" fill="white" transform="matrix(0.866025 -0.5 2.20305e-08 1 410.722 653.85)"/>
</clipPath>
</defs>
</svg>
