<svg width="1622" height="1212" viewBox="0 0 1622 1212" fill="none" xmlns="http://www.w3.org/2000/svg">
<g clip-path="url(#clip0)">
<rect width="638.583" height="922.959" transform="matrix(-0.866025 0.5 0.866025 0.5 553.694 0)" fill="#29313C"/>
<rect opacity="0.8" width="99.4467" height="77.9089" transform="matrix(-0.866025 0.5 0.866025 0.5 491.464 206.604)" fill="url(#paint0_linear)"/>
<g style="mix-blend-mode:screen">
<rect width="99.9764" height="77.5199" transform="matrix(-0.866025 0.5 0.866025 0.5 491.8 230.264)" fill="url(#paint1_linear)"/>
</g>
<g style="mix-blend-mode:screen">
<rect width="99.9764" height="77.5199" transform="matrix(-0.866025 0.5 0.866025 0.5 491.8 259.813)" fill="url(#paint2_linear)"/>
</g>
<rect opacity="0.8" width="99.8522" height="77.5199" transform="matrix(-0.866025 0.5 2.20305e-08 1 558.935 245.559)" fill="url(#paint3_linear)"/>
<rect opacity="0.8" width="77.5199" height="77.5199" transform="matrix(-0.866025 -0.5 -2.20305e-08 1 472.46 295.097)" fill="url(#paint4_linear)"/>
<rect width="638.419" height="277.498" transform="matrix(-0.866025 0.5 2.20305e-08 1 1350.77 461.149)" fill="#1C2129"/>
<rect width="921.313" height="277.498" transform="matrix(-0.866025 -0.5 -2.20305e-08 1 797.88 779.399)" fill="#1C2129"/>
<path d="M269 164L407 254" stroke="white" stroke-width="3" stroke-dasharray="6 6"/>
<path d="M526 347L561 370" stroke="white" stroke-width="3" stroke-dasharray="6 6"/>
<path d="M792 291L1202 550.949V828" stroke="white" stroke-width="3" stroke-dasharray="6 6"/>
<g clip-path="url(#clip1)">
<path d="M518.997 392.945L625.124 331.672C642.131 321.854 669.702 321.849 686.708 331.667L835.724 417.702C852.73 427.52 852.721 443.438 835.715 453.257L782.66 483.898L729.596 514.535C712.598 524.349 685.018 524.358 668.012 514.54L518.988 428.5C501.981 418.682 501.999 402.759 518.997 392.945L518.997 392.945ZM634.388 379.76L602.281 398.298C598.883 400.259 598.883 403.446 602.281 405.408C605.679 407.37 611.198 407.37 614.596 405.408L646.712 386.875C650.11 384.914 650.119 381.732 646.712 379.765C643.314 377.793 637.795 377.793 634.388 379.76L634.388 379.76ZM689.556 490.143L793.476 430.145C796.874 428.183 796.882 425.001 793.476 423.035C790.078 421.073 784.558 421.073 781.16 423.035L677.232 483.038C673.834 485 673.834 488.186 677.232 490.148C680.638 492.105 686.149 492.11 689.556 490.143L689.556 490.143ZM661.837 474.14L765.757 414.142C769.155 412.18 769.164 408.998 765.757 407.031C762.359 405.069 756.84 405.069 753.442 407.031L649.513 467.034C646.115 468.996 646.115 472.183 649.513 474.145C652.928 476.107 658.431 476.107 661.837 474.14L661.837 474.14ZM637.208 459.92L741.127 399.921C744.525 397.96 744.534 394.778 741.127 392.811C737.729 390.849 732.21 390.849 728.812 392.811L624.883 452.814C621.485 454.776 621.485 457.963 624.883 459.925C628.29 461.882 633.801 461.886 637.207 459.92L637.208 459.92ZM609.489 443.916L713.409 383.918C716.807 381.956 716.815 378.775 713.409 376.808C710.011 374.846 704.491 374.846 701.093 376.808L597.165 436.811C593.767 438.773 593.767 441.96 597.165 443.921C600.58 445.883 606.082 445.883 609.489 443.916L609.489 443.916Z" fill="white"/>
</g>
<path d="M1053 736L1654 1086.5" stroke="#1C2129" stroke-width="3" stroke-dasharray="6 6"/>
<path d="M657.481 372.116L705.422 343.58L790.461 292.214" stroke="#29313C" stroke-width="3" stroke-dasharray="6 6"/>
<path d="M705.422 343.579L794.456 290.501" stroke="white" stroke-width="3" stroke-dasharray="6 6"/>
<path d="M684.876 393.233L732.817 364.696L817.856 313.331" stroke="#29313C" stroke-width="3" stroke-dasharray="6 6"/>
<path d="M732.817 364.696L821.851 311.618" stroke="white" stroke-width="3" stroke-dasharray="6 6"/>
<path d="M708.846 412.638L756.788 384.102L841.826 332.736" stroke="#29313C" stroke-width="3" stroke-dasharray="6 6"/>
<path d="M756.788 384.101L845.821 331.023" stroke="white" stroke-width="3" stroke-dasharray="6 6"/>
<path d="M732.817 426.335L780.758 397.799L865.797 346.433" stroke="#29313C" stroke-width="3" stroke-dasharray="6 6"/>
<path d="M780.758 397.799L869.792 344.721" stroke="white" stroke-width="3" stroke-dasharray="6 6"/>
<path d="M762.495 441.174L810.436 412.638L895.475 361.272" stroke="#29313C" stroke-width="3" stroke-dasharray="6 6"/>
<path d="M810.436 412.637L899.47 359.56" stroke="white" stroke-width="3" stroke-dasharray="6 6"/>
</g>
<defs>
<linearGradient id="paint0_linear" x1="3.92586" y1="70.2768" x2="56.0938" y2="-16.8902" gradientUnits="userSpaceOnUse">
<stop stop-color="#8489FF"/>
<stop offset="1" stop-color="#2DBCFF"/>
</linearGradient>
<linearGradient id="paint1_linear" x1="3.94677" y1="69.9259" x2="55.5996" y2="-17.2755" gradientUnits="userSpaceOnUse">
<stop stop-color="#8489FF"/>
<stop offset="1" stop-color="#2DBCFF"/>
</linearGradient>
<linearGradient id="paint2_linear" x1="3.94677" y1="69.9259" x2="55.5996" y2="-17.2755" gradientUnits="userSpaceOnUse">
<stop stop-color="#8489FF"/>
<stop offset="1" stop-color="#2DBCFF"/>
</linearGradient>
<linearGradient id="paint3_linear" x1="13.5478" y1="8.56696" x2="58.3178" y2="88.549" gradientUnits="userSpaceOnUse">
<stop stop-color="#5D48E2"/>
<stop offset="1" stop-color="#2658D8"/>
</linearGradient>
<linearGradient id="paint4_linear" x1="38.6363" y1="5.32728" x2="38.7602" y2="77.5199" gradientUnits="userSpaceOnUse">
<stop stop-color="#46ADFF"/>
<stop offset="1" stop-color="#595BEA"/>
</linearGradient>
<clipPath id="clip0">
<rect width="1622" height="1212" fill="white"/>
</clipPath>
<clipPath id="clip1">
<rect width="254.932" height="254.932" fill="white" transform="matrix(-0.866025 0.5 0.866025 0.5 677.361 295.638)"/>
</clipPath>
</defs>
</svg>
