<svg width="25" height="25" viewBox="0 0 25 25" fill="none" xmlns="http://www.w3.org/2000/svg">
<path d="M12.5 16.4062C14.6574 16.4062 16.4062 14.6574 16.4062 12.5C16.4062 10.3426 14.6574 8.59375 12.5 8.59375C10.3426 8.59375 8.59375 10.3426 8.59375 12.5C8.59375 14.6574 10.3426 16.4062 12.5 16.4062Z" stroke="#829CF8" stroke-miterlimit="10" stroke-linecap="round" stroke-linejoin="round"/>
<path d="M24.2188 14.0625V10.9375L20.8172 10.3703C20.6125 9.57031 20.2984 8.81719 19.8875 8.125L21.8922 5.31875L19.6812 3.10938L16.875 5.1125C16.1828 4.70156 15.4297 4.3875 14.6297 4.18281L14.0625 0.78125H10.9375L10.3703 4.18281C9.57031 4.3875 8.81719 4.70156 8.125 5.1125L5.31875 3.10938L3.10938 5.31875L5.1125 8.125C4.70156 8.81719 4.3875 9.57031 4.18281 10.3703L0.78125 10.9375V14.0625L4.18281 14.6297C4.3875 15.4297 4.70156 16.1828 5.1125 16.875L3.10938 19.6812L5.31875 21.8906L8.125 19.8875C8.81719 20.2984 9.57031 20.6125 10.3703 20.8172L10.9375 24.2188H14.0625L14.6297 20.8172C15.4297 20.6125 16.1828 20.2984 16.875 19.8875L19.6812 21.8922L21.8906 19.6828L19.8875 16.875C20.2984 16.1828 20.6125 15.4297 20.8172 14.6297L24.2188 14.0625Z" stroke="#829CF8" stroke-miterlimit="10" stroke-linecap="round" stroke-linejoin="round"/>
</svg>
