<svg width="1622" height="1212" viewBox="0 0 1622 1212" fill="none" xmlns="http://www.w3.org/2000/svg">
<g clip-path="url(#clip0)">
<rect width="559.444" height="1093.83" transform="matrix(0.866025 0.5 -0.866025 0.5 1137.29 0)" fill="#29313C"/>
<rect width="559.301" height="243.108" transform="matrix(0.866025 0.5 -2.20305e-08 1 190.124 546.989)" fill="#1C2129"/>
<rect width="1094.79" height="243.108" transform="matrix(0.866025 -0.5 2.20305e-08 1 674.244 826.639)" fill="#1C2129"/>
<path d="M1370.48 134.747L1249.48 213.747" stroke="white" stroke-width="3" stroke-dasharray="6 6"/>
<path d="M399.475 912.747V670.662L574.354 561.747L641.018 605.679L1004.48 372.747" stroke="white" stroke-width="3" stroke-dasharray="6 6"/>
<rect opacity="0.8" width="209.245" height="163.927" transform="matrix(0.866025 0.5 -0.866025 0.5 1067.99 79.1368)" fill="url(#paint0_linear)"/>
<g style="mix-blend-mode:screen">
<rect width="210.359" height="163.109" transform="matrix(0.866025 0.5 -0.866025 0.5 1067.29 128.919)" fill="url(#paint1_linear)"/>
</g>
<g style="mix-blend-mode:screen">
<rect width="210.359" height="163.109" transform="matrix(0.866025 0.5 -0.866025 0.5 1067.29 191.093)" fill="url(#paint2_linear)"/>
</g>
<rect opacity="0.8" width="210.098" height="163.109" transform="matrix(0.866025 0.5 -2.20305e-08 1 926.029 161.101)" fill="url(#paint3_linear)"/>
<rect opacity="0.8" width="163.109" height="163.109" transform="matrix(0.866025 -0.5 2.20305e-08 1 1107.98 265.333)" fill="url(#paint4_linear)"/>
<g clip-path="url(#clip1)">
<path d="M994.35 407.943L956.287 385.967C950.187 382.446 940.299 382.444 934.199 385.965L880.754 416.822C874.655 420.343 874.658 426.052 880.757 429.574L899.786 440.564L918.817 451.551C924.914 455.071 934.805 455.075 940.905 451.553L994.353 420.695C1000.45 417.173 1000.45 411.463 994.35 407.943L994.35 407.943ZM952.964 403.214L964.48 409.863C965.698 410.566 965.698 411.709 964.48 412.413C963.261 413.116 961.281 413.116 960.063 412.413L948.544 405.766C947.325 405.062 947.322 403.921 948.544 403.216C949.763 402.509 951.742 402.509 952.964 403.214L952.964 403.214ZM933.178 442.803L895.907 421.285C894.688 420.581 894.685 419.44 895.907 418.735C897.125 418.031 899.105 418.031 900.324 418.735L937.598 440.255C938.817 440.959 938.817 442.101 937.598 442.805C936.376 443.507 934.4 443.509 933.178 442.803L933.178 442.803ZM943.119 437.064L905.848 415.545C904.629 414.841 904.626 413.7 905.848 412.995C907.067 412.291 909.046 412.291 910.265 412.995L947.539 434.515C948.758 435.219 948.758 436.362 947.539 437.065C946.315 437.769 944.341 437.769 943.119 437.064L943.119 437.064ZM951.953 431.964L914.682 410.445C913.463 409.741 913.46 408.6 914.682 407.895C915.9 407.191 917.88 407.191 919.099 407.895L956.373 429.415C957.592 430.119 957.592 431.262 956.373 431.965C955.151 432.667 953.175 432.669 951.953 431.964L951.953 431.964ZM961.894 426.224L924.623 404.705C923.404 404.002 923.401 402.861 924.623 402.155C925.842 401.452 927.821 401.452 929.04 402.155L966.314 423.676C967.533 424.379 967.533 425.522 966.314 426.226C965.09 426.929 963.116 426.929 961.894 426.224L961.894 426.224Z" fill="white"/>
</g>
<g clip-path="url(#clip2)">
<path d="M859.944 490.232L821.881 468.256C815.782 464.735 805.893 464.733 799.794 468.254L746.349 499.111C740.25 502.633 740.253 508.342 746.352 511.863L765.381 522.853L784.412 533.841C790.509 537.36 800.4 537.364 806.499 533.842L859.948 502.984C866.047 499.462 866.041 493.752 859.945 490.232L859.944 490.232ZM818.559 485.503L830.074 492.152C831.293 492.855 831.293 493.998 830.074 494.702C828.856 495.405 826.876 495.405 825.657 494.702L814.139 488.055C812.92 487.351 812.917 486.21 814.139 485.505C815.358 484.798 817.337 484.798 818.559 485.503L818.559 485.503ZM798.773 525.092L761.502 503.574C760.283 502.87 760.28 501.729 761.502 501.024C762.72 500.32 764.7 500.32 765.918 501.024L803.193 522.544C804.412 523.248 804.412 524.391 803.193 525.094C801.971 525.796 799.995 525.798 798.773 525.092L798.773 525.092ZM808.714 519.353L771.443 497.834C770.224 497.13 770.221 495.989 771.443 495.284C772.662 494.58 774.641 494.58 775.86 495.284L813.134 516.804C814.353 517.508 814.353 518.651 813.134 519.355C811.909 520.058 809.936 520.058 808.714 519.353L808.714 519.353ZM817.548 514.253L780.276 492.734C779.058 492.03 779.055 490.889 780.276 490.184C781.495 489.48 783.475 489.48 784.693 490.184L821.968 511.704C823.187 512.408 823.187 513.551 821.968 514.254C820.746 514.956 818.77 514.958 817.548 514.253L817.548 514.253ZM827.489 508.513L790.218 486.994C788.999 486.291 788.996 485.15 790.218 484.444C791.437 483.741 793.416 483.741 794.635 484.444L831.909 505.965C833.128 506.668 833.128 507.811 831.909 508.515C830.684 509.218 828.711 509.218 827.489 508.513L827.489 508.513Z" fill="white"/>
</g>
<g clip-path="url(#clip3)">
<path d="M726.453 574.349L688.39 552.374C682.291 548.852 672.402 548.85 666.303 552.372L612.858 583.228C606.759 586.75 606.762 592.459 612.861 595.98L631.89 606.97L650.921 617.958C657.018 621.478 666.909 621.481 673.008 617.96L726.457 587.101C732.556 583.58 732.55 577.869 726.453 574.349L726.453 574.349ZM685.068 569.621L696.583 576.269C697.802 576.973 697.802 578.116 696.583 578.819C695.365 579.523 693.385 579.523 692.166 578.819L680.648 572.172C679.429 571.469 679.426 570.328 680.648 569.622C681.866 568.915 683.846 568.915 685.068 569.621L685.068 569.621ZM665.282 609.21L628.01 587.691C626.792 586.988 626.789 585.846 628.01 585.141C629.229 584.437 631.209 584.437 632.427 585.141L669.702 606.661C670.921 607.365 670.921 608.508 669.702 609.212C668.48 609.913 666.504 609.915 665.282 609.21L665.282 609.21ZM675.223 603.47L637.952 581.952C636.733 581.248 636.73 580.107 637.952 579.401C639.17 578.698 641.15 578.698 642.369 579.401L679.643 600.922C680.862 601.625 680.862 602.768 679.643 603.472C678.418 604.176 676.445 604.176 675.223 603.47L675.223 603.47ZM684.057 598.37L646.785 576.851C645.567 576.148 645.564 575.007 646.785 574.301C648.004 573.598 649.984 573.598 651.202 574.301L688.477 595.822C689.695 596.525 689.695 597.668 688.477 598.372C687.255 599.074 685.279 599.075 684.057 598.37L684.057 598.37ZM693.998 592.63L656.727 571.112C655.508 570.408 655.505 569.267 656.727 568.562C657.945 567.858 659.925 567.858 661.144 568.562L698.418 590.082C699.637 590.786 699.637 591.929 698.418 592.632C697.193 593.336 695.22 593.336 693.998 592.63L693.998 592.63Z" fill="white"/>
</g>
<g clip-path="url(#clip4)">
<path d="M551.818 601.779L513.755 579.803C507.655 576.282 497.767 576.28 491.668 579.802L438.223 610.658C432.123 614.18 432.126 619.889 438.226 623.41L457.254 634.4L476.286 645.388C482.382 648.908 492.274 648.911 498.373 645.39L551.821 614.531C557.921 611.01 557.914 605.299 551.818 601.779L551.818 601.779ZM510.432 597.05L521.948 603.699C523.167 604.402 523.167 605.545 521.948 606.249C520.729 606.953 518.75 606.953 517.531 606.249L506.012 599.602C504.794 598.899 504.79 597.758 506.012 597.052C507.231 596.345 509.211 596.345 510.432 597.05L510.432 597.05ZM490.646 636.64L453.375 615.121C452.156 614.417 452.153 613.276 453.375 612.571C454.594 611.867 456.573 611.867 457.792 612.571L495.066 634.091C496.285 634.795 496.285 635.938 495.066 636.641C493.845 637.343 491.868 637.345 490.646 636.64L490.646 636.64ZM500.588 630.9L463.316 609.381C462.098 608.678 462.095 607.537 463.316 606.831C464.535 606.128 466.515 606.128 467.733 606.831L505.008 628.352C506.226 629.055 506.226 630.198 505.008 630.902C503.783 631.605 501.809 631.605 500.588 630.9L500.588 630.9ZM509.421 625.8L472.15 604.281C470.931 603.578 470.928 602.437 472.15 601.731C473.369 601.028 475.348 601.028 476.567 601.731L513.841 623.252C515.06 623.955 515.06 625.098 513.841 625.802C512.62 626.503 510.643 626.505 509.421 625.8L509.421 625.8ZM519.363 620.06L482.091 598.542C480.873 597.838 480.869 596.697 482.091 595.991C483.31 595.288 485.29 595.288 486.508 595.991L523.783 617.512C525.001 618.215 525.001 619.358 523.783 620.062C522.558 620.766 520.584 620.766 519.363 620.06L519.363 620.06Z" fill="white"/>
</g>
<g clip-path="url(#clip5)">
<path d="M418.687 725.352L380.624 703.376C374.524 699.854 369.578 702.706 369.578 709.749L369.578 771.462C369.578 778.506 374.524 787.068 380.624 790.59L399.655 801.581L418.687 812.569C424.783 816.089 429.732 813.238 429.732 806.196L429.732 744.479C429.732 737.436 424.783 728.871 418.687 725.352L418.687 725.352ZM393.899 730.205L405.414 736.854C406.633 737.558 407.623 739.272 407.623 740.679C407.623 742.086 406.633 742.658 405.414 741.954L393.899 735.309C392.68 734.606 391.69 732.895 391.69 731.484C391.687 730.072 392.677 729.5 393.899 730.205L393.899 730.205ZM418.291 795.301L381.019 773.782C379.801 773.079 378.811 771.368 378.811 769.957C378.811 768.55 379.801 767.979 381.019 768.682L418.294 790.203C419.513 790.906 420.502 792.621 420.502 794.028C420.499 795.433 419.513 796.006 418.291 795.301L418.291 795.301ZM418.291 783.822L381.019 762.303C379.801 761.6 378.811 759.889 378.811 758.478C378.811 757.071 379.801 756.499 381.019 757.203L418.294 778.723C419.513 779.427 420.502 781.141 420.502 782.549C420.499 783.958 419.513 784.527 418.291 783.822L418.291 783.822ZM418.291 773.622L381.019 752.103C379.801 751.399 378.811 749.689 378.811 748.278C378.811 746.871 379.801 746.299 381.019 747.003L418.294 768.523C419.513 769.227 420.502 770.941 420.502 772.348C420.499 773.754 419.513 774.327 418.291 773.622L418.291 773.622ZM418.291 762.142L381.019 740.624C379.801 739.92 378.811 738.209 378.811 736.798C378.811 735.391 379.801 734.82 381.019 735.523L418.294 757.044C419.513 757.747 420.502 759.462 420.502 760.869C420.499 762.278 419.513 762.848 418.291 762.142L418.291 762.142Z" fill="white"/>
</g>
<path d="M399.5 911.5L-57.5 1177.5" stroke="#1C2129" stroke-width="3" stroke-dasharray="6 6"/>
<g clip-path="url(#clip6)">
<path d="M393.981 934.9L355.917 912.924C349.818 909.402 339.93 909.401 333.83 912.922L280.385 943.779C274.286 947.3 274.289 953.009 280.388 956.531L299.417 967.52L318.448 978.508C324.545 982.028 334.436 982.031 340.535 978.51L393.984 947.652C400.083 944.13 400.077 938.419 393.981 934.9L393.981 934.9ZM352.595 930.171L364.11 936.819C365.329 937.523 365.329 938.666 364.11 939.369C362.892 940.073 360.912 940.073 359.693 939.369L348.175 932.723C346.956 932.019 346.953 930.878 348.175 930.172C349.394 929.465 351.373 929.465 352.595 930.171L352.595 930.171ZM332.809 969.76L295.538 948.241C294.319 947.538 294.316 946.397 295.538 945.691C296.756 944.988 298.736 944.988 299.954 945.691L337.229 967.212C338.448 967.915 338.448 969.058 337.229 969.762C336.007 970.464 334.031 970.465 332.809 969.76L332.809 969.76ZM342.75 964.02L305.479 942.502C304.26 941.798 304.257 940.657 305.479 939.952C306.698 939.248 308.677 939.248 309.896 939.952L347.17 961.472C348.389 962.176 348.389 963.318 347.17 964.022C345.945 964.726 343.972 964.726 342.75 964.02L342.75 964.02ZM351.584 958.92L314.313 937.402C313.094 936.698 313.091 935.557 314.313 934.851C315.531 934.148 317.511 934.148 318.729 934.851L356.004 956.372C357.223 957.076 357.223 958.218 356.004 958.922C354.782 959.624 352.806 959.626 351.584 958.92L351.584 958.92ZM361.525 953.181L324.254 931.662C323.035 930.958 323.032 929.817 324.254 929.112C325.473 928.408 327.452 928.408 328.671 929.112L365.945 950.632C367.164 951.336 367.164 952.479 365.945 953.182C364.72 953.886 362.747 953.886 361.525 953.181L361.525 953.181Z" fill="#29313C"/>
</g>
<g clip-path="url(#clip7)">
<path d="M262.981 1009.9L224.917 987.924C218.818 984.402 208.93 984.401 202.83 987.922L149.385 1018.78C143.286 1022.3 143.289 1028.01 149.388 1031.53L168.417 1042.52L187.448 1053.51C193.545 1057.03 203.436 1057.03 209.535 1053.51L262.984 1022.65C269.083 1019.13 269.077 1013.42 262.981 1009.9L262.981 1009.9ZM221.595 1005.17L233.11 1011.82C234.329 1012.52 234.329 1013.67 233.11 1014.37C231.892 1015.07 229.912 1015.07 228.693 1014.37L217.175 1007.72C215.956 1007.02 215.953 1005.88 217.175 1005.17C218.394 1004.47 220.373 1004.47 221.595 1005.17L221.595 1005.17ZM201.809 1044.76L164.538 1023.24C163.319 1022.54 163.316 1021.4 164.538 1020.69C165.756 1019.99 167.736 1019.99 168.954 1020.69L206.229 1042.21C207.448 1042.92 207.448 1044.06 206.229 1044.76C205.007 1045.46 203.031 1045.47 201.809 1044.76L201.809 1044.76ZM211.75 1039.02L174.479 1017.5C173.26 1016.8 173.257 1015.66 174.479 1014.95C175.698 1014.25 177.677 1014.25 178.896 1014.95L216.17 1036.47C217.389 1037.18 217.389 1038.32 216.17 1039.02C214.945 1039.73 212.972 1039.73 211.75 1039.02L211.75 1039.02ZM220.584 1033.92L183.313 1012.4C182.094 1011.7 182.091 1010.56 183.313 1009.85C184.531 1009.15 186.511 1009.15 187.729 1009.85L225.004 1031.37C226.223 1032.08 226.223 1033.22 225.004 1033.92C223.782 1034.62 221.806 1034.63 220.584 1033.92L220.584 1033.92ZM230.525 1028.18L193.254 1006.66C192.035 1005.96 192.032 1004.82 193.254 1004.11C194.473 1003.41 196.452 1003.41 197.671 1004.11L234.945 1025.63C236.164 1026.34 236.164 1027.48 234.945 1028.18C233.72 1028.89 231.747 1028.89 230.525 1028.18L230.525 1028.18Z" fill="#29313C"/>
</g>
<g clip-path="url(#clip8)">
<path d="M125.981 1090.9L87.9174 1068.92C81.8179 1065.4 71.9295 1065.4 65.8302 1068.92L12.3851 1099.78C6.28562 1103.3 6.28895 1109.01 12.3883 1112.53L31.4168 1123.52L50.4483 1134.51C56.5447 1138.03 66.4362 1138.03 72.5355 1134.51L125.984 1103.65C132.083 1100.13 132.077 1094.42 125.981 1090.9L125.981 1090.9ZM84.5949 1086.17L96.1104 1092.82C97.3291 1093.52 97.3291 1094.67 96.1104 1095.37C94.8917 1096.07 92.9122 1096.07 91.6935 1095.37L80.1749 1088.72C78.9562 1088.02 78.9531 1086.88 80.1749 1086.17C81.3936 1085.47 83.3731 1085.47 84.5949 1086.17L84.5949 1086.17ZM64.8088 1125.76L27.5375 1104.24C26.3188 1103.54 26.3157 1102.4 27.5375 1101.69C28.7562 1100.99 30.7358 1100.99 31.9545 1101.69L69.2289 1123.21C70.4476 1123.92 70.4476 1125.06 69.2289 1125.76C68.0071 1126.46 66.0306 1126.47 64.8089 1125.76L64.8088 1125.76ZM74.7501 1120.02L37.4789 1098.5C36.2602 1097.8 36.2571 1096.66 37.4789 1095.95C38.6976 1095.25 40.6772 1095.25 41.8959 1095.95L79.1703 1117.47C80.389 1118.18 80.389 1119.32 79.1703 1120.02C77.9454 1120.73 75.972 1120.73 74.7502 1120.02L74.7501 1120.02ZM83.5838 1114.92L46.3125 1093.4C45.0938 1092.7 45.0907 1091.56 46.3125 1090.85C47.5312 1090.15 49.5108 1090.15 50.7295 1090.85L88.0039 1112.37C89.2226 1113.08 89.2226 1114.22 88.0039 1114.92C86.7821 1115.62 84.8056 1115.63 83.5838 1114.92L83.5838 1114.92ZM93.5251 1109.18L56.2539 1087.66C55.0352 1086.96 55.0321 1085.82 56.2539 1085.11C57.4726 1084.41 59.4521 1084.41 60.6708 1085.11L97.9453 1106.63C99.164 1107.34 99.164 1108.48 97.9453 1109.18C96.7204 1109.89 94.747 1109.89 93.5252 1109.18L93.5251 1109.18Z" fill="#29313C"/>
</g>
</g>
<defs>
<linearGradient id="paint0_linear" x1="8.26036" y1="147.869" x2="118.026" y2="-35.5384" gradientUnits="userSpaceOnUse">
<stop stop-color="#8489FF"/>
<stop offset="1" stop-color="#2DBCFF"/>
</linearGradient>
<linearGradient id="paint1_linear" x1="8.30436" y1="147.13" x2="116.986" y2="-36.3493" gradientUnits="userSpaceOnUse">
<stop stop-color="#8489FF"/>
<stop offset="1" stop-color="#2DBCFF"/>
</linearGradient>
<linearGradient id="paint2_linear" x1="8.30436" y1="147.13" x2="116.986" y2="-36.3493" gradientUnits="userSpaceOnUse">
<stop stop-color="#8489FF"/>
<stop offset="1" stop-color="#2DBCFF"/>
</linearGradient>
<linearGradient id="paint3_linear" x1="28.5057" y1="18.0256" x2="122.706" y2="186.315" gradientUnits="userSpaceOnUse">
<stop stop-color="#5D48E2"/>
<stop offset="1" stop-color="#2658D8"/>
</linearGradient>
<linearGradient id="paint4_linear" x1="81.2941" y1="11.2091" x2="81.5548" y2="163.109" gradientUnits="userSpaceOnUse">
<stop stop-color="#46ADFF"/>
<stop offset="1" stop-color="#595BEA"/>
</linearGradient>
<clipPath id="clip0">
<rect width="1622" height="1212" fill="white"/>
</clipPath>
<clipPath id="clip1">
<rect width="91.4322" height="91.4322" fill="white" transform="matrix(0.866025 0.5 -0.866025 0.5 937.552 373.043)"/>
</clipPath>
<clipPath id="clip2">
<rect width="91.4322" height="91.4322" fill="white" transform="matrix(0.866025 0.5 -0.866025 0.5 803.147 455.332)"/>
</clipPath>
<clipPath id="clip3">
<rect width="91.4322" height="91.4322" fill="white" transform="matrix(0.866025 0.5 -0.866025 0.5 669.656 539.45)"/>
</clipPath>
<clipPath id="clip4">
<rect width="91.4322" height="91.4322" fill="white" transform="matrix(0.866025 0.5 -0.866025 0.5 495.02 566.88)"/>
</clipPath>
<clipPath id="clip5">
<rect width="91.4322" height="91.4322" fill="white" transform="matrix(0.866025 0.5 -2.20305e-08 1 360.064 689.399)"/>
</clipPath>
<clipPath id="clip6">
<rect width="91.4322" height="91.4322" fill="white" transform="matrix(0.866025 0.5 -0.866025 0.5 337.183 900)"/>
</clipPath>
<clipPath id="clip7">
<rect width="91.4322" height="91.4322" fill="white" transform="matrix(0.866025 0.5 -0.866025 0.5 206.183 975)"/>
</clipPath>
<clipPath id="clip8">
<rect width="91.4322" height="91.4322" fill="white" transform="matrix(0.866025 0.5 -0.866025 0.5 69.1826 1056)"/>
</clipPath>
</defs>
</svg>
