<svg width="1622" height="1212" viewBox="0 0 1622 1212" fill="none" xmlns="http://www.w3.org/2000/svg">
<g clip-path="url(#clip0)">
<path d="M1529.5 1233.5L205.5 451L353 366L205.5 284.5L256.5 249.5L-8.5 94.5" stroke="#1C2129" stroke-width="3" stroke-dasharray="6 6"/>
<rect width="711.024" height="646.761" transform="matrix(0.866025 0.5 -0.866025 0.5 783.111 201.822)" fill="#29313C"/>
<rect width="710.842" height="308.977" transform="matrix(0.866025 0.5 -2.20305e-08 1 223.158 525.293)" fill="#1C2129"/>
<rect width="647.269" height="308.977" transform="matrix(0.866025 -0.5 2.20305e-08 1 838.448 880.714)" fill="#1C2129"/>
<rect opacity="0.8" width="441.627" height="345.981" transform="matrix(0.866025 0.5 -0.866025 0.5 778.28 23)" fill="url(#paint0_linear)"/>
<g style="mix-blend-mode:screen">
<rect width="443.979" height="344.253" transform="matrix(0.866025 0.5 -0.866025 0.5 776.784 128.07)" fill="url(#paint1_linear)"/>
</g>
<g style="mix-blend-mode:screen">
<rect width="443.979" height="344.253" transform="matrix(0.866025 0.5 -0.866025 0.5 776.784 259.293)" fill="url(#paint2_linear)"/>
</g>
<rect opacity="0.8" width="443.427" height="344.253" transform="matrix(0.866025 0.5 -2.20305e-08 1 478.652 195.991)" fill="url(#paint3_linear)"/>
<rect opacity="0.8" width="344.253" height="344.253" transform="matrix(0.866025 -0.5 2.20305e-08 1 862.672 415.981)" fill="url(#paint4_linear)"/>
<g style="mix-blend-mode:overlay" opacity="0.7">
<path d="M609.558 451.786C609.558 463.09 594.874 454.612 594.874 443.308C594.874 432.004 609.558 440.482 609.558 451.786Z" fill="white"/>
<path d="M615.667 408.419C624.146 418.967 616.804 429.409 608.325 418.862C599.845 408.314 607.187 397.872 615.667 408.419" fill="white"/>
<path d="M642.827 398.921C647.722 411.539 635.007 412.676 630.113 400.058C625.218 387.441 637.933 386.304 642.827 398.921" fill="white"/>
<path d="M640.14 529.934C648.619 540.481 641.278 550.924 632.798 540.376C624.318 529.829 631.66 519.386 640.14 529.934Z" fill="white"/>
<path d="M618.354 492.177C623.248 504.794 610.534 505.931 605.639 493.314C600.745 480.697 613.459 479.56 618.354 492.177" fill="white"/>
<path d="M670.741 399.506L670.741 416.462C692.595 429.079 712.796 454.209 723.731 482.379C734.657 510.545 734.657 537.48 723.731 553.027C712.794 568.57 692.593 570.374 670.741 557.758L670.741 574.713C697.843 590.36 722.891 588.12 736.447 568.847C749.993 549.568 749.993 516.165 736.447 481.243C722.891 446.317 697.845 415.155 670.741 399.506Z" fill="white"/>
<path d="M694.918 472.467L660.952 492.089L644.117 462.93L633.745 468.919L655.77 507.069L655.761 507.063C658.629 512.02 663.275 514.702 666.143 513.057L705.3 490.45L694.918 472.467Z" fill="white"/>
</g>
<g clip-path="url(#clip1)">
<path d="M1063.1 814.192L1175.49 749.307C1178.37 747.641 1181.01 747.509 1182.92 748.612L1182.92 748.587C1184.83 749.691 1186.01 752.051 1186.01 755.409L1186.01 914.402C1186.01 919.866 1182.92 924.702 1182.92 924.77C1181.03 928.069 1178.4 930.954 1175.49 932.633L1063.1 997.517C1057.29 1000.88 1052.58 998.106 1052.58 991.441L1052.58 832.448C1052.58 825.706 1057.35 817.511 1063.1 814.192L1063.1 814.192ZM1120.47 862.481C1108.8 869.219 1108.8 889.742 1120.47 883.004L1156.22 862.362C1167.91 855.612 1167.91 835.089 1156.22 841.839L1120.47 862.481ZM1120.47 817.728C1108.8 824.465 1108.8 844.988 1120.47 838.25L1156.22 817.608C1167.91 810.858 1167.91 790.335 1156.22 797.085L1120.47 817.728ZM1074.5 856.949L1082.8 866.491C1084.3 868.217 1087.58 866.299 1089.08 862.843L1105.62 824.617C1108.36 818.264 1102.1 817.066 1099.34 823.433L1085.93 854.434C1082.56 850.548 1079.78 844.586 1075.55 850.309C1073.81 852.64 1073.34 855.598 1074.5 856.948L1074.5 856.949ZM1074.5 901.712L1082.8 911.253C1084.3 912.979 1087.58 911.062 1089.08 907.606L1105.62 869.38C1108.36 863.026 1102.1 861.829 1099.34 868.195L1085.92 899.192C1082.55 895.306 1079.77 889.344 1075.54 895.067C1073.81 897.403 1073.34 900.386 1074.5 901.711L1074.5 901.712ZM1074.5 946.466L1082.8 956.007C1084.3 957.733 1087.58 955.816 1089.08 952.385L1105.62 914.136C1108.36 907.782 1102.1 906.584 1099.34 912.951L1085.93 943.952C1082.56 940.091 1079.78 934.121 1075.55 939.827C1073.81 942.167 1073.34 945.15 1074.5 946.467L1074.5 946.466ZM1120.47 907.244C1108.8 913.981 1108.8 934.504 1120.47 927.767L1156.22 907.125C1167.91 900.375 1167.91 879.852 1156.22 886.602L1120.47 907.244Z" fill="white"/>
</g>
</g>
<defs>
<linearGradient id="paint0_linear" x1="17.4341" y1="312.088" x2="249.103" y2="-75.0066" gradientUnits="userSpaceOnUse">
<stop stop-color="#8489FF"/>
<stop offset="1" stop-color="#2DBCFF"/>
</linearGradient>
<linearGradient id="paint1_linear" x1="17.527" y1="310.53" x2="246.909" y2="-76.7179" gradientUnits="userSpaceOnUse">
<stop stop-color="#8489FF"/>
<stop offset="1" stop-color="#2DBCFF"/>
</linearGradient>
<linearGradient id="paint2_linear" x1="17.527" y1="310.53" x2="246.909" y2="-76.7179" gradientUnits="userSpaceOnUse">
<stop stop-color="#8489FF"/>
<stop offset="1" stop-color="#2DBCFF"/>
</linearGradient>
<linearGradient id="paint3_linear" x1="60.1635" y1="38.0445" x2="258.98" y2="393.232" gradientUnits="userSpaceOnUse">
<stop stop-color="#5D48E2"/>
<stop offset="1" stop-color="#2658D8"/>
</linearGradient>
<linearGradient id="paint4_linear" x1="171.577" y1="23.6576" x2="172.128" y2="344.253" gradientUnits="userSpaceOnUse">
<stop stop-color="#46ADFF"/>
<stop offset="1" stop-color="#595BEA"/>
</linearGradient>
<clipPath id="clip0">
<rect width="1622" height="1212" fill="white"/>
</clipPath>
<clipPath id="clip1">
<rect width="218.184" height="218.184" fill="white" transform="matrix(0.866025 -0.5 2.20305e-08 1 1024.82 818.867)"/>
</clipPath>
</defs>
</svg>
