<svg width="1757" height="1534" viewBox="0 0 1757 1534" fill="none" xmlns="http://www.w3.org/2000/svg">
<path fill-rule="evenodd" clip-rule="evenodd" d="M899.406 166.553C1095.97 145.96 1275.16 -58.5679 1457.99 16.4697C1638.33 90.4805 1702.52 320.761 1740.84 511.884C1776.23 688.462 1755.06 878.932 1661.76 1032.97C1578.26 1170.81 1409.05 1214.64 1267.97 1292.54C1147.62 1358.99 1033.13 1422 899.406 1453.88C724.744 1495.52 540.608 1577.76 376.416 1505.09C201.895 1427.84 83.8688 1250.88 28.294 1068.31C-26.6966 887.648 3.45297 692.104 75.8644 517.697C144.241 353.008 255.809 195.174 419.844 125.233C571.136 60.7247 735.83 183.691 899.406 166.553Z" fill="#829CF8" fill-opacity="0.2"/>
</svg>
