<svg width="50" height="50" viewBox="0 0 50 50" fill="none" xmlns="http://www.w3.org/2000/svg">
<path d="M47.1992 39.1409V39.1408H47.1943H45.5259V9.95766V9.95732C45.5251 9.37016 45.2861 8.80845 44.8632 8.39508C44.4406 7.98191 43.8687 7.75053 43.2734 7.75H43.2732L39.2092 7.75L39.2089 7.75C38.6137 7.75072 38.042 7.98218 37.6195 8.39535C37.1968 8.8087 36.958 9.37032 36.9573 9.95735V9.95766V39.1408H34.6992V23.9344V23.9342C34.6987 23.347 34.4599 22.7852 34.0372 22.3717C33.6147 21.9584 33.0429 21.7268 32.4476 21.726H32.4473H28.3825H28.3822C27.7869 21.7268 27.2151 21.9584 26.7926 22.3717C26.3699 22.7852 26.1311 23.347 26.1306 23.9342V23.9344V39.1408H23.8725V18.2844V18.2841C23.872 17.697 23.6332 17.1352 23.2105 16.7216C22.788 16.3083 22.2162 16.0767 21.6209 16.0759H21.6206H17.5558H17.5555C16.9602 16.0767 16.3884 16.3083 15.9659 16.7216C15.5432 17.1352 15.3044 17.697 15.3039 18.2841V18.2844V39.1408H13.0459V30.1347V30.1345C13.0453 29.5473 12.8066 28.9855 12.3838 28.572C11.9613 28.1587 11.3896 27.9271 10.7943 27.9263H10.7939H6.72992H6.72968C6.13425 27.9269 5.5623 28.1584 5.13961 28.5717C4.71673 28.9853 4.47784 29.5472 4.47722 30.1345V30.1347V39.1408H2.80878V39.1408L2.80483 39.1409C2.52529 39.1453 2.25761 39.257 2.05986 39.4535C1.86193 39.6502 1.74999 39.9163 1.75 40.1947C1.75001 40.473 1.86197 40.7391 2.05991 40.9358C2.25766 41.1323 2.52535 41.244 2.8049 41.2484L2.8049 41.2484H2.80879C8.94827 41.2494 45.4324 41.2514 47.1947 41.2484L47.1992 41.2484C47.478 41.2429 47.7447 41.1308 47.9416 40.9344C48.1386 40.7378 48.25 40.4723 48.25 40.1946C48.25 39.917 48.1386 39.6515 47.9416 39.4549C47.7447 39.2585 47.4781 39.1463 47.1992 39.1409ZM6.62113 39.1408V30.1351C6.62126 30.1101 6.63143 30.085 6.65128 30.0656C6.67138 30.046 6.69977 30.0339 6.73055 30.0339H10.7933C10.8239 30.0339 10.8521 30.0459 10.8721 30.0655C10.8919 30.0849 10.9019 30.11 10.902 30.1349V39.1408H6.62113ZM17.4478 39.1408V18.2845C17.4478 18.2596 17.4579 18.2345 17.4777 18.2152C17.4976 18.1956 17.5257 18.1837 17.5563 18.1835C17.5563 18.1835 17.5564 18.1835 17.5565 18.1835H21.6199C21.62 18.1835 21.6201 18.1835 21.6202 18.1835C21.6507 18.1837 21.6789 18.1956 21.6988 18.2152C21.7186 18.2345 21.7286 18.2596 21.7286 18.2845V39.1408H17.4478ZM28.2745 39.1408V23.9346C28.2745 23.9097 28.2846 23.8846 28.3044 23.8652C28.3243 23.8457 28.3524 23.8337 28.3829 23.8336C28.383 23.8336 28.3831 23.8336 28.3832 23.8336H32.4466C32.4467 23.8336 32.4468 23.8336 32.4469 23.8336C32.4774 23.8337 32.5056 23.8457 32.5255 23.8652C32.5452 23.8846 32.5553 23.9097 32.5553 23.9346V39.1408H28.2745ZM39.1012 39.1408V9.95789C39.1012 9.93312 39.1112 9.90821 39.1309 9.88894C39.1508 9.86952 39.1789 9.85762 39.2093 9.85757C39.2093 9.85757 39.2094 9.85757 39.2094 9.85757L43.2731 9.85757C43.3037 9.85759 43.332 9.86953 43.352 9.88906C43.3718 9.9084 43.3819 9.93345 43.382 9.95838V39.1408H39.1012Z" fill="#829CF8" stroke="#829CF8" stroke-width="0.5"/>
</svg>
