<svg width="570" height="364" viewBox="0 0 570 364" fill="none" xmlns="http://www.w3.org/2000/svg">
<rect x="1" y="1" width="268" height="165" rx="3" stroke="#E2E6F1" stroke-width="2"/>
<path d="M74.0938 89L91.25 51.4375H68.7188V43.3125H101.5V49.375L84.2188 89H74.0938ZM137.875 66.1562C137.875 69.8438 137.583 73.1354 137 76.0312C136.438 78.9271 135.521 81.3854 134.25 83.4062C133 85.4271 131.354 86.9688 129.312 88.0312C127.271 89.0938 124.792 89.625 121.875 89.625C118.208 89.625 115.198 88.6979 112.844 86.8438C110.49 84.9688 108.75 82.2812 107.625 78.7812C106.5 75.2604 105.938 71.0521 105.938 66.1562C105.938 61.2188 106.448 57 107.469 53.5C108.51 49.9792 110.198 47.2812 112.531 45.4062C114.865 43.5312 117.979 42.5938 121.875 42.5938C125.521 42.5938 128.521 43.5312 130.875 45.4062C133.25 47.2604 135.01 49.9479 136.156 53.4688C137.302 56.9688 137.875 61.1979 137.875 66.1562ZM115.531 66.1562C115.531 69.6354 115.719 72.5417 116.094 74.875C116.49 77.1875 117.146 78.9271 118.062 80.0938C118.979 81.2604 120.25 81.8438 121.875 81.8438C123.479 81.8438 124.74 81.2708 125.656 80.125C126.594 78.9583 127.26 77.2188 127.656 74.9062C128.052 72.5729 128.25 69.6562 128.25 66.1562C128.25 62.6771 128.052 59.7708 127.656 57.4375C127.26 55.1042 126.594 53.3542 125.656 52.1875C124.74 51 123.479 50.4062 121.875 50.4062C120.25 50.4062 118.979 51 118.062 52.1875C117.146 53.3542 116.49 55.1042 116.094 57.4375C115.719 59.7708 115.531 62.6771 115.531 66.1562ZM161.938 63.0312H174.031V69.875H161.938V81.9062H155.094V69.875H143V63.0312H155.094V50.8438H161.938V63.0312Z" fill="#5048E5"/>
<path d="M79.804 136.514V139H68.65V123.6H79.65V126.086H71.62V129.804H79.056V132.268H71.62V136.514H79.804ZM85.1045 132.664V139H82.2885V127.604H85.0385V128.946C85.7205 127.912 86.8865 127.34 88.3825 127.34C89.7245 127.34 91.0665 127.912 91.7925 129.232C92.5625 128 93.9265 127.34 95.5105 127.34C97.7325 127.34 99.6905 128.55 99.6905 131.762V139H96.8525V132.224C96.8525 130.574 95.9285 129.76 94.7185 129.76C93.5085 129.76 92.3865 130.75 92.3865 132.664V139H89.5705V132.224C89.5705 130.574 88.6465 129.76 87.4365 129.76C86.2265 129.76 85.1045 130.728 85.1045 132.664ZM108.754 139.242C107.148 139.242 105.96 138.56 105.3 137.46V143.18H102.484V127.604H105.256V129.144C105.894 128.066 107.082 127.34 108.776 127.34C111.636 127.34 114.034 129.386 114.034 133.214C114.034 137.13 111.592 139.242 108.754 139.242ZM108.204 136.91C109.854 136.91 111.13 135.568 111.13 133.214C111.13 130.904 109.854 129.672 108.204 129.672C106.488 129.672 105.256 131.014 105.256 133.214C105.256 135.546 106.554 136.91 108.204 136.91ZM116.32 139V123.16H119.136V139H116.32ZM127.379 139.242C124.035 139.242 121.373 136.932 121.373 133.236C121.373 129.65 124.079 127.34 127.379 127.34C130.701 127.34 133.363 129.606 133.363 133.236C133.363 136.888 130.679 139.242 127.379 139.242ZM127.379 136.866C129.205 136.866 130.459 135.414 130.459 133.236C130.459 131.168 129.205 129.716 127.379 129.716C125.509 129.716 124.277 131.146 124.277 133.236C124.277 135.392 125.531 136.866 127.379 136.866ZM145.3 127.604L139.162 143.18H136.258L138.326 138.186L133.772 127.604H136.764L139.712 135.018L142.44 127.604H145.3ZM157.219 135.656C156.515 138.164 154.073 139.242 151.719 139.242C148.485 139.242 145.779 136.998 145.779 133.214C145.779 129.606 148.573 127.34 151.609 127.34C154.689 127.34 157.329 129.43 157.329 133.478V134.094H148.639C148.859 135.898 150.179 137.02 151.807 137.02C152.863 137.02 153.919 136.668 154.447 135.656H157.219ZM151.565 129.54C150.069 129.54 148.815 130.486 148.617 132.092H154.425C154.293 130.552 153.149 129.54 151.565 129.54ZM170.26 135.656C169.556 138.164 167.114 139.242 164.76 139.242C161.526 139.242 158.82 136.998 158.82 133.214C158.82 129.606 161.614 127.34 164.65 127.34C167.73 127.34 170.37 129.43 170.37 133.478V134.094H161.68C161.9 135.898 163.22 137.02 164.848 137.02C165.904 137.02 166.96 136.668 167.488 135.656H170.26ZM164.606 129.54C163.11 129.54 161.856 130.486 161.658 132.092H167.466C167.334 130.552 166.19 129.54 164.606 129.54ZM176.987 139.264C174.303 139.264 172.103 138.032 171.817 135.392H174.479C174.677 136.602 175.711 137.152 177.031 137.152C178.109 137.152 179.143 136.734 179.143 135.832C179.143 135.018 178.373 134.666 176.855 134.402L175.711 134.204C173.423 133.808 172.037 132.752 172.037 130.97C172.037 128.682 174.127 127.318 176.701 127.318C179.187 127.318 181.277 128.594 181.563 130.882H178.945C178.681 129.914 177.845 129.43 176.635 129.43C175.535 129.43 174.699 129.936 174.699 130.706C174.699 131.432 175.337 131.718 176.635 131.938L177.779 132.136C180.287 132.576 181.849 133.566 181.849 135.546C181.849 137.966 179.539 139.264 176.987 139.264Z" fill="#222222"/>
<rect x="301" y="1" width="268" height="165" rx="3" stroke="#E2E6F1" stroke-width="2"/>
<path d="M388.438 90H378.781V63.5625C378.781 62.8333 378.792 61.9375 378.812 60.875C378.833 59.7917 378.865 58.6875 378.906 57.5625C378.948 56.4167 378.99 55.3854 379.031 54.4688C378.802 54.7396 378.333 55.2083 377.625 55.875C376.938 56.5208 376.292 57.1042 375.688 57.625L370.438 61.8438L365.781 56.0312L380.5 44.3125H388.438V90ZM417.812 60.8125C420.604 60.8125 423.083 61.3438 425.25 62.4062C427.438 63.4688 429.156 65.0312 430.406 67.0938C431.656 69.1562 432.281 71.6979 432.281 74.7188C432.281 78.0104 431.594 80.8542 430.219 83.25C428.865 85.625 426.833 87.4479 424.125 88.7188C421.438 89.9896 418.083 90.625 414.062 90.625C411.667 90.625 409.406 90.4167 407.281 90C405.177 89.6042 403.333 88.9896 401.75 88.1562V79.8125C403.333 80.6458 405.229 81.3542 407.438 81.9375C409.667 82.5 411.76 82.7812 413.719 82.7812C415.635 82.7812 417.25 82.5312 418.562 82.0312C419.875 81.5104 420.865 80.7188 421.531 79.6562C422.219 78.5729 422.562 77.1979 422.562 75.5312C422.562 73.3021 421.812 71.5938 420.312 70.4062C418.812 69.2188 416.51 68.625 413.406 68.625C412.219 68.625 410.979 68.7396 409.688 68.9688C408.417 69.1979 407.354 69.4271 406.5 69.6562L402.656 67.5938L404.375 44.3125H429.156V52.5H412.844L412 61.4688C412.708 61.3229 413.479 61.1771 414.312 61.0312C415.146 60.8854 416.312 60.8125 417.812 60.8125ZM469.5 67.1562C469.5 70.8438 469.208 74.1354 468.625 77.0312C468.062 79.9271 467.146 82.3854 465.875 84.4062C464.625 86.4271 462.979 87.9688 460.938 89.0312C458.896 90.0938 456.417 90.625 453.5 90.625C449.833 90.625 446.823 89.6979 444.469 87.8438C442.115 85.9688 440.375 83.2812 439.25 79.7812C438.125 76.2604 437.562 72.0521 437.562 67.1562C437.562 62.2188 438.073 58 439.094 54.5C440.135 50.9792 441.823 48.2812 444.156 46.4062C446.49 44.5312 449.604 43.5938 453.5 43.5938C457.146 43.5938 460.146 44.5312 462.5 46.4062C464.875 48.2604 466.635 50.9479 467.781 54.4688C468.927 57.9688 469.5 62.1979 469.5 67.1562ZM447.156 67.1562C447.156 70.6354 447.344 73.5417 447.719 75.875C448.115 78.1875 448.771 79.9271 449.688 81.0938C450.604 82.2604 451.875 82.8438 453.5 82.8438C455.104 82.8438 456.365 82.2708 457.281 81.125C458.219 79.9583 458.885 78.2188 459.281 75.9062C459.677 73.5729 459.875 70.6562 459.875 67.1562C459.875 63.6771 459.677 60.7708 459.281 58.4375C458.885 56.1042 458.219 54.3542 457.281 53.1875C456.365 52 455.104 51.4062 453.5 51.4062C451.875 51.4062 450.604 52 449.688 53.1875C448.771 54.3542 448.115 56.1042 447.719 58.4375C447.344 60.7708 447.156 63.6771 447.156 67.1562ZM493.562 64.0312H505.656V70.875H493.562V82.9062H486.719V70.875H474.625V64.0312H486.719V51.8438H493.562V64.0312Z" fill="#5048E5"/>
<path d="M393.15 140V124.6H399.376C403.072 124.6 405.008 126.58 405.008 129.528C405.008 132.542 403.006 134.5 399.354 134.5H396.164V140H393.15ZM396.164 132.014H399.046C400.96 132.014 401.95 131.046 401.95 129.55C401.95 128.076 400.938 127.086 399.046 127.086H396.164V132.014ZM409.819 133.862V140H407.003V128.604H409.753V130.342C409.995 129.946 410.281 129.572 410.655 129.264C411.337 128.736 411.975 128.516 412.965 128.516C413.273 128.516 413.559 128.538 413.757 128.582V131.244C413.207 131.2 412.943 131.2 412.635 131.2C411.403 131.2 409.819 131.64 409.819 133.862ZM420.662 140.242C417.318 140.242 414.656 137.932 414.656 134.236C414.656 130.65 417.362 128.34 420.662 128.34C423.984 128.34 426.646 130.606 426.646 134.236C426.646 137.888 423.962 140.242 420.662 140.242ZM420.662 137.866C422.488 137.866 423.742 136.414 423.742 134.236C423.742 132.168 422.488 130.716 420.662 130.716C418.792 130.716 417.56 132.146 417.56 134.236C417.56 136.392 418.814 137.866 420.662 137.866ZM428.852 126.8V124.16H431.712V126.8H428.852ZM428.874 128.604H431.69V141.034C431.69 143.476 430.524 144.202 428.5 144.202C427.818 144.202 427.4 144.202 426.564 144.18V142.002H427.708C428.632 142.002 428.874 141.694 428.874 140.682V128.604ZM445.368 136.656C444.664 139.164 442.222 140.242 439.868 140.242C436.634 140.242 433.928 137.998 433.928 134.214C433.928 130.606 436.722 128.34 439.758 128.34C442.838 128.34 445.478 130.43 445.478 134.478V135.094H436.788C437.008 136.898 438.328 138.02 439.956 138.02C441.012 138.02 442.068 137.668 442.596 136.656H445.368ZM439.714 130.54C438.218 130.54 436.964 131.486 436.766 133.092H442.574C442.442 131.552 441.298 130.54 439.714 130.54ZM452.799 140.242C449.543 140.242 446.969 137.888 446.969 134.236C446.969 130.738 449.631 128.34 452.843 128.34C455.615 128.34 457.947 130.078 458.255 132.696H455.461C455.153 131.464 454.075 130.716 452.821 130.716C451.083 130.716 449.873 132.168 449.873 134.236C449.873 136.348 451.127 137.866 452.821 137.866C454.053 137.866 455.109 137.162 455.461 135.864H458.255C457.837 138.614 455.461 140.242 452.799 140.242ZM464.22 140.022C462.284 140.022 461.052 139.45 461.052 136.942V130.76H459.138V128.604H461.052V125.832H463.846V128.604H466.486V130.76H463.846V136.392C463.846 137.602 464.22 137.8 465.122 137.8H466.486V139.978C465.672 140.022 465.188 140.022 464.22 140.022ZM473.02 140.264C470.336 140.264 468.136 139.032 467.85 136.392H470.512C470.71 137.602 471.744 138.152 473.064 138.152C474.142 138.152 475.176 137.734 475.176 136.832C475.176 136.018 474.406 135.666 472.888 135.402L471.744 135.204C469.456 134.808 468.07 133.752 468.07 131.97C468.07 129.682 470.16 128.318 472.734 128.318C475.22 128.318 477.31 129.594 477.596 131.882H474.978C474.714 130.914 473.878 130.43 472.668 130.43C471.568 130.43 470.732 130.936 470.732 131.706C470.732 132.432 471.37 132.718 472.668 132.938L473.812 133.136C476.32 133.576 477.882 134.566 477.882 136.546C477.882 138.966 475.572 140.264 473.02 140.264Z" fill="#222222"/>
<rect x="1" y="198" width="268" height="165" rx="3" stroke="#E2E6F1" stroke-width="2"/>
<path d="M147.219 251.531C147.219 253.635 146.781 255.458 145.906 257C145.031 258.542 143.844 259.802 142.344 260.781C140.865 261.76 139.198 262.479 137.344 262.938V263.125C141.01 263.583 143.792 264.708 145.688 266.5C147.604 268.292 148.562 270.688 148.562 273.688C148.562 276.354 147.906 278.74 146.594 280.844C145.302 282.948 143.302 284.604 140.594 285.812C137.885 287.021 134.396 287.625 130.125 287.625C127.604 287.625 125.25 287.417 123.062 287C120.896 286.604 118.854 285.99 116.938 285.156V276.938C118.896 277.938 120.948 278.698 123.094 279.219C125.24 279.719 127.24 279.969 129.094 279.969C132.552 279.969 134.969 279.375 136.344 278.188C137.74 276.979 138.438 275.292 138.438 273.125C138.438 271.854 138.115 270.781 137.469 269.906C136.823 269.031 135.698 268.365 134.094 267.906C132.51 267.448 130.292 267.219 127.438 267.219H123.969V259.812H127.5C130.312 259.812 132.448 259.552 133.906 259.031C135.385 258.49 136.385 257.76 136.906 256.844C137.448 255.906 137.719 254.844 137.719 253.656C137.719 252.031 137.219 250.76 136.219 249.844C135.219 248.927 133.552 248.469 131.219 248.469C129.76 248.469 128.427 248.656 127.219 249.031C126.031 249.385 124.958 249.823 124 250.344C123.042 250.844 122.198 251.333 121.469 251.812L117 245.156C118.792 243.865 120.885 242.792 123.281 241.938C125.698 241.083 128.573 240.656 131.906 240.656C136.615 240.656 140.344 241.604 143.094 243.5C145.844 245.396 147.219 248.073 147.219 251.531Z" fill="#5048E5"/>
<path d="M82.65 337V321.6H85.686V334.448H92.814V337H82.65ZM100.022 337.242C96.6776 337.242 94.0156 334.932 94.0156 331.236C94.0156 327.65 96.7216 325.34 100.022 325.34C103.344 325.34 106.006 327.606 106.006 331.236C106.006 334.888 103.322 337.242 100.022 337.242ZM100.022 334.866C101.848 334.866 103.102 333.414 103.102 331.236C103.102 329.168 101.848 327.716 100.022 327.716C98.1516 327.716 96.9196 329.146 96.9196 331.236C96.9196 333.392 98.1736 334.866 100.022 334.866ZM113.338 337.242C110.082 337.242 107.508 334.888 107.508 331.236C107.508 327.738 110.17 325.34 113.382 325.34C116.154 325.34 118.486 327.078 118.794 329.696H116C115.692 328.464 114.614 327.716 113.36 327.716C111.622 327.716 110.412 329.168 110.412 331.236C110.412 333.348 111.666 334.866 113.36 334.866C114.592 334.866 115.648 334.162 116 332.864H118.794C118.376 335.614 116 337.242 113.338 337.242ZM128.147 337L128.103 335.592C127.355 336.626 126.167 337.242 124.473 337.242C122.361 337.242 120.315 336.054 120.315 333.722C120.315 331.28 122.295 330.466 125.309 329.982L127.905 329.564V329.432C127.905 328.002 127.113 327.452 125.771 327.452C124.429 327.452 123.615 328.09 123.373 329.256H120.689C121.019 326.836 123.153 325.34 125.881 325.34C128.741 325.34 130.699 326.462 130.677 329.63L130.633 334.646C130.633 335.02 130.655 335.614 130.743 337H128.147ZM123.065 333.59C123.065 334.58 123.923 335.108 125.111 335.108C126.651 335.108 127.905 334.184 127.905 332.358V331.566C124.495 332.006 123.065 332.358 123.065 333.59ZM137.349 337.022C135.413 337.022 134.181 336.45 134.181 333.942V327.76H132.267V325.604H134.181V322.832H136.975V325.604H139.615V327.76H136.975V333.392C136.975 334.602 137.349 334.8 138.251 334.8H139.615V336.978C138.801 337.022 138.317 337.022 137.349 337.022ZM141.727 323.8V321.16H144.587V323.8H141.727ZM141.749 337V325.604H144.565V337H141.749ZM152.809 337.242C149.465 337.242 146.803 334.932 146.803 331.236C146.803 327.65 149.509 325.34 152.809 325.34C156.131 325.34 158.793 327.606 158.793 331.236C158.793 334.888 156.109 337.242 152.809 337.242ZM152.809 334.866C154.635 334.866 155.889 333.414 155.889 331.236C155.889 329.168 154.635 327.716 152.809 327.716C150.939 327.716 149.707 329.146 149.707 331.236C149.707 333.392 150.961 334.866 152.809 334.866ZM163.837 330.818V337H161.021V325.604H163.793V326.968C164.519 325.934 165.751 325.34 167.203 325.34C169.711 325.34 171.339 326.902 171.339 329.894V337H168.523V330.312C168.523 328.75 167.687 327.76 166.257 327.76C164.959 327.76 163.837 328.75 163.837 330.818ZM178.548 337.264C175.864 337.264 173.664 336.032 173.378 333.392H176.04C176.238 334.602 177.272 335.152 178.592 335.152C179.67 335.152 180.704 334.734 180.704 333.832C180.704 333.018 179.934 332.666 178.416 332.402L177.272 332.204C174.984 331.808 173.598 330.752 173.598 328.97C173.598 326.682 175.688 325.318 178.262 325.318C180.748 325.318 182.838 326.594 183.124 328.882H180.506C180.242 327.914 179.406 327.43 178.196 327.43C177.096 327.43 176.26 327.936 176.26 328.706C176.26 329.432 176.898 329.718 178.196 329.938L179.34 330.136C181.848 330.576 183.41 331.566 183.41 333.546C183.41 335.966 181.1 337.264 178.548 337.264Z" fill="#222222"/>
<rect x="301" y="198" width="268" height="165" rx="3" stroke="#E2E6F1" stroke-width="2"/>
<path d="M382 287H350.062V280.281L361.531 268.688C363.844 266.312 365.698 264.333 367.094 262.75C368.51 261.146 369.531 259.688 370.156 258.375C370.802 257.062 371.125 255.656 371.125 254.156C371.125 252.344 370.615 250.99 369.594 250.094C368.594 249.177 367.25 248.719 365.562 248.719C363.792 248.719 362.073 249.125 360.406 249.938C358.74 250.75 357 251.906 355.188 253.406L349.938 247.188C351.25 246.062 352.635 245 354.094 244C355.573 243 357.281 242.198 359.219 241.594C361.177 240.969 363.521 240.656 366.25 240.656C369.25 240.656 371.823 241.198 373.969 242.281C376.135 243.365 377.802 244.844 378.969 246.719C380.135 248.573 380.719 250.677 380.719 253.031C380.719 255.552 380.219 257.854 379.219 259.938C378.219 262.021 376.76 264.083 374.844 266.125C372.948 268.167 370.656 270.427 367.969 272.906L362.094 278.438V278.875H382V287ZM418.375 264.156C418.375 267.844 418.083 271.135 417.5 274.031C416.938 276.927 416.021 279.385 414.75 281.406C413.5 283.427 411.854 284.969 409.812 286.031C407.771 287.094 405.292 287.625 402.375 287.625C398.708 287.625 395.698 286.698 393.344 284.844C390.99 282.969 389.25 280.281 388.125 276.781C387 273.26 386.438 269.052 386.438 264.156C386.438 259.219 386.948 255 387.969 251.5C389.01 247.979 390.698 245.281 393.031 243.406C395.365 241.531 398.479 240.594 402.375 240.594C406.021 240.594 409.021 241.531 411.375 243.406C413.75 245.26 415.51 247.948 416.656 251.469C417.802 254.969 418.375 259.198 418.375 264.156ZM396.031 264.156C396.031 267.635 396.219 270.542 396.594 272.875C396.99 275.188 397.646 276.927 398.562 278.094C399.479 279.26 400.75 279.844 402.375 279.844C403.979 279.844 405.24 279.271 406.156 278.125C407.094 276.958 407.76 275.219 408.156 272.906C408.552 270.573 408.75 267.656 408.75 264.156C408.75 260.677 408.552 257.771 408.156 255.438C407.76 253.104 407.094 251.354 406.156 250.188C405.24 249 403.979 248.406 402.375 248.406C400.75 248.406 399.479 249 398.562 250.188C397.646 251.354 396.99 253.104 396.594 255.438C396.219 257.771 396.031 260.677 396.031 264.156ZM447.188 287H437.531V260.562C437.531 259.833 437.542 258.938 437.562 257.875C437.583 256.792 437.615 255.688 437.656 254.562C437.698 253.417 437.74 252.385 437.781 251.469C437.552 251.74 437.083 252.208 436.375 252.875C435.688 253.521 435.042 254.104 434.438 254.625L429.188 258.844L424.531 253.031L439.25 241.312H447.188V287ZM492.906 277.531H487.406V287H477.969V277.531H458.469V270.812L478.5 241.312H487.406V270.031H492.906V277.531ZM477.969 270.031V262.281C477.969 261.552 477.979 260.688 478 259.688C478.042 258.688 478.083 257.688 478.125 256.688C478.167 255.688 478.208 254.802 478.25 254.031C478.312 253.24 478.354 252.688 478.375 252.375H478.125C477.729 253.229 477.312 254.062 476.875 254.875C476.438 255.667 475.927 256.5 475.344 257.375L466.969 270.031H477.969Z" fill="#5048E5"/>
<path d="M357.396 330.598H350.664V337H347.65V321.6H358.078V324.152H350.664V328.134H357.396V330.598ZM365.408 337.242C362.064 337.242 359.402 334.932 359.402 331.236C359.402 327.65 362.108 325.34 365.408 325.34C368.73 325.34 371.392 327.606 371.392 331.236C371.392 334.888 368.708 337.242 365.408 337.242ZM365.408 334.866C367.234 334.866 368.488 333.414 368.488 331.236C368.488 329.168 367.234 327.716 365.408 327.716C363.538 327.716 362.306 329.146 362.306 331.236C362.306 333.392 363.56 334.866 365.408 334.866ZM380.924 337V335.658C380.198 336.714 379.032 337.242 377.602 337.242C375.182 337.242 373.466 335.724 373.466 332.754V325.604H376.304V332.292C376.304 333.92 377.184 334.822 378.526 334.822C379.736 334.822 380.858 333.898 380.858 331.896V325.604H383.674V337H380.924ZM389.435 330.818V337H386.619V325.604H389.391V326.968C390.117 325.934 391.349 325.34 392.801 325.34C395.309 325.34 396.937 326.902 396.937 329.894V337H394.121V330.312C394.121 328.75 393.285 327.76 391.855 327.76C390.557 327.76 389.435 328.75 389.435 330.818ZM407.841 337V335.394C407.181 336.516 405.971 337.242 404.365 337.242C401.505 337.242 399.063 335.152 399.063 331.214C399.063 327.43 401.593 325.34 404.387 325.34C405.971 325.34 407.137 325.978 407.797 326.99V321.16H410.635V337H407.841ZM404.915 334.91C406.543 334.91 407.863 333.546 407.863 331.214C407.863 328.97 406.609 327.672 404.915 327.672C403.199 327.672 401.967 328.992 401.967 331.214C401.967 333.546 403.199 334.91 404.915 334.91ZM413.559 323.8V321.16H416.419V323.8H413.559ZM413.581 337V325.604H416.397V337H413.581ZM422.177 330.818V337H419.361V325.604H422.133V326.968C422.859 325.934 424.091 325.34 425.543 325.34C428.051 325.34 429.679 326.902 429.679 329.894V337H426.863V330.312C426.863 328.75 426.027 327.76 424.597 327.76C423.299 327.76 422.177 328.75 422.177 330.818ZM443.158 336.582C443.158 339.838 440.76 341.4 437.724 341.4C434.512 341.4 432.532 339.86 432.158 337.528H434.93C435.238 338.628 436.184 339.244 437.746 339.244C439.33 339.244 440.364 338.43 440.364 336.692V334.976C439.726 336.01 438.538 336.67 436.932 336.67C434.138 336.67 431.85 334.624 431.85 330.972C431.85 327.408 434.248 325.34 436.976 325.34C438.56 325.34 439.726 326.022 440.386 327.122V325.604H443.158V336.582ZM437.592 334.382C439.154 334.382 440.386 333.084 440.386 330.972C440.386 328.86 439.132 327.65 437.592 327.65C435.986 327.65 434.754 328.926 434.754 330.972C434.754 333.084 435.986 334.382 437.592 334.382ZM463.975 321.6L458.431 331.214V337H455.417V331.214L449.873 321.6H453.349L457.023 328.31L460.697 321.6H463.975ZM474.032 333.656C473.328 336.164 470.886 337.242 468.532 337.242C465.298 337.242 462.592 334.998 462.592 331.214C462.592 327.606 465.386 325.34 468.422 325.34C471.502 325.34 474.142 327.43 474.142 331.478V332.094H465.452C465.672 333.898 466.992 335.02 468.62 335.02C469.676 335.02 470.732 334.668 471.26 333.656H474.032ZM468.378 327.54C466.882 327.54 465.628 328.486 465.43 330.092H471.238C471.106 328.552 469.962 327.54 468.378 327.54ZM483.575 337L483.531 335.592C482.783 336.626 481.595 337.242 479.901 337.242C477.789 337.242 475.743 336.054 475.743 333.722C475.743 331.28 477.723 330.466 480.737 329.982L483.333 329.564V329.432C483.333 328.002 482.541 327.452 481.199 327.452C479.857 327.452 479.043 328.09 478.801 329.256H476.117C476.447 326.836 478.581 325.34 481.309 325.34C484.169 325.34 486.127 326.462 486.105 329.63L486.061 334.646C486.061 335.02 486.083 335.614 486.171 337H483.575ZM478.493 333.59C478.493 334.58 479.351 335.108 480.539 335.108C482.079 335.108 483.333 334.184 483.333 332.358V331.566C479.923 332.006 478.493 332.358 478.493 333.59ZM491.743 330.862V337H488.927V325.604H491.677V327.342C491.919 326.946 492.205 326.572 492.579 326.264C493.261 325.736 493.899 325.516 494.889 325.516C495.197 325.516 495.483 325.538 495.681 325.582V328.244C495.131 328.2 494.867 328.2 494.559 328.2C493.327 328.2 491.743 328.64 491.743 330.862Z" fill="#222222"/>
</svg>
