<svg width="50" height="50" viewBox="0 0 50 50" fill="none" xmlns="http://www.w3.org/2000/svg">
<path d="M42.6551 49.2171H32.8117C29.3375 49.2171 26.4424 46.322 26.4424 42.8479V33.0044C26.4424 29.5303 29.3375 26.6352 32.8117 26.6352H42.6551C46.1292 26.6352 49.0244 29.5303 49.0244 33.0044V42.8479C49.2174 46.322 46.3222 49.2171 42.6551 49.2171ZM32.8117 29.3373C30.8816 29.3373 29.3375 30.8813 29.3375 32.8114V42.6549C29.3375 44.5849 30.8816 46.129 32.8117 46.129H42.6551C44.5852 46.129 46.1292 44.5849 46.1292 42.6549V32.8114C46.1292 30.8813 44.5852 29.3373 42.6551 29.3373H32.8117Z" fill="#5048E5"/>
<path d="M16.2127 49.2171H6.36928C2.89513 49.2171 0 46.322 0 42.8479V33.0044C0 29.5303 2.89513 26.6352 6.36928 26.6352H16.2127C19.6869 26.6352 22.582 29.5303 22.582 33.0044V42.8479C22.582 46.322 19.6869 49.2171 16.2127 49.2171ZM6.36928 29.3373C4.43919 29.3373 2.89513 30.8813 2.89513 32.8114V42.6549C2.89513 44.5849 4.43919 46.129 6.36928 46.129H16.2127C18.1428 46.129 19.6869 44.5849 19.6869 42.6549V32.8114C19.6869 30.8813 18.1428 29.3373 16.2127 29.3373H6.36928Z" fill="#5048E5"/>
<path d="M42.6551 22.582H32.8117C29.3375 22.582 26.4424 19.6869 26.4424 16.2127V6.36928C26.4424 2.89513 29.3375 0 32.8117 0H42.6551C46.1292 0 49.0244 2.89513 49.0244 6.36928V16.2127C49.2174 19.6869 46.3222 22.582 42.6551 22.582ZM32.8117 2.89513C30.8816 2.89513 29.3375 4.43919 29.3375 6.36928V16.2127C29.3375 18.1428 30.8816 19.6869 32.8117 19.6869H42.6551C44.5852 19.6869 46.1292 18.1428 46.1292 16.2127V6.36928C46.1292 4.43919 44.5852 2.89513 42.6551 2.89513H32.8117Z" fill="#5048E5"/>
<path d="M16.2127 22.582H6.36928C2.89513 22.582 0 19.6869 0 16.2127V6.36928C0 2.89513 2.89513 0 6.36928 0H16.2127C19.6869 0 22.582 2.89513 22.582 6.36928V16.2127C22.582 19.6869 19.6869 22.582 16.2127 22.582ZM6.36928 2.89513C4.43919 2.89513 2.89513 4.43919 2.89513 6.36928V16.2127C2.89513 18.1428 4.43919 19.6869 6.36928 19.6869H16.2127C18.1428 19.6869 19.6869 18.1428 19.6869 16.2127V6.36928C19.6869 4.43919 18.1428 2.89513 16.2127 2.89513H6.36928Z" fill="#5048E5"/>
<g opacity="0.6">
<path d="M32.4257 41.8828H16.599C11.3878 41.8828 7.1416 37.6366 7.1416 32.4254V16.5987C7.1416 11.3875 11.3878 7.14131 16.599 7.14131H32.4257C37.6369 7.14131 41.8831 11.3875 41.8831 16.5987V32.4254C41.8831 37.6366 37.6369 41.8828 32.4257 41.8828ZM16.599 10.0364C12.9319 10.0364 10.0367 12.9316 10.0367 16.5987V32.4254C10.0367 36.0926 12.9319 38.9877 16.599 38.9877H32.4257C36.0929 38.9877 38.988 36.0926 38.988 32.4254V16.5987C38.988 12.9316 36.0929 10.0364 32.4257 10.0364H16.599Z" fill="#7474CC"/>
</g>
</svg>
