<svg width="50" height="50" viewBox="0 0 50 50" fill="none" xmlns="http://www.w3.org/2000/svg">
<path fill-rule="evenodd" clip-rule="evenodd" d="M4.6875 18.75C4.6875 10.9835 10.9835 4.6875 18.75 4.6875H25H31.25C39.0165 4.6875 45.3125 10.9835 45.3125 18.75V25V31.25C45.3125 39.0165 39.0165 45.3125 31.25 45.3125H25H18.75C10.9835 45.3125 4.6875 39.0165 4.6875 31.25V25V18.75ZM18.75 7.8125C12.7094 7.8125 7.8125 12.7094 7.8125 18.75V25V31.25C7.8125 37.2906 12.7094 42.1875 18.75 42.1875H25H31.25C37.2906 42.1875 42.1875 37.2906 42.1875 31.25V25V18.75C42.1875 12.7094 37.2906 7.8125 31.25 7.8125H25H18.75ZM25 17.1875C23.6599 17.1875 22.6562 18.2288 22.6562 19.4129C22.6562 20.2759 21.9567 20.9754 21.0938 20.9754C20.2308 20.9754 19.5312 20.2759 19.5312 19.4129C19.5312 16.413 22.0254 14.0625 25 14.0625C27.9746 14.0625 30.4688 16.413 30.4688 19.4129C30.4688 20.8684 29.8733 22.1835 28.9234 23.1403C28.7438 23.3213 28.5718 23.4902 28.407 23.652C27.9405 24.1102 27.5327 24.5107 27.1803 24.9595C26.7256 25.5387 26.5625 25.9661 26.5625 26.3258V28.125C26.5625 28.988 25.863 29.6875 25 29.6875C24.137 29.6875 23.4375 28.988 23.4375 28.125V26.3258C23.4375 24.9595 24.0737 23.8562 24.7223 23.0299C25.2122 22.4059 25.8259 21.8042 26.3227 21.3172C26.4612 21.1815 26.5905 21.0546 26.7056 20.9387C27.1079 20.5335 27.3438 19.9971 27.3438 19.4129C27.3438 18.2288 26.3401 17.1875 25 17.1875ZM25 34.375C25.863 34.375 26.5625 33.6755 26.5625 32.8125C26.5625 31.9495 25.863 31.25 25 31.25C24.137 31.25 23.4375 31.9495 23.4375 32.8125C23.4375 33.6755 24.137 34.375 25 34.375Z" fill="#829CF8"/>
</svg>
