<svg width="49" height="49" viewBox="0 0 49 49" fill="none" xmlns="http://www.w3.org/2000/svg">
<path d="M11.4913 39C11.1092 39 10.7272 38.8547 10.437 38.5623C9.85433 37.9796 9.85433 37.035 10.437 36.4524L36.453 10.437C37.0357 9.85434 37.9803 9.85434 38.563 10.437C39.1457 11.0196 39.1457 11.9643 38.563 12.5473L12.5473 38.5623C12.2549 38.8529 11.8729 39 11.4913 39Z" fill="#5048E5"/>
<path d="M37.5091 39C37.1271 39 36.7454 38.8547 36.4548 38.5623L10.437 12.5473C9.85433 11.9643 9.85433 11.0196 10.437 10.437C11.0197 9.85434 11.9643 9.85434 12.5473 10.437L38.563 36.4524C39.1457 37.035 39.1457 37.9796 38.563 38.5623C38.2706 38.8529 37.8889 39 37.5091 39Z" fill="#5048E5"/>
</svg>
