<svg width="822" height="781" viewBox="0 0 822 781" fill="none" xmlns="http://www.w3.org/2000/svg">
<rect y="94" width="822" height="687" rx="30" fill="#DBE1F7"/>
<rect x="48" y="284" width="469" height="140" rx="10" fill="#EBEEF7"/>
<path d="M80.1965 319.216C77.3885 319.216 75.1745 317.866 74.9225 315.058H77.3345C77.5505 316.534 78.7205 317.254 80.1965 317.254C81.6005 317.254 82.6985 316.624 82.6985 315.562C82.6985 314.608 81.7985 314.14 80.3045 313.816L79.0085 313.528C76.5065 312.97 75.2645 311.836 75.2645 309.964C75.2645 307.696 77.4065 306.13 80.0165 306.13C82.6805 306.13 84.6785 307.534 84.9305 309.982H82.5185C82.3385 308.812 81.4025 308.11 80.0165 308.11C78.7205 308.11 77.6765 308.776 77.6765 309.766C77.6765 310.612 78.2885 310.99 79.6385 311.278L81.1145 311.584C83.5625 312.088 85.1465 313.204 85.1465 315.31C85.1465 317.92 82.7705 319.216 80.1965 319.216ZM95.7229 316.264C95.1469 318.316 93.1489 319.198 91.2229 319.198C88.5769 319.198 86.3629 317.362 86.3629 314.266C86.3629 311.314 88.6489 309.46 91.1329 309.46C93.6529 309.46 95.8129 311.17 95.8129 314.482V314.986H88.7029C88.8829 316.462 89.9629 317.38 91.2949 317.38C92.1589 317.38 93.0229 317.092 93.4549 316.264H95.7229ZM91.0969 311.26C89.8729 311.26 88.8469 312.034 88.6849 313.348H93.4369C93.3289 312.088 92.3929 311.26 91.0969 311.26ZM99.7509 313.978V319H97.4469V309.676H99.6969V311.098C99.8949 310.774 100.129 310.468 100.435 310.216C100.993 309.784 101.515 309.604 102.325 309.604C102.577 309.604 102.811 309.622 102.973 309.658V311.836C102.523 311.8 102.307 311.8 102.055 311.8C101.047 311.8 99.7509 312.16 99.7509 313.978ZM112.716 309.676L109.26 319H106.812L103.356 309.676H105.768L108.09 316.498L110.43 309.676H112.716ZM113.75 308.2V306.04H116.091V308.2H113.75ZM113.769 319V309.676H116.073V319H113.769ZM122.493 319.198C119.829 319.198 117.723 317.272 117.723 314.284C117.723 311.422 119.901 309.46 122.529 309.46C124.797 309.46 126.705 310.882 126.957 313.024H124.671C124.419 312.016 123.537 311.404 122.511 311.404C121.089 311.404 120.099 312.592 120.099 314.284C120.099 316.012 121.125 317.254 122.511 317.254C123.519 317.254 124.383 316.678 124.671 315.616H126.957C126.615 317.866 124.671 319.198 122.493 319.198ZM137.274 316.264C136.698 318.316 134.7 319.198 132.774 319.198C130.128 319.198 127.914 317.362 127.914 314.266C127.914 311.314 130.2 309.46 132.684 309.46C135.204 309.46 137.364 311.17 137.364 314.482V314.986H130.254C130.434 316.462 131.514 317.38 132.846 317.38C133.71 317.38 134.574 317.092 135.006 316.264H137.274ZM132.648 311.26C131.424 311.26 130.398 312.034 130.236 313.348H134.988C134.88 312.088 133.944 311.26 132.648 311.26ZM148.126 306.4V319H145.696V309.316L142.618 311.152V308.776L146.2 306.4H148.126Z" fill="#424242"/>
<rect x="64.5" y="337" width="126" height="71" rx="10" fill="#58CF9D"/>
<path d="M113.515 379L108.543 365.206V379H106.431V363.6H110.083L114.703 376.536L119.301 363.6H122.843V379H120.731V365.14L115.759 379H113.515ZM126.234 379V363.6H128.434V377.108H135.958V379H126.234ZM148.361 363.6V379H146.205V366.262L142.311 368.77V366.592L146.667 363.6H148.361Z" fill="#DEDEDE"/>
<path d="M212.207 373.207C212.598 372.817 212.598 372.183 212.207 371.793L205.843 365.429C205.453 365.038 204.819 365.038 204.429 365.429C204.038 365.819 204.038 366.453 204.429 366.843L210.086 372.5L204.429 378.157C204.038 378.547 204.038 379.181 204.429 379.571C204.819 379.962 205.453 379.962 205.843 379.571L212.207 373.207ZM194.5 373.5H211.5V371.5H194.5V373.5Z" fill="#E9DFFF"/>
<rect x="215.5" y="337" width="130" height="71" rx="10" fill="#5D5EE6"/>
<path d="M264.517 379L259.545 365.206V379H257.433V363.6H261.085L265.705 376.536L270.303 363.6H273.845V379H271.733V365.14L266.761 379H264.517ZM277.236 379V363.6H279.436V377.108H286.96V379H277.236ZM304.225 377.152V379H293.313L293.489 378.076C293.885 375.942 295.095 374.358 298.219 372.444C300.793 370.904 302.025 369.87 302.025 368.154C302.025 366.526 300.925 365.206 299.055 365.206C297.207 365.206 296.019 366.46 295.909 368.198H293.731C293.885 365.272 296.063 363.292 299.077 363.292C302.113 363.292 304.225 365.272 304.225 368.132C304.225 370.618 302.839 372.048 299.451 374.006C297.405 375.216 296.371 376.118 295.997 377.152H304.225Z" fill="#DEDEDE"/>
<path d="M367.207 373.207C367.598 372.817 367.598 372.183 367.207 371.793L360.843 365.429C360.453 365.038 359.819 365.038 359.429 365.429C359.038 365.819 359.038 366.453 359.429 366.843L365.086 372.5L359.429 378.157C359.038 378.547 359.038 379.181 359.429 379.571C359.819 379.962 360.453 379.962 360.843 379.571L367.207 373.207ZM349.5 373.5H366.5V371.5H349.5V373.5Z" fill="#E9DFFF"/>
<rect x="370.5" y="337" width="130" height="71" rx="10" fill="#FF7777"/>
<path d="M419.399 379L414.427 365.206V379H412.315V363.6H415.967L420.587 376.536L425.185 363.6H428.727V379H426.615V365.14L421.643 379H419.399ZM432.118 379V363.6H434.318V377.108H441.842V379H432.118ZM453.717 379.264C450.615 379.264 448.415 377.46 448.129 374.578H450.307C450.483 376.162 451.627 377.438 453.717 377.438C455.807 377.438 457.105 376.316 457.105 374.688C457.105 372.862 455.675 371.916 453.563 371.916C453.079 371.916 452.551 371.938 452.001 371.938V370.09C452.441 370.112 453.079 370.134 453.563 370.134C455.367 370.134 456.929 369.276 456.929 367.56C456.929 366.108 455.675 365.096 453.805 365.096C451.869 365.096 450.747 366.24 450.571 367.67H448.415C448.723 365.008 450.813 363.292 453.805 363.292C456.775 363.292 459.151 364.81 459.151 367.516C459.151 369.496 457.765 370.64 456.093 370.948V370.992C457.941 371.234 459.349 372.576 459.349 374.732C459.349 377.57 456.797 379.264 453.717 379.264Z" fill="#DEDEDE"/>
<rect x="595.5" y="284" width="163" height="140" rx="10" fill="#EBEEF7"/>
<path d="M617.615 319.216C614.807 319.216 612.593 317.866 612.341 315.058H614.753C614.969 316.534 616.139 317.254 617.615 317.254C619.019 317.254 620.117 316.624 620.117 315.562C620.117 314.608 619.217 314.14 617.723 313.816L616.427 313.528C613.925 312.97 612.683 311.836 612.683 309.964C612.683 307.696 614.825 306.13 617.435 306.13C620.099 306.13 622.097 307.534 622.349 309.982H619.937C619.757 308.812 618.821 308.11 617.435 308.11C616.139 308.11 615.095 308.776 615.095 309.766C615.095 310.612 615.707 310.99 617.057 311.278L618.533 311.584C620.981 312.088 622.565 313.204 622.565 315.31C622.565 317.92 620.189 319.216 617.615 319.216ZM633.141 316.264C632.565 318.316 630.567 319.198 628.641 319.198C625.995 319.198 623.781 317.362 623.781 314.266C623.781 311.314 626.067 309.46 628.551 309.46C631.071 309.46 633.231 311.17 633.231 314.482V314.986H626.121C626.301 316.462 627.381 317.38 628.713 317.38C629.577 317.38 630.441 317.092 630.873 316.264H633.141ZM628.515 311.26C627.291 311.26 626.265 312.034 626.103 313.348H630.855C630.747 312.088 629.811 311.26 628.515 311.26ZM637.169 313.978V319H634.865V309.676H637.115V311.098C637.313 310.774 637.547 310.468 637.853 310.216C638.411 309.784 638.933 309.604 639.743 309.604C639.995 309.604 640.229 309.622 640.391 309.658V311.836C639.941 311.8 639.725 311.8 639.473 311.8C638.465 311.8 637.169 312.16 637.169 313.978ZM650.134 309.676L646.678 319H644.23L640.774 309.676H643.186L645.508 316.498L647.848 309.676H650.134ZM651.168 308.2V306.04H653.508V308.2H651.168ZM651.186 319V309.676H653.49V319H651.186ZM659.911 319.198C657.247 319.198 655.141 317.272 655.141 314.284C655.141 311.422 657.319 309.46 659.947 309.46C662.215 309.46 664.123 310.882 664.375 313.024H662.089C661.837 312.016 660.955 311.404 659.929 311.404C658.507 311.404 657.517 312.592 657.517 314.284C657.517 316.012 658.543 317.254 659.929 317.254C660.937 317.254 661.801 316.678 662.089 315.616H664.375C664.033 317.866 662.089 319.198 659.911 319.198ZM674.692 316.264C674.116 318.316 672.118 319.198 670.192 319.198C667.546 319.198 665.332 317.362 665.332 314.266C665.332 311.314 667.618 309.46 670.102 309.46C672.622 309.46 674.782 311.17 674.782 314.482V314.986H667.672C667.852 316.462 668.932 317.38 670.264 317.38C671.128 317.38 671.992 317.092 672.424 316.264H674.692ZM670.066 311.26C668.842 311.26 667.816 312.034 667.654 313.348H672.406C672.298 312.088 671.362 311.26 670.066 311.26ZM689.306 317.02V319H679.964L680.108 318.064C680.396 316.174 681.476 314.842 684.068 313.312C686.048 312.16 686.948 311.476 686.948 310.252C686.948 309.136 686.192 308.218 684.914 308.218C683.6 308.218 682.79 309.118 682.7 310.342H680.288C680.432 307.858 682.304 306.148 684.932 306.148C687.56 306.148 689.378 307.822 689.378 310.234C689.378 312.322 688.208 313.456 685.544 314.932C683.996 315.796 683.258 316.354 682.988 317.02H689.306Z" fill="#424242"/>
<rect x="611.5" y="337" width="131" height="71" rx="10" fill="#5896CF"/>
<path d="M660.888 379L655.916 365.206V379H653.804V363.6H657.456L662.076 376.536L666.674 363.6H670.216V379H668.104V365.14L663.132 379H660.888ZM673.607 379V363.6H675.807V377.108H683.331V379H673.607ZM701.476 375.062H699.144V379H697.098V375.062H689.442V373.192L696.46 363.6H699.144V373.258H701.476V375.062ZM691.642 373.258H697.098V365.8L691.642 373.258Z" fill="#DEDEDE"/>
<rect x="343" width="136" height="70" rx="10" fill="#3F3F60"/>
<path d="M390.918 41.24C387.238 41.24 383.998 38.5 383.998 33.92C383.998 29.4 387.338 26.7 390.918 26.7C394.258 26.7 396.838 28.66 397.278 31.62H394.538C394.118 30.1 392.778 29.1 390.918 29.1C388.658 29.1 386.878 30.98 386.878 33.92C386.878 36.88 388.678 38.86 390.918 38.86C392.758 38.86 394.058 37.9 394.558 36.32H397.298C396.778 39.34 394.238 41.24 390.918 41.24ZM399.105 41V26.6H401.665V41H399.105ZM404.139 29V26.6H406.739V29H404.139ZM404.159 41V30.64H406.719V41H404.159ZM418.953 37.96C418.313 40.24 416.093 41.22 413.953 41.22C411.013 41.22 408.553 39.18 408.553 35.74C408.553 32.46 411.093 30.4 413.853 30.4C416.653 30.4 419.053 32.3 419.053 35.98V36.54H411.153C411.353 38.18 412.553 39.2 414.033 39.2C414.993 39.2 415.953 38.88 416.433 37.96H418.953ZM413.813 32.4C412.453 32.4 411.313 33.26 411.133 34.72H416.413C416.293 33.32 415.253 32.4 413.813 32.4ZM423.428 35.38V41H420.868V30.64H423.388V31.88C424.048 30.94 425.168 30.4 426.488 30.4C428.768 30.4 430.248 31.82 430.248 34.54V41H427.688V34.92C427.688 33.5 426.928 32.6 425.628 32.6C424.448 32.6 423.428 33.5 423.428 35.38ZM436.102 41.02C434.342 41.02 433.222 40.5 433.222 38.22V32.6H431.482V30.64H433.222V28.12H435.762V30.64H438.162V32.6H435.762V37.72C435.762 38.82 436.102 39 436.922 39H438.162V40.98C437.422 41.02 436.982 41.02 436.102 41.02Z" fill="#DEDEDE"/>
<rect x="48" y="513" width="711" height="162" rx="10" fill="#EBEEF7"/>
<path d="M353.374 653L349.494 641.14V653H346.874V639H351.314L354.774 649.86L358.254 639H362.574V653H359.954V641.02L356.054 653H353.374ZM365.365 653V639H368.125V650.68H374.605V653H365.365ZM387.278 653.24C383.598 653.24 380.358 650.5 380.358 645.92C380.358 641.4 383.698 638.7 387.278 638.7C390.618 638.7 393.198 640.66 393.638 643.62H390.898C390.478 642.1 389.138 641.1 387.278 641.1C385.018 641.1 383.238 642.98 383.238 645.92C383.238 648.88 385.038 650.86 387.278 650.86C389.118 650.86 390.418 649.9 390.918 648.32H393.658C393.138 651.34 390.598 653.24 387.278 653.24ZM400.284 653.22C397.244 653.22 394.824 651.12 394.824 647.76C394.824 644.5 397.284 642.4 400.284 642.4C403.304 642.4 405.724 644.46 405.724 647.76C405.724 651.08 403.284 653.22 400.284 653.22ZM400.284 651.06C401.944 651.06 403.084 649.74 403.084 647.76C403.084 645.88 401.944 644.56 400.284 644.56C398.584 644.56 397.464 645.86 397.464 647.76C397.464 649.72 398.604 651.06 400.284 651.06ZM410.11 647.24V653H407.55V642.64H410.05V643.86C410.67 642.92 411.73 642.4 413.09 642.4C414.31 642.4 415.53 642.92 416.19 644.12C416.89 643 418.13 642.4 419.57 642.4C421.59 642.4 423.37 643.5 423.37 646.42V653H420.79V646.84C420.79 645.34 419.95 644.6 418.85 644.6C417.75 644.6 416.73 645.5 416.73 647.24V653H414.17V646.84C414.17 645.34 413.33 644.6 412.23 644.6C411.13 644.6 410.11 645.48 410.11 647.24ZM431.409 653.22C429.949 653.22 428.869 652.6 428.269 651.6V656.8H425.709V642.64H428.229V644.04C428.809 643.06 429.889 642.4 431.429 642.4C434.029 642.4 436.209 644.26 436.209 647.74C436.209 651.3 433.989 653.22 431.409 653.22ZM430.909 651.1C432.409 651.1 433.569 649.88 433.569 647.74C433.569 645.64 432.409 644.52 430.909 644.52C429.349 644.52 428.229 645.74 428.229 647.74C428.229 649.86 429.409 651.1 430.909 651.1ZM442.887 653.22C439.847 653.22 437.427 651.12 437.427 647.76C437.427 644.5 439.887 642.4 442.887 642.4C445.907 642.4 448.327 644.46 448.327 647.76C448.327 651.08 445.887 653.22 442.887 653.22ZM442.887 651.06C444.547 651.06 445.687 649.74 445.687 647.76C445.687 645.88 444.547 644.56 442.887 644.56C441.187 644.56 440.067 645.86 440.067 647.76C440.067 649.72 441.207 651.06 442.887 651.06ZM452.713 647.38V653H450.153V642.64H452.673V643.88C453.333 642.94 454.453 642.4 455.773 642.4C458.053 642.4 459.533 643.82 459.533 646.54V653H456.973V646.92C456.973 645.5 456.213 644.6 454.913 644.6C453.733 644.6 452.713 645.5 452.713 647.38ZM471.626 649.96C470.986 652.24 468.766 653.22 466.626 653.22C463.686 653.22 461.226 651.18 461.226 647.74C461.226 644.46 463.766 642.4 466.526 642.4C469.326 642.4 471.726 644.3 471.726 647.98V648.54H463.826C464.026 650.18 465.226 651.2 466.706 651.2C467.666 651.2 468.626 650.88 469.106 649.96H471.626ZM466.486 644.4C465.126 644.4 463.986 645.26 463.806 646.72H469.086C468.966 645.32 467.926 644.4 466.486 644.4ZM476.102 647.38V653H473.542V642.64H476.062V643.88C476.722 642.94 477.842 642.4 479.162 642.4C481.442 642.4 482.922 643.82 482.922 646.54V653H480.362V646.92C480.362 645.5 479.602 644.6 478.302 644.6C477.122 644.6 476.102 645.5 476.102 647.38ZM488.776 653.02C487.016 653.02 485.896 652.5 485.896 650.22V644.6H484.156V642.64H485.896V640.12H488.436V642.64H490.836V644.6H488.436V649.72C488.436 650.82 488.776 651 489.596 651H490.836V652.98C490.096 653.02 489.656 653.02 488.776 653.02ZM496.576 653.24C494.136 653.24 492.136 652.12 491.876 649.72H494.296C494.476 650.82 495.416 651.32 496.616 651.32C497.596 651.32 498.536 650.94 498.536 650.12C498.536 649.38 497.836 649.06 496.456 648.82L495.416 648.64C493.336 648.28 492.076 647.32 492.076 645.7C492.076 643.62 493.976 642.38 496.316 642.38C498.576 642.38 500.476 643.54 500.736 645.62H498.356C498.116 644.74 497.356 644.3 496.256 644.3C495.256 644.3 494.496 644.76 494.496 645.46C494.496 646.12 495.076 646.38 496.256 646.58L497.296 646.76C499.576 647.16 500.996 648.06 500.996 649.86C500.996 652.06 498.896 653.24 496.576 653.24Z" fill="#424242"/>
<rect x="134" y="544" width="126" height="71" rx="10" fill="#58CF9D"/>
<path d="M183.015 586L178.043 572.206V586H175.931V570.6H179.583L184.203 583.536L188.801 570.6H192.343V586H190.231V572.14L185.259 586H183.015ZM195.734 586V570.6H197.934V584.108H205.458V586H195.734ZM217.861 570.6V586H215.705V573.262L211.811 575.77V573.592L216.167 570.6H217.861Z" fill="#DEDEDE"/>
<rect x="280" y="544" width="130" height="71" rx="10" fill="#5D5EE6"/>
<path d="M329.017 586L324.045 572.206V586H321.933V570.6H325.585L330.205 583.536L334.803 570.6H338.345V586H336.233V572.14L331.261 586H329.017ZM341.736 586V570.6H343.936V584.108H351.46V586H341.736ZM368.725 584.152V586H357.813L357.989 585.076C358.385 582.942 359.595 581.358 362.719 579.444C365.293 577.904 366.525 576.87 366.525 575.154C366.525 573.526 365.425 572.206 363.555 572.206C361.707 572.206 360.519 573.46 360.409 575.198H358.231C358.385 572.272 360.563 570.292 363.577 570.292C366.613 570.292 368.725 572.272 368.725 575.132C368.725 577.618 367.339 579.048 363.951 581.006C361.905 582.216 360.871 583.118 360.497 584.152H368.725Z" fill="#DEDEDE"/>
<rect x="430" y="544" width="130" height="71" rx="10" fill="#FF7777"/>
<path d="M478.899 586L473.927 572.206V586H471.815V570.6H475.467L480.087 583.536L484.685 570.6H488.227V586H486.115V572.14L481.143 586H478.899ZM491.618 586V570.6H493.818V584.108H501.342V586H491.618ZM513.217 586.264C510.115 586.264 507.915 584.46 507.629 581.578H509.807C509.983 583.162 511.127 584.438 513.217 584.438C515.307 584.438 516.605 583.316 516.605 581.688C516.605 579.862 515.175 578.916 513.063 578.916C512.579 578.916 512.051 578.938 511.501 578.938V577.09C511.941 577.112 512.579 577.134 513.063 577.134C514.867 577.134 516.429 576.276 516.429 574.56C516.429 573.108 515.175 572.096 513.305 572.096C511.369 572.096 510.247 573.24 510.071 574.67H507.915C508.223 572.008 510.313 570.292 513.305 570.292C516.275 570.292 518.651 571.81 518.651 574.516C518.651 576.496 517.265 577.64 515.593 577.948V577.992C517.441 578.234 518.849 579.576 518.849 581.732C518.849 584.57 516.297 586.264 513.217 586.264Z" fill="#DEDEDE"/>
<rect x="580" y="544" width="131" height="71" rx="10" fill="#5896CF"/>
<path d="M629.388 586L624.416 572.206V586H622.304V570.6H625.956L630.576 583.536L635.174 570.6H638.716V586H636.604V572.14L631.632 586H629.388ZM642.107 586V570.6H644.307V584.108H651.831V586H642.107ZM669.976 582.062H667.644V586H665.598V582.062H657.942V580.192L664.96 570.6H667.644V580.258H669.976V582.062ZM660.142 580.258H665.598V572.8L660.142 580.258Z" fill="#DEDEDE"/>
<path d="M667.552 184.395C668.323 184.089 668.7 183.218 668.395 182.448L663.423 169.896C663.118 169.126 662.246 168.749 661.476 169.054C660.706 169.359 660.329 170.231 660.634 171.001L665.053 182.158L653.896 186.577C653.126 186.882 652.749 187.754 653.054 188.524C653.359 189.294 654.231 189.671 655.001 189.366L667.552 184.395ZM414.405 75.3767L416.738 76.386L417.929 73.6325L415.595 72.6233L414.405 75.3767ZM421.405 78.4045L426.071 80.423L427.262 77.6696L422.595 75.651L421.405 78.4045ZM430.738 82.4415L435.405 84.4601L436.595 81.7066L431.929 79.6881L430.738 82.4415ZM440.071 86.4786L444.738 88.4971L445.929 85.7436L441.262 83.7251L440.071 86.4786ZM449.405 90.5156L454.071 92.5341L455.262 89.7807L450.595 87.7622L449.405 90.5156ZM458.738 94.5527L463.405 96.5712L464.595 93.8177L459.929 91.7992L458.738 94.5527ZM468.071 98.5897L472.738 100.608L473.929 97.8548L469.262 95.8362L468.071 98.5897ZM477.405 102.627L482.071 104.645L483.262 101.892L478.595 99.8733L477.405 102.627ZM486.738 106.664L491.405 108.682L492.595 105.929L487.929 103.91L486.738 106.664ZM496.071 110.701L500.738 112.719L501.929 109.966L497.262 107.947L496.071 110.701ZM505.404 114.738L510.071 116.756L511.262 114.003L506.595 111.984L505.404 114.738ZM514.738 118.775L519.404 120.793L520.595 118.04L515.929 116.021L514.738 118.775ZM524.071 122.812L528.738 124.83L529.929 122.077L525.262 120.058L524.071 122.812ZM533.404 126.849L538.071 128.867L539.262 126.114L534.595 124.095L533.404 126.849ZM542.738 130.886L547.404 132.905L548.595 130.151L543.929 128.133L542.738 130.886ZM552.071 134.923L556.738 136.942L557.929 134.188L553.262 132.17L552.071 134.923ZM561.404 138.96L566.071 140.979L567.262 138.225L562.595 136.207L561.404 138.96ZM570.738 142.997L575.404 145.016L576.595 142.262L571.929 140.244L570.738 142.997ZM580.071 147.034L584.738 149.053L585.929 146.299L581.262 144.281L580.071 147.034ZM589.404 151.071L594.071 153.09L595.262 150.336L590.595 148.318L589.404 151.071ZM598.738 155.108L603.404 157.127L604.595 154.373L599.929 152.355L598.738 155.108ZM608.071 159.145L612.738 161.164L613.929 158.41L609.262 156.392L608.071 159.145ZM617.404 163.182L622.071 165.201L623.262 162.447L618.595 160.429L617.404 163.182ZM626.738 167.219L631.404 169.238L632.595 166.484L627.929 164.466L626.738 167.219ZM636.071 171.256L640.738 173.275L641.929 170.521L637.262 168.503L636.071 171.256ZM645.404 175.293L650.071 177.312L651.262 174.558L646.595 172.54L645.404 175.293ZM654.738 179.33L659.404 181.349L660.595 178.595L655.929 176.577L654.738 179.33ZM664.071 183.367L666.405 184.377L667.595 181.623L665.262 180.614L664.071 183.367Z" fill="#424242"/>
<path d="M283.006 182.869C282.933 183.694 283.543 184.422 284.369 184.494L297.817 185.676C298.642 185.748 299.37 185.138 299.442 184.313C299.515 183.488 298.905 182.76 298.079 182.687L286.126 181.637L287.176 169.683C287.248 168.858 286.638 168.13 285.813 168.058C284.988 167.985 284.26 168.595 284.187 169.421L283.006 182.869ZM285.464 184.149L287.376 182.546L285.448 180.248L283.536 181.851L285.464 184.149ZM291.199 179.341L295.023 176.135L293.095 173.836L289.272 177.042L291.199 179.341ZM298.846 172.929L302.67 169.723L300.742 167.424L296.919 170.63L298.846 172.929ZM306.493 166.517L310.317 163.311L308.389 161.012L304.566 164.218L306.493 166.517ZM314.14 160.105L317.964 156.899L316.036 154.601L312.213 157.806L314.14 160.105ZM321.787 153.694L325.611 150.488L323.683 148.189L319.86 151.395L321.787 153.694ZM329.434 147.282L333.258 144.076L331.33 141.777L327.507 144.983L329.434 147.282ZM337.081 140.87L340.905 137.664L338.977 135.365L335.154 138.571L337.081 140.87ZM344.728 134.458L348.552 131.252L346.624 128.954L342.801 132.159L344.728 134.458ZM352.376 128.046L356.199 124.841L354.272 122.542L350.448 125.748L352.376 128.046ZM360.023 121.635L363.846 118.429L361.919 116.13L358.095 119.336L360.023 121.635ZM367.67 115.223L371.493 112.017L369.566 109.718L365.742 112.924L367.67 115.223ZM375.317 108.811L379.14 105.605L377.213 103.306L373.389 106.512L375.317 108.811ZM382.964 102.399L386.787 99.1936L384.86 96.8947L381.036 100.101L382.964 102.399ZM390.611 95.9877L394.434 92.7818L392.507 90.4829L388.683 93.6888L390.611 95.9877ZM398.258 89.5759L402.081 86.37L400.154 84.0712L396.33 87.277L398.258 89.5759ZM405.905 83.1641L409.728 79.9582L407.801 77.6594L403.977 80.8653L405.905 83.1641ZM413.552 76.7524L415.464 75.1494L413.536 72.8506L411.624 74.4535L413.552 76.7524Z" fill="#424242"/>
<path d="M138 413L197 535" stroke="#424242" stroke-width="3" stroke-dasharray="5 5"/>
<path d="M277 413L336 535" stroke="#424242" stroke-width="3" stroke-dasharray="5 5"/>
<path d="M436 413L495 535" stroke="#424242" stroke-width="3" stroke-dasharray="5 5"/>
<path d="M679 416L646 535" stroke="#424242" stroke-width="3" stroke-dasharray="5 5"/>
<rect width="90.9563" height="90.9563" rx="10" transform="matrix(0.766044 -0.642788 0.788534 0.614991 209 241.466)" fill="#3F3F60"/>
<path d="M276.923 246.24C273.463 246.24 271.063 244.16 271.063 240.42V232H273.823V240.28C273.823 242.56 275.083 243.84 276.943 243.84C278.823 243.84 280.043 242.58 280.043 240.3V232H282.803V240.4C282.803 244.12 280.363 246.24 276.923 246.24ZM285.437 246V232H288.197V246H285.437Z" fill="#DEDEDE"/>
<rect width="90.9563" height="90.9563" rx="10" transform="matrix(0.766044 -0.642788 0.788534 0.614991 602 241.466)" fill="#3F3F60"/>
<path d="M668.294 246L667.094 242.74H661.074L659.874 246H657.094L662.574 232H665.734L671.194 246H668.294ZM661.914 240.48H666.254L664.094 234.64L661.914 240.48ZM672.592 246V232H678.252C681.612 232 683.372 233.8 683.372 236.48C683.372 239.22 681.552 241 678.232 241H675.332V246H672.592ZM675.332 238.74H677.952C679.692 238.74 680.592 237.86 680.592 236.5C680.592 235.16 679.672 234.26 677.952 234.26H675.332V238.74ZM685.146 246V232H687.906V246H685.146Z" fill="#DEDEDE"/>
<path d="M605.815 729.675H606.86L609.836 726.723L609.982 725.47C608.277 723.977 606.217 722.94 603.996 722.457C601.774 721.974 599.466 722.06 597.288 722.708C595.11 723.356 593.134 724.544 591.548 726.16C589.961 727.776 588.816 729.766 588.221 731.943C588.552 731.808 588.919 731.786 589.265 731.881L595.217 730.907C595.217 730.907 595.52 730.41 595.676 730.441C596.952 729.052 598.714 728.199 600.603 728.056C602.492 727.914 604.364 728.493 605.836 729.675H605.815Z" fill="#EA4335"/>
<path d="M614.076 731.943C613.392 729.444 611.987 727.198 610.035 725.48L605.858 729.623C606.728 730.328 607.426 731.221 607.898 732.233C608.37 733.244 608.605 734.349 608.583 735.464V736.2C609.071 736.2 609.555 736.295 610.006 736.48C610.457 736.666 610.867 736.937 611.212 737.28C611.557 737.622 611.831 738.028 612.018 738.476C612.205 738.923 612.301 739.403 612.301 739.887C612.301 740.371 612.205 740.85 612.018 741.298C611.831 741.745 611.557 742.152 611.212 742.494C610.867 742.836 610.457 743.108 610.006 743.293C609.555 743.479 609.071 743.574 608.583 743.574H601.149L600.407 744.32V748.742L601.149 749.477H608.583C610.659 749.494 612.686 748.846 614.362 747.632C616.039 746.417 617.276 744.699 617.892 742.733C618.508 740.766 618.47 738.655 617.783 736.712C617.095 734.769 615.796 733.097 614.076 731.943Z" fill="#4285F4"/>
<path d="M593.703 749.436H601.138V743.532H593.703C593.174 743.532 592.65 743.419 592.168 743.201L591.124 743.522L588.127 746.474L587.866 747.51C589.547 748.768 591.597 749.445 593.703 749.436Z" fill="#34A853"/>
<path d="M593.703 730.286C591.689 730.298 589.728 730.933 588.096 732.104C586.463 733.275 585.24 734.922 584.597 736.815C583.955 738.709 583.924 740.755 584.51 742.666C585.096 744.578 586.269 746.26 587.866 747.479L592.179 743.201C591.631 742.955 591.151 742.582 590.781 742.112C590.41 741.642 590.16 741.09 590.052 740.503C589.944 739.916 589.982 739.312 590.161 738.743C590.34 738.173 590.656 737.656 591.081 737.234C591.506 736.812 592.028 736.499 592.602 736.321C593.176 736.143 593.785 736.107 594.377 736.214C594.968 736.321 595.525 736.569 595.999 736.936C596.473 737.303 596.849 737.779 597.097 738.323L601.41 734.045C600.504 732.872 599.338 731.922 598.001 731.269C596.664 730.617 595.193 730.28 593.703 730.286Z" fill="#FBBC05"/>
<path d="M638.124 745.314C636.844 745.33 635.574 745.09 634.389 744.608C633.205 744.125 632.131 743.411 631.232 742.507C630.304 741.642 629.568 740.595 629.07 739.432C628.573 738.27 628.324 737.017 628.34 735.754C628.324 734.491 628.573 733.239 629.071 732.077C629.569 730.914 630.305 729.867 631.232 729.001C632.127 728.088 633.199 727.364 634.383 726.873C635.568 726.382 636.84 726.133 638.124 726.143C639.347 726.127 640.561 726.352 641.696 726.805C642.831 727.259 643.863 727.931 644.734 728.784L642.875 730.659C641.602 729.438 639.894 728.768 638.124 728.794C637.206 728.783 636.295 728.962 635.45 729.318C634.605 729.675 633.844 730.202 633.216 730.866C632.563 731.508 632.048 732.276 631.701 733.121C631.355 733.967 631.185 734.873 631.201 735.785C631.193 736.687 631.367 737.582 631.713 738.416C632.06 739.25 632.57 740.007 633.216 740.643C634.509 741.921 636.254 742.648 638.08 742.669C639.905 742.691 641.667 742.005 642.99 740.757C643.809 739.867 644.311 738.736 644.42 737.536H638.155V734.884H647.02C647.107 735.418 647.142 735.959 647.125 736.5C647.18 737.619 647.006 738.738 646.613 739.788C646.22 740.838 645.616 741.798 644.838 742.611C643.973 743.504 642.928 744.206 641.771 744.672C640.614 745.138 639.372 745.357 638.124 745.314ZM658.736 743.553C657.546 744.684 655.962 745.316 654.314 745.316C652.666 745.316 651.082 744.684 649.892 743.553C649.3 742.984 648.833 742.298 648.522 741.541C648.211 740.783 648.063 739.969 648.085 739.151C648.063 738.334 648.212 737.52 648.523 736.763C648.834 736.005 649.3 735.32 649.892 734.75C651.083 733.621 652.667 732.991 654.314 732.991C655.961 732.991 657.545 733.621 658.736 734.75C659.328 735.32 659.794 736.005 660.105 736.763C660.416 737.52 660.565 738.334 660.543 739.151C660.564 739.97 660.414 740.784 660.101 741.542C659.788 742.3 659.32 742.985 658.726 743.553H658.736ZM651.845 741.824C652.161 742.159 652.543 742.426 652.968 742.609C653.393 742.791 653.851 742.886 654.314 742.886C654.777 742.886 655.235 742.791 655.66 742.609C656.085 742.426 656.467 742.159 656.784 741.824C657.129 741.47 657.399 741.051 657.578 740.592C657.757 740.133 657.842 739.643 657.828 739.151C657.843 738.658 657.759 738.166 657.579 737.705C657.4 737.245 657.129 736.824 656.784 736.469C656.463 736.137 656.078 735.873 655.652 735.693C655.226 735.512 654.767 735.42 654.304 735.42C653.84 735.42 653.382 735.512 652.955 735.693C652.529 735.873 652.144 736.137 651.824 736.469C651.478 736.824 651.207 737.245 651.028 737.705C650.849 738.166 650.764 738.658 650.779 739.151C650.766 739.644 650.853 740.135 651.034 740.593C651.215 741.052 651.487 741.471 651.834 741.824H651.845ZM672.332 743.553C671.142 744.684 669.558 745.316 667.91 745.316C666.261 745.316 664.677 744.684 663.487 743.553C662.895 742.984 662.429 742.298 662.118 741.541C661.807 740.783 661.658 739.969 661.681 739.151C661.659 738.334 661.808 737.52 662.119 736.763C662.43 736.005 662.896 735.32 663.487 734.75C664.677 733.618 666.261 732.987 667.91 732.987C669.558 732.987 671.142 733.618 672.332 734.75C672.923 735.32 673.389 736.005 673.7 736.763C674.011 737.52 674.16 738.334 674.138 739.151C674.161 739.969 674.012 740.783 673.701 741.541C673.39 742.298 672.924 742.984 672.332 743.553ZM665.44 741.824C665.756 742.159 666.139 742.426 666.564 742.609C666.988 742.791 667.447 742.886 667.91 742.886C668.372 742.886 668.831 742.791 669.255 742.609C669.68 742.426 670.063 742.159 670.379 741.824C670.724 741.47 670.994 741.051 671.174 740.592C671.353 740.133 671.438 739.643 671.423 739.151C671.439 738.658 671.354 738.166 671.175 737.705C670.995 737.245 670.725 736.824 670.379 736.469C670.058 736.137 669.673 735.873 669.247 735.693C668.821 735.512 668.362 735.42 667.899 735.42C667.436 735.42 666.977 735.512 666.551 735.693C666.125 735.873 665.74 736.137 665.419 736.469C665.073 736.824 664.803 737.245 664.623 737.705C664.444 738.166 664.36 738.658 664.375 739.151C664.362 739.644 664.448 740.135 664.629 740.593C664.811 741.052 665.083 741.471 665.43 741.824H665.44ZM681.27 750.845C680.018 750.884 678.791 750.497 677.793 749.747C676.906 749.086 676.208 748.208 675.767 747.199L678.148 746.215C678.407 746.818 678.812 747.348 679.328 747.758C679.88 748.199 680.572 748.431 681.28 748.411C681.73 748.438 682.18 748.369 682.599 748.208C683.019 748.047 683.399 747.798 683.713 747.479C684.343 746.726 684.653 745.761 684.58 744.786V743.895H684.486C684.088 744.364 683.586 744.734 683.018 744.977C682.451 745.22 681.835 745.328 681.218 745.293C680.434 745.296 679.658 745.137 678.939 744.826C678.22 744.516 677.574 744.062 677.041 743.491C676.463 742.925 676.007 742.249 675.7 741.503C675.393 740.757 675.242 739.957 675.255 739.151C675.241 738.341 675.392 737.536 675.699 736.785C676.005 736.034 676.462 735.352 677.041 734.781C677.572 734.208 678.218 733.751 678.937 733.439C679.656 733.127 680.433 732.967 681.218 732.968C681.882 732.967 682.538 733.112 683.139 733.393C683.659 733.618 684.122 733.954 684.497 734.377H684.591V733.393H687.18V744.423C687.248 745.296 687.136 746.173 686.851 747.001C686.565 747.829 686.112 748.591 685.52 749.239C684.956 749.775 684.289 750.193 683.559 750.469C682.829 750.744 682.051 750.872 681.27 750.845ZM681.458 742.89C681.904 742.9 682.346 742.812 682.754 742.633C683.162 742.454 683.525 742.189 683.818 741.855C684.462 741.122 684.802 740.175 684.768 739.203C684.807 738.216 684.467 737.25 683.818 736.5C683.526 736.166 683.163 735.899 682.755 735.72C682.347 735.541 681.904 735.454 681.458 735.464C681 735.455 680.545 735.543 680.124 735.721C679.702 735.9 679.324 736.165 679.015 736.5C678.324 737.223 677.949 738.187 677.97 739.183C677.96 739.671 678.047 740.157 678.226 740.612C678.405 741.067 678.673 741.482 679.015 741.834C679.323 742.172 679.7 742.441 680.122 742.623C680.543 742.805 680.998 742.896 681.458 742.89ZM691.785 726.837V744.941H689.06V726.837H691.785ZM699.262 745.314C698.445 745.335 697.634 745.188 696.877 744.883C696.121 744.579 695.436 744.122 694.865 743.543C694.287 742.968 693.832 742.282 693.528 741.527C693.225 740.772 693.08 739.964 693.101 739.151C693.07 738.337 693.205 737.525 693.497 736.763C693.79 736.002 694.234 735.306 694.803 734.719C695.339 734.158 695.988 733.714 696.707 733.416C697.426 733.118 698.2 732.973 698.98 732.989C699.696 732.981 700.407 733.119 701.068 733.393C701.664 733.631 702.206 733.983 702.666 734.429C703.06 734.806 703.41 735.227 703.71 735.682C703.952 736.066 704.158 736.472 704.326 736.894L704.608 737.598L696.254 741.005C696.507 741.581 696.93 742.067 697.466 742.4C698.003 742.733 698.629 742.897 699.262 742.87C699.877 742.871 700.482 742.715 701.018 742.415C701.555 742.116 702.003 741.684 702.321 741.161L704.409 742.559C703.877 743.315 703.194 743.957 702.405 744.444C701.465 745.033 700.372 745.335 699.262 745.314ZM695.774 738.965L701.329 736.676C701.158 736.273 700.852 735.94 700.462 735.734C700.026 735.489 699.533 735.364 699.032 735.371C698.182 735.393 697.375 735.747 696.787 736.355C696.435 736.689 696.161 737.097 695.986 737.548C695.811 737.999 695.739 738.483 695.774 738.965Z" fill="#5F6368"/>
<path d="M718.882 745.314C717.723 745.334 716.571 745.121 715.497 744.689C714.423 744.256 713.448 743.613 712.631 742.798C711.814 741.982 711.171 741.011 710.741 739.943C710.312 738.875 710.104 737.732 710.131 736.583C710.104 735.433 710.312 734.29 710.741 733.222C711.171 732.154 711.814 731.184 712.631 730.368C713.448 729.553 714.423 728.909 715.497 728.477C716.571 728.045 717.723 727.832 718.882 727.852C720.055 727.815 721.221 728.042 722.293 728.516C723.365 728.989 724.316 729.697 725.074 730.586L723.57 732.036C723.014 731.342 722.3 730.788 721.487 730.419C720.674 730.05 719.785 729.877 718.892 729.913C718.032 729.894 717.177 730.047 716.379 730.364C715.58 730.681 714.855 731.154 714.245 731.756C713.612 732.388 713.117 733.143 712.792 733.974C712.467 734.804 712.318 735.693 712.355 736.583C712.318 737.473 712.467 738.361 712.792 739.192C713.117 740.023 713.612 740.777 714.245 741.409C714.855 742.011 715.58 742.485 716.379 742.802C717.177 743.119 718.032 743.272 718.892 743.253C719.89 743.264 720.878 743.052 721.781 742.632C722.685 742.213 723.482 741.596 724.113 740.829L725.617 742.321C724.829 743.255 723.841 744.001 722.724 744.506C721.521 745.057 720.207 745.333 718.882 745.314Z" fill="#5F6368"/>
<path d="M729.658 744.941H727.496V728.214H729.658V744.941Z" fill="#5F6368"/>
<path d="M733.187 734.874C734.32 733.758 735.851 733.132 737.448 733.132C739.044 733.132 740.575 733.758 741.708 734.874C742.262 735.454 742.694 736.137 742.981 736.883C743.268 737.63 743.403 738.425 743.379 739.224C743.403 740.022 743.268 740.818 742.981 741.564C742.694 742.311 742.262 742.994 741.708 743.574C740.575 744.69 739.044 745.316 737.448 745.316C735.851 745.316 734.32 744.69 733.187 743.574C732.633 742.994 732.201 742.311 731.914 741.564C731.627 740.818 731.492 740.022 731.516 739.224C731.492 738.425 731.627 737.63 731.914 736.883C732.201 736.137 732.633 735.454 733.187 734.874ZM734.795 742.227C735.136 742.584 735.546 742.869 736.001 743.063C736.456 743.257 736.947 743.358 737.442 743.358C737.938 743.358 738.428 743.257 738.883 743.063C739.338 742.869 739.749 742.584 740.089 742.227C740.467 741.825 740.761 741.353 740.952 740.837C741.144 740.321 741.231 739.773 741.207 739.224C741.231 738.675 741.144 738.126 740.952 737.611C740.761 737.095 740.467 736.622 740.089 736.22C739.749 735.863 739.338 735.579 738.883 735.385C738.428 735.19 737.938 735.09 737.442 735.09C736.947 735.09 736.456 735.19 736.001 735.385C735.546 735.579 735.136 735.863 734.795 736.22C734.417 736.622 734.124 737.095 733.932 737.611C733.74 738.126 733.654 738.675 733.678 739.224C733.657 739.772 733.746 740.319 733.939 740.833C734.133 741.347 734.427 741.817 734.806 742.217L734.795 742.227Z" fill="#5F6368"/>
<path d="M755.355 744.941H753.267V743.356H753.204C752.832 743.958 752.306 744.452 751.68 744.786C751.029 745.16 750.291 745.356 749.539 745.355C748.929 745.397 748.317 745.301 747.749 745.075C747.181 744.849 746.672 744.499 746.26 744.05C745.469 743.058 745.072 741.813 745.143 740.55V733.507H747.304V740.156C747.304 742.29 748.255 743.356 750.155 743.356C750.577 743.37 750.997 743.282 751.378 743.102C751.759 742.922 752.092 742.654 752.348 742.321C752.908 741.617 753.207 740.742 753.194 739.845V733.507H755.355V744.941Z" fill="#5F6368"/>
<path d="M762.696 745.314C761.963 745.316 761.238 745.161 760.571 744.859C759.904 744.557 759.311 744.115 758.833 743.564C757.75 742.378 757.17 740.823 757.214 739.224C757.17 737.625 757.75 736.07 758.833 734.884C759.311 734.333 759.904 733.891 760.571 733.589C761.238 733.287 761.963 733.131 762.696 733.134C763.518 733.121 764.329 733.313 765.056 733.693C765.695 734.012 766.236 734.495 766.622 735.091H766.716L766.622 733.507V728.214H768.784V744.941H766.696V743.356H766.602C766.215 743.953 765.674 744.436 765.035 744.755C764.315 745.131 763.511 745.323 762.696 745.314ZM763.051 743.356C763.54 743.363 764.024 743.267 764.473 743.074C764.921 742.882 765.323 742.596 765.651 742.238C766.386 741.409 766.761 740.326 766.696 739.224C766.761 738.122 766.386 737.039 765.651 736.21C765.321 735.849 764.918 735.561 764.468 735.364C764.018 735.167 763.532 735.065 763.041 735.065C762.549 735.065 762.063 735.167 761.614 735.364C761.164 735.561 760.761 735.849 760.43 736.21C760.066 736.618 759.786 737.093 759.606 737.609C759.427 738.124 759.352 738.669 759.386 739.214C759.352 739.758 759.427 740.303 759.606 740.819C759.786 741.334 760.066 741.809 760.43 742.217C760.759 742.582 761.164 742.873 761.616 743.069C762.068 743.266 762.558 743.364 763.051 743.356Z" fill="#5F6368"/>
</svg>
