<svg width="1000" height="951" viewBox="0 0 1000 951" fill="none" xmlns="http://www.w3.org/2000/svg">
<rect y="114.355" width="1000" height="835.766" rx="30" fill="#DBE1F7"/>
<rect x="58.3945" y="345.499" width="570.56" height="170.316" rx="10" fill="#EBEEF7"/>
<path d="M90.5911 395.873C87.7831 395.873 85.5691 394.523 85.3171 391.715H87.7291C87.9451 393.191 89.1151 393.911 90.5911 393.911C91.9951 393.911 93.0931 393.281 93.0931 392.219C93.0931 391.265 92.1931 390.797 90.6991 390.473L89.4031 390.185C86.9011 389.627 85.6591 388.493 85.6591 386.621C85.6591 384.353 87.8011 382.787 90.4111 382.787C93.0751 382.787 95.0731 384.191 95.3251 386.639H92.9131C92.7331 385.469 91.7971 384.767 90.4111 384.767C89.1151 384.767 88.0711 385.433 88.0711 386.423C88.0711 387.269 88.6831 387.647 90.0331 387.935L91.5091 388.241C93.9571 388.745 95.5411 389.861 95.5411 391.967C95.5411 394.577 93.1651 395.873 90.5911 395.873ZM106.117 392.921C105.541 394.973 103.543 395.855 101.617 395.855C98.9715 395.855 96.7575 394.019 96.7575 390.923C96.7575 387.971 99.0435 386.117 101.527 386.117C104.047 386.117 106.207 387.827 106.207 391.139V391.643H99.0975C99.2775 393.119 100.357 394.037 101.689 394.037C102.553 394.037 103.417 393.749 103.849 392.921H106.117ZM101.491 387.917C100.267 387.917 99.2415 388.691 99.0795 390.005H103.831C103.723 388.745 102.787 387.917 101.491 387.917ZM110.145 390.635V395.657H107.841V386.333H110.091V387.755C110.289 387.431 110.523 387.125 110.829 386.873C111.387 386.441 111.909 386.261 112.719 386.261C112.971 386.261 113.205 386.279 113.367 386.315V388.493C112.917 388.457 112.701 388.457 112.449 388.457C111.441 388.457 110.145 388.817 110.145 390.635ZM123.111 386.333L119.655 395.657H117.207L113.751 386.333H116.163L118.485 393.155L120.825 386.333H123.111ZM124.145 384.857V382.697H126.485V384.857H124.145ZM124.163 395.657V386.333H126.467V395.657H124.163ZM132.888 395.855C130.224 395.855 128.118 393.929 128.118 390.941C128.118 388.079 130.296 386.117 132.924 386.117C135.192 386.117 137.1 387.539 137.352 389.681H135.066C134.814 388.673 133.932 388.061 132.906 388.061C131.484 388.061 130.494 389.249 130.494 390.941C130.494 392.669 131.52 393.911 132.906 393.911C133.914 393.911 134.778 393.335 135.066 392.273H137.352C137.01 394.523 135.066 395.855 132.888 395.855ZM147.669 392.921C147.093 394.973 145.095 395.855 143.169 395.855C140.523 395.855 138.309 394.019 138.309 390.923C138.309 387.971 140.595 386.117 143.079 386.117C145.599 386.117 147.759 387.827 147.759 391.139V391.643H140.649C140.829 393.119 141.909 394.037 143.241 394.037C144.105 394.037 144.969 393.749 145.401 392.921H147.669ZM143.043 387.917C141.819 387.917 140.793 388.691 140.631 390.005H145.383C145.275 388.745 144.339 387.917 143.043 387.917ZM158.52 383.057V395.657H156.09V385.973L153.012 387.809V385.433L156.594 383.057H158.52Z" fill="#424242"/>
<rect x="74.8945" y="413.657" width="126" height="71" rx="10" fill="#58CF9D"/>
<path d="M123.909 455.657L118.937 441.863V455.657H116.825V440.257H120.477L125.097 453.193L129.695 440.257H133.237V455.657H131.125V441.797L126.153 455.657H123.909ZM136.629 455.657V440.257H138.829V453.765H146.353V455.657H136.629ZM158.756 440.257V455.657H156.6V442.919L152.706 445.427V443.249L157.062 440.257H158.756Z" fill="#DEDEDE"/>
<path d="M222.602 449.864C222.992 449.474 222.992 448.84 222.602 448.45L216.238 442.086C215.847 441.695 215.214 441.695 214.823 442.086C214.433 442.476 214.433 443.11 214.823 443.5L220.48 449.157L214.823 454.814C214.433 455.204 214.433 455.838 214.823 456.228C215.214 456.619 215.847 456.619 216.238 456.228L222.602 449.864ZM204.895 450.157H221.895V448.157H204.895V450.157Z" fill="#E9DFFF"/>
<rect x="225.895" y="413.657" width="130" height="71" rx="10" fill="#5D5EE6"/>
<path d="M274.911 455.657L269.939 441.863V455.657H267.827V440.257H271.479L276.099 453.193L280.697 440.257H284.239V455.657H282.127V441.797L277.155 455.657H274.911ZM287.631 455.657V440.257H289.831V453.765H297.355V455.657H287.631ZM314.619 453.809V455.657H303.707L303.883 454.733C304.279 452.599 305.489 451.015 308.613 449.101C311.187 447.561 312.419 446.527 312.419 444.811C312.419 443.183 311.319 441.863 309.449 441.863C307.601 441.863 306.413 443.117 306.303 444.855H304.125C304.279 441.929 306.457 439.949 309.471 439.949C312.507 439.949 314.619 441.929 314.619 444.789C314.619 447.275 313.233 448.705 309.845 450.663C307.799 451.873 306.765 452.775 306.391 453.809H314.619Z" fill="#DEDEDE"/>
<path d="M377.602 449.864C377.992 449.474 377.992 448.84 377.602 448.45L371.238 442.086C370.847 441.695 370.214 441.695 369.823 442.086C369.433 442.476 369.433 443.11 369.823 443.5L375.48 449.157L369.823 454.814C369.433 455.204 369.433 455.838 369.823 456.228C370.214 456.619 370.847 456.619 371.238 456.228L377.602 449.864ZM359.895 450.157H376.895V448.157H359.895V450.157Z" fill="#E9DFFF"/>
<rect x="380.895" y="413.657" width="130" height="71" rx="10" fill="#FF7777"/>
<path d="M429.793 455.657L424.821 441.863V455.657H422.709V440.257H426.361L430.981 453.193L435.579 440.257H439.121V455.657H437.009V441.797L432.037 455.657H429.793ZM442.513 455.657V440.257H444.713V453.765H452.237V455.657H442.513ZM464.111 455.921C461.009 455.921 458.809 454.117 458.523 451.235H460.701C460.877 452.819 462.021 454.095 464.111 454.095C466.201 454.095 467.499 452.973 467.499 451.345C467.499 449.519 466.069 448.573 463.957 448.573C463.473 448.573 462.945 448.595 462.395 448.595V446.747C462.835 446.769 463.473 446.791 463.957 446.791C465.761 446.791 467.323 445.933 467.323 444.217C467.323 442.765 466.069 441.753 464.199 441.753C462.263 441.753 461.141 442.897 460.965 444.327H458.809C459.117 441.665 461.207 439.949 464.199 439.949C467.169 439.949 469.545 441.467 469.545 444.173C469.545 446.153 468.159 447.297 466.487 447.605V447.649C468.335 447.891 469.743 449.233 469.743 451.389C469.743 454.227 467.191 455.921 464.111 455.921Z" fill="#DEDEDE"/>
<rect x="724.452" y="345.499" width="198.297" height="170.316" rx="10" fill="#EBEEF7"/>
<path d="M746.567 380.715C743.759 380.715 741.545 379.365 741.293 376.557H743.705C743.921 378.033 745.091 378.753 746.567 378.753C747.971 378.753 749.069 378.123 749.069 377.061C749.069 376.107 748.169 375.639 746.675 375.315L745.379 375.027C742.877 374.469 741.635 373.335 741.635 371.463C741.635 369.195 743.777 367.629 746.387 367.629C749.051 367.629 751.049 369.033 751.301 371.481H748.889C748.709 370.311 747.773 369.609 746.387 369.609C745.091 369.609 744.047 370.275 744.047 371.265C744.047 372.111 744.659 372.489 746.009 372.777L747.485 373.083C749.933 373.587 751.517 374.703 751.517 376.809C751.517 379.419 749.141 380.715 746.567 380.715ZM762.093 377.763C761.517 379.815 759.519 380.697 757.593 380.697C754.947 380.697 752.733 378.861 752.733 375.765C752.733 372.813 755.019 370.959 757.503 370.959C760.023 370.959 762.183 372.669 762.183 375.981V376.485H755.073C755.253 377.961 756.333 378.879 757.665 378.879C758.529 378.879 759.393 378.591 759.825 377.763H762.093ZM757.467 372.759C756.243 372.759 755.217 373.533 755.055 374.847H759.807C759.699 373.587 758.763 372.759 757.467 372.759ZM766.121 375.477V380.499H763.817V371.175H766.067V372.597C766.265 372.273 766.499 371.967 766.805 371.715C767.363 371.283 767.885 371.103 768.695 371.103C768.947 371.103 769.181 371.121 769.343 371.157V373.335C768.893 373.299 768.677 373.299 768.425 373.299C767.417 373.299 766.121 373.659 766.121 375.477ZM779.086 371.175L775.63 380.499H773.182L769.726 371.175H772.138L774.46 377.997L776.8 371.175H779.086ZM780.121 369.699V367.539H782.461V369.699H780.121ZM780.139 380.499V371.175H782.443V380.499H780.139ZM788.863 380.697C786.199 380.697 784.093 378.771 784.093 375.783C784.093 372.921 786.271 370.959 788.899 370.959C791.167 370.959 793.075 372.381 793.327 374.523H791.041C790.789 373.515 789.907 372.903 788.881 372.903C787.459 372.903 786.469 374.091 786.469 375.783C786.469 377.511 787.495 378.753 788.881 378.753C789.889 378.753 790.753 378.177 791.041 377.115H793.327C792.985 379.365 791.041 380.697 788.863 380.697ZM803.644 377.763C803.068 379.815 801.07 380.697 799.144 380.697C796.498 380.697 794.284 378.861 794.284 375.765C794.284 372.813 796.57 370.959 799.054 370.959C801.574 370.959 803.734 372.669 803.734 375.981V376.485H796.624C796.804 377.961 797.884 378.879 799.216 378.879C800.08 378.879 800.944 378.591 801.376 377.763H803.644ZM799.018 372.759C797.794 372.759 796.768 373.533 796.606 374.847H801.358C801.25 373.587 800.314 372.759 799.018 372.759ZM818.258 378.519V380.499H808.916L809.06 379.563C809.348 377.673 810.428 376.341 813.02 374.811C815 373.659 815.9 372.975 815.9 371.751C815.9 370.635 815.144 369.717 813.866 369.717C812.552 369.717 811.742 370.617 811.652 371.841H809.24C809.384 369.357 811.256 367.647 813.884 367.647C816.512 367.647 818.33 369.321 818.33 371.733C818.33 373.821 817.16 374.955 814.496 376.431C812.948 377.295 812.21 377.853 811.94 378.519H818.258Z" fill="#424242"/>
<rect x="740.452" y="398.499" width="131" height="71" rx="10" fill="#5896CF"/>
<path d="M789.84 440.499L784.868 426.705V440.499H782.756V425.099H786.408L791.028 438.035L795.626 425.099H799.168V440.499H797.056V426.639L792.084 440.499H789.84ZM802.56 440.499V425.099H804.76V438.607H812.284V440.499H802.56ZM830.428 436.561H828.096V440.499H826.05V436.561H818.394V434.691L825.412 425.099H828.096V434.757H830.428V436.561ZM820.594 434.757H826.05V427.299L820.594 434.757Z" fill="#DEDEDE"/>
<rect x="417.275" width="165.45" height="85.1581" rx="10" fill="#3F3F60"/>
<path d="M479.918 48.8191C476.238 48.8191 472.998 46.0791 472.998 41.4991C472.998 36.9791 476.338 34.2791 479.918 34.2791C483.258 34.2791 485.838 36.2391 486.278 39.1991H483.538C483.118 37.6791 481.778 36.6791 479.918 36.6791C477.658 36.6791 475.878 38.5591 475.878 41.4991C475.878 44.4591 477.678 46.4391 479.918 46.4391C481.758 46.4391 483.058 45.4791 483.558 43.8991H486.298C485.778 46.9191 483.238 48.8191 479.918 48.8191ZM488.105 48.5791V34.1791H490.665V48.5791H488.105ZM493.139 36.5791V34.1791H495.739V36.5791H493.139ZM493.159 48.5791V38.2191H495.719V48.5791H493.159ZM507.953 45.5391C507.313 47.8191 505.093 48.7991 502.953 48.7991C500.013 48.7991 497.553 46.7591 497.553 43.3191C497.553 40.0391 500.093 37.9791 502.853 37.9791C505.653 37.9791 508.053 39.8791 508.053 43.5591V44.1191H500.153C500.353 45.7591 501.553 46.7791 503.033 46.7791C503.993 46.7791 504.953 46.4591 505.433 45.5391H507.953ZM502.813 39.9791C501.453 39.9791 500.313 40.8391 500.133 42.2991H505.413C505.293 40.8991 504.253 39.9791 502.813 39.9791ZM512.428 42.9591V48.5791H509.868V38.2191H512.388V39.4591C513.048 38.5191 514.168 37.9791 515.488 37.9791C517.768 37.9791 519.248 39.3991 519.248 42.1191V48.5791H516.688V42.4991C516.688 41.0791 515.928 40.1791 514.628 40.1791C513.448 40.1791 512.428 41.0791 512.428 42.9591ZM525.102 48.5991C523.342 48.5991 522.222 48.0791 522.222 45.7991V40.1791H520.482V38.2191H522.222V35.6991H524.762V38.2191H527.162V40.1791H524.762V45.2991C524.762 46.3991 525.102 46.5791 525.922 46.5791H527.162V48.5591C526.422 48.5991 525.982 48.5991 525.102 48.5991Z" fill="#DEDEDE"/>
<rect x="58.3936" y="624.088" width="864.964" height="197.08" rx="10" fill="#EBEEF7"/>
<path d="M444.144 789.856L440.264 777.996V789.856H437.644V775.856H442.084L445.544 786.716L449.024 775.856H453.344V789.856H450.724V777.876L446.824 789.856H444.144ZM456.136 789.856V775.856H458.896V787.536H465.376V789.856H456.136ZM478.049 790.096C474.369 790.096 471.129 787.356 471.129 782.776C471.129 778.256 474.469 775.556 478.049 775.556C481.389 775.556 483.969 777.516 484.409 780.476H481.669C481.249 778.956 479.909 777.956 478.049 777.956C475.789 777.956 474.009 779.836 474.009 782.776C474.009 785.736 475.809 787.716 478.049 787.716C479.889 787.716 481.189 786.756 481.689 785.176H484.429C483.909 788.196 481.369 790.096 478.049 790.096ZM491.055 790.076C488.015 790.076 485.595 787.976 485.595 784.616C485.595 781.356 488.055 779.256 491.055 779.256C494.075 779.256 496.495 781.316 496.495 784.616C496.495 787.936 494.055 790.076 491.055 790.076ZM491.055 787.916C492.715 787.916 493.855 786.596 493.855 784.616C493.855 782.736 492.715 781.416 491.055 781.416C489.355 781.416 488.235 782.716 488.235 784.616C488.235 786.576 489.375 787.916 491.055 787.916ZM500.88 784.096V789.856H498.32V779.496H500.82V780.716C501.44 779.776 502.5 779.256 503.86 779.256C505.08 779.256 506.3 779.776 506.96 780.976C507.66 779.856 508.9 779.256 510.34 779.256C512.36 779.256 514.14 780.356 514.14 783.276V789.856H511.56V783.696C511.56 782.196 510.72 781.456 509.62 781.456C508.52 781.456 507.5 782.356 507.5 784.096V789.856H504.94V783.696C504.94 782.196 504.1 781.456 503 781.456C501.9 781.456 500.88 782.336 500.88 784.096ZM522.18 790.076C520.72 790.076 519.64 789.456 519.04 788.456V793.656H516.48V779.496H519V780.896C519.58 779.916 520.66 779.256 522.2 779.256C524.8 779.256 526.98 781.116 526.98 784.596C526.98 788.156 524.76 790.076 522.18 790.076ZM521.68 787.956C523.18 787.956 524.34 786.736 524.34 784.596C524.34 782.496 523.18 781.376 521.68 781.376C520.12 781.376 519 782.596 519 784.596C519 786.716 520.18 787.956 521.68 787.956ZM533.658 790.076C530.618 790.076 528.198 787.976 528.198 784.616C528.198 781.356 530.658 779.256 533.658 779.256C536.678 779.256 539.098 781.316 539.098 784.616C539.098 787.936 536.658 790.076 533.658 790.076ZM533.658 787.916C535.318 787.916 536.458 786.596 536.458 784.616C536.458 782.736 535.318 781.416 533.658 781.416C531.958 781.416 530.838 782.716 530.838 784.616C530.838 786.576 531.978 787.916 533.658 787.916ZM543.483 784.236V789.856H540.923V779.496H543.443V780.736C544.103 779.796 545.223 779.256 546.543 779.256C548.823 779.256 550.303 780.676 550.303 783.396V789.856H547.743V783.776C547.743 782.356 546.983 781.456 545.683 781.456C544.503 781.456 543.483 782.356 543.483 784.236ZM562.397 786.816C561.757 789.096 559.537 790.076 557.397 790.076C554.457 790.076 551.997 788.036 551.997 784.596C551.997 781.316 554.537 779.256 557.297 779.256C560.097 779.256 562.497 781.156 562.497 784.836V785.396H554.597C554.797 787.036 555.997 788.056 557.477 788.056C558.437 788.056 559.397 787.736 559.877 786.816H562.397ZM557.257 781.256C555.897 781.256 554.757 782.116 554.577 783.576H559.857C559.737 782.176 558.697 781.256 557.257 781.256ZM566.872 784.236V789.856H564.312V779.496H566.832V780.736C567.492 779.796 568.612 779.256 569.932 779.256C572.212 779.256 573.692 780.676 573.692 783.396V789.856H571.132V783.776C571.132 782.356 570.372 781.456 569.072 781.456C567.892 781.456 566.872 782.356 566.872 784.236ZM579.546 789.876C577.786 789.876 576.666 789.356 576.666 787.076V781.456H574.926V779.496H576.666V776.976H579.206V779.496H581.606V781.456H579.206V786.576C579.206 787.676 579.546 787.856 580.366 787.856H581.606V789.836C580.866 789.876 580.426 789.876 579.546 789.876ZM587.346 790.096C584.906 790.096 582.906 788.976 582.646 786.576H585.066C585.246 787.676 586.186 788.176 587.386 788.176C588.366 788.176 589.306 787.796 589.306 786.976C589.306 786.236 588.606 785.916 587.226 785.676L586.186 785.496C584.106 785.136 582.846 784.176 582.846 782.556C582.846 780.476 584.746 779.236 587.086 779.236C589.346 779.236 591.246 780.396 591.506 782.476H589.126C588.886 781.596 588.126 781.156 587.026 781.156C586.026 781.156 585.266 781.616 585.266 782.316C585.266 782.976 585.846 783.236 587.026 783.436L588.066 783.616C590.346 784.016 591.766 784.916 591.766 786.716C591.766 788.916 589.666 790.096 587.346 790.096Z" fill="#424242"/>
<rect x="163.017" y="661.8" width="126" height="71" rx="10" fill="#58CF9D"/>
<path d="M212.031 703.8L207.059 690.006V703.8H204.947V688.4H208.599L213.219 701.336L217.817 688.4H221.359V703.8H219.247V689.94L214.275 703.8H212.031ZM224.751 703.8V688.4H226.951V701.908H234.475V703.8H224.751ZM246.878 688.4V703.8H244.722V691.062L240.828 693.57V691.392L245.184 688.4H246.878Z" fill="#DEDEDE"/>
<rect x="309.017" y="661.8" width="130" height="71" rx="10" fill="#5D5EE6"/>
<path d="M358.033 703.8L353.061 690.006V703.8H350.949V688.4H354.601L359.221 701.336L363.819 688.4H367.361V703.8H365.249V689.94L360.277 703.8H358.033ZM370.753 703.8V688.4H372.953V701.908H380.477V703.8H370.753ZM397.742 701.952V703.8H386.83L387.006 702.876C387.402 700.742 388.612 699.158 391.736 697.244C394.31 695.704 395.542 694.67 395.542 692.954C395.542 691.326 394.442 690.006 392.572 690.006C390.724 690.006 389.536 691.26 389.426 692.998H387.248C387.402 690.072 389.58 688.092 392.594 688.092C395.63 688.092 397.742 690.072 397.742 692.932C397.742 695.418 396.356 696.848 392.968 698.806C390.922 700.016 389.888 700.918 389.514 701.952H397.742Z" fill="#DEDEDE"/>
<rect x="459.017" y="661.8" width="130" height="71" rx="10" fill="#FF7777"/>
<path d="M507.915 703.8L502.943 690.006V703.8H500.831V688.4H504.483L509.103 701.336L513.701 688.4H517.243V703.8H515.131V689.94L510.159 703.8H507.915ZM520.635 703.8V688.4H522.835V701.908H530.359V703.8H520.635ZM542.233 704.064C539.131 704.064 536.931 702.26 536.645 699.378H538.823C538.999 700.962 540.143 702.238 542.233 702.238C544.323 702.238 545.621 701.116 545.621 699.488C545.621 697.662 544.191 696.716 542.079 696.716C541.595 696.716 541.067 696.738 540.517 696.738V694.89C540.957 694.912 541.595 694.934 542.079 694.934C543.883 694.934 545.445 694.076 545.445 692.36C545.445 690.908 544.191 689.896 542.321 689.896C540.385 689.896 539.263 691.04 539.087 692.47H536.931C537.239 689.808 539.329 688.092 542.321 688.092C545.291 688.092 547.667 689.61 547.667 692.316C547.667 694.296 546.281 695.44 544.609 695.748V695.792C546.457 696.034 547.865 697.376 547.865 699.532C547.865 702.37 545.313 704.064 542.233 704.064Z" fill="#DEDEDE"/>
<rect x="609.017" y="661.8" width="131" height="71" rx="10" fill="#5896CF"/>
<path d="M658.405 703.8L653.433 690.006V703.8H651.321V688.4H654.973L659.593 701.336L664.191 688.4H667.733V703.8H665.621V689.94L660.649 703.8H658.405ZM671.124 703.8V688.4H673.324V701.908H680.848V703.8H671.124ZM698.993 699.862H696.661V703.8H694.615V699.862H686.959V697.992L693.977 688.4H696.661V698.058H698.993V699.862ZM689.159 698.058H694.615V690.6L689.159 698.058Z" fill="#DEDEDE"/>
<path d="M811.988 224.022C812.758 223.717 813.135 222.845 812.83 222.075L807.858 209.524C807.553 208.754 806.682 208.377 805.911 208.682C805.141 208.987 804.764 209.859 805.069 210.629L809.489 221.786L798.332 226.205C797.562 226.51 797.185 227.382 797.49 228.152C797.795 228.922 798.667 229.299 799.437 228.994L811.988 224.022ZM504.271 91.401L506.593 92.4056L507.784 89.6521L505.462 88.6476L504.271 91.401ZM511.238 94.4147L515.883 96.4239L517.074 93.6704L512.429 91.6613L511.238 94.4147ZM520.528 98.433L525.173 100.442L526.364 97.6887L521.719 95.6796L520.528 98.433ZM529.818 102.451L534.463 104.46L535.654 101.707L531.009 99.6978L529.818 102.451ZM539.108 106.47L543.753 108.479L544.944 105.725L540.299 103.716L539.108 106.47ZM548.398 110.488L553.043 112.497L554.234 109.744L549.589 107.734L548.398 110.488ZM557.688 114.506L562.333 116.515L563.524 113.762L558.879 111.753L557.688 114.506ZM566.978 118.524L571.623 120.534L572.814 117.78L568.169 115.771L566.978 118.524ZM576.268 122.543L580.913 124.552L582.104 121.798L577.459 119.789L576.268 122.543ZM585.558 126.561L590.203 128.57L591.394 125.817L586.749 123.808L585.558 126.561ZM594.848 130.579L599.493 132.588L600.684 129.835L596.039 127.826L594.848 130.579ZM604.138 134.598L608.783 136.607L609.974 133.853L605.329 131.844L604.138 134.598ZM613.428 138.616L618.073 140.625L619.264 137.872L614.619 135.862L613.428 138.616ZM622.718 142.634L627.363 144.643L628.554 141.89L623.909 139.881L622.718 142.634ZM632.008 146.652L636.653 148.662L637.844 145.908L633.199 143.899L632.008 146.652ZM641.298 150.671L645.943 152.68L647.134 149.926L642.489 147.917L641.298 150.671ZM650.588 154.689L655.233 156.698L656.424 153.945L651.779 151.936L650.588 154.689ZM659.878 158.707L664.523 160.716L665.714 157.963L661.069 155.954L659.878 158.707ZM669.168 162.726L673.813 164.735L675.004 161.981L670.359 159.972L669.168 162.726ZM678.458 166.744L683.103 168.753L684.294 166L679.649 163.99L678.458 166.744ZM687.748 170.762L692.393 172.771L693.584 170.018L688.939 168.009L687.748 170.762ZM697.038 174.78L701.683 176.79L702.874 174.036L698.229 172.027L697.038 174.78ZM706.328 178.799L710.973 180.808L712.164 178.054L707.519 176.045L706.328 178.799ZM715.618 182.817L720.263 184.826L721.454 182.073L716.809 180.064L715.618 182.817ZM724.908 186.835L729.553 188.844L730.744 186.091L726.099 184.082L724.908 186.835ZM734.198 190.854L738.843 192.863L740.034 190.109L735.389 188.1L734.198 190.854ZM743.488 194.872L748.133 196.881L749.324 194.128L744.679 192.118L743.488 194.872ZM752.778 198.89L757.423 200.899L758.614 198.146L753.969 196.137L752.778 198.89ZM762.068 202.908L766.713 204.918L767.904 202.164L763.259 200.155L762.068 202.908ZM771.358 206.927L776.003 208.936L777.194 206.182L772.549 204.173L771.358 206.927ZM780.648 210.945L785.292 212.954L786.483 210.201L781.838 208.191L780.648 210.945ZM789.937 214.963L794.582 216.972L795.773 214.219L791.128 212.21L789.937 214.963ZM799.227 218.982L803.872 220.991L805.063 218.237L800.418 216.228L799.227 218.982ZM808.517 223L810.84 224.004L812.031 221.251L809.708 220.246L808.517 223Z" fill="#424242"/>
<path d="M344.613 222.496C344.541 223.322 345.151 224.049 345.976 224.122L359.424 225.304C360.25 225.376 360.977 224.766 361.05 223.941C361.122 223.115 360.512 222.388 359.687 222.315L347.733 221.265L348.783 209.311C348.856 208.486 348.246 207.758 347.42 207.685C346.595 207.613 345.867 208.223 345.795 209.048L344.613 222.496ZM347.071 223.777L348.954 222.199L347.026 219.9L345.144 221.478L347.071 223.777ZM352.719 219.041L356.485 215.884L354.557 213.585L350.792 216.742L352.719 219.041ZM360.25 212.727L364.016 209.57L362.088 207.271L358.323 210.428L360.25 212.727ZM367.781 206.412L371.547 203.255L369.619 200.956L365.854 204.114L367.781 206.412ZM375.312 200.098L379.078 196.941L377.15 194.642L373.385 197.799L375.312 200.098ZM382.843 193.783L386.609 190.626L384.681 188.327L380.916 191.485L382.843 193.783ZM390.374 187.469L394.14 184.312L392.212 182.013L388.447 185.17L390.374 187.469ZM397.905 181.155L401.671 177.997L399.743 175.699L395.978 178.856L397.905 181.155ZM405.436 174.84L409.202 171.683L407.274 169.384L403.509 172.541L405.436 174.84ZM412.967 168.526L416.733 165.368L414.805 163.07L411.04 166.227L412.967 168.526ZM420.498 162.211L424.264 159.054L422.336 156.755L418.571 159.912L420.498 162.211ZM428.029 155.897L431.795 152.74L429.867 150.441L426.102 153.598L428.029 155.897ZM435.56 149.582L439.326 146.425L437.398 144.126L433.633 147.283L435.56 149.582ZM443.091 143.268L446.857 140.111L444.929 137.812L441.164 140.969L443.091 143.268ZM450.622 136.953L454.388 133.796L452.46 131.497L448.695 134.655L450.622 136.953ZM458.153 130.639L461.919 127.482L459.991 125.183L456.226 128.34L458.153 130.639ZM465.684 124.325L469.45 121.167L467.522 118.869L463.757 122.026L465.684 124.325ZM473.215 118.01L476.981 114.853L475.053 112.554L471.288 115.711L473.215 118.01ZM480.746 111.696L484.512 108.538L482.584 106.24L478.819 109.397L480.746 111.696ZM488.277 105.381L492.043 102.224L490.115 99.9252L486.35 103.082L488.277 105.381ZM495.808 99.0668L499.574 95.9096L497.646 93.6107L493.881 96.768L495.808 99.0668ZM503.339 92.7524L505.222 91.1737L503.295 88.8749L501.412 90.4535L503.339 92.7524Z" fill="#424242"/>
<path d="M167.883 502.433L239.659 650.852" stroke="#424242" stroke-width="3" stroke-dasharray="5 5"/>
<path d="M336.983 502.433L408.76 650.852" stroke="#424242" stroke-width="3" stroke-dasharray="5 5"/>
<path d="M530.414 502.433L602.19 650.852" stroke="#424242" stroke-width="3" stroke-dasharray="5 5"/>
<path d="M826.034 506.083L785.888 650.852" stroke="#424242" stroke-width="3" stroke-dasharray="5 5"/>
<rect width="90.9563" height="90.9563" rx="10" transform="matrix(0.766044 -0.642788 0.788534 0.614991 254.258 281.093)" fill="#3F3F60"/>
<path d="M322.181 285.868C318.721 285.868 316.321 283.788 316.321 280.048V271.628H319.081V279.908C319.081 282.188 320.341 283.468 322.201 283.468C324.081 283.468 325.301 282.208 325.301 279.928V271.628H328.061V280.028C328.061 283.748 325.621 285.868 322.181 285.868ZM330.695 285.628V271.628H333.455V285.628H330.695Z" fill="#DEDEDE"/>
<rect width="90.9563" height="90.9563" rx="10" transform="matrix(0.766044 -0.642788 0.788534 0.614991 732.36 281.093)" fill="#3F3F60"/>
<path d="M798.655 285.628L797.455 282.368H791.435L790.235 285.628H787.455L792.935 271.628H796.095L801.555 285.628H798.655ZM792.275 280.108H796.615L794.455 274.268L792.275 280.108ZM802.952 285.628V271.628H808.612C811.972 271.628 813.732 273.428 813.732 276.108C813.732 278.848 811.912 280.628 808.592 280.628H805.692V285.628H802.952ZM805.692 278.368H808.312C810.052 278.368 810.952 277.488 810.952 276.128C810.952 274.788 810.032 273.888 808.312 273.888H805.692V278.368ZM815.506 285.628V271.628H818.266V285.628H815.506Z" fill="#DEDEDE"/>
<path d="M759.678 894.998H760.899L764.379 891.537L764.55 890.068C762.557 888.318 760.147 887.102 757.55 886.536C754.953 885.97 752.254 886.071 749.707 886.831C747.16 887.59 744.85 888.983 742.995 890.877C741.14 892.772 739.801 895.105 739.104 897.657C739.492 897.499 739.922 897.473 740.325 897.584L747.285 896.443C747.285 896.443 747.639 895.86 747.822 895.896C749.314 894.268 751.374 893.267 753.583 893.1C755.792 892.933 757.981 893.612 759.703 894.998H759.678Z" fill="#EA4335"/>
<path d="M769.336 897.657C768.536 894.728 766.894 892.094 764.611 890.08L759.727 894.937C760.745 895.764 761.561 896.81 762.113 897.997C762.665 899.183 762.939 900.479 762.914 901.786V902.648C763.485 902.648 764.05 902.76 764.577 902.977C765.105 903.194 765.584 903.513 765.988 903.914C766.391 904.315 766.711 904.792 766.93 905.316C767.148 905.841 767.261 906.403 767.261 906.971C767.261 907.538 767.148 908.1 766.93 908.625C766.711 909.149 766.391 909.626 765.988 910.027C765.584 910.429 765.105 910.747 764.577 910.964C764.05 911.182 763.485 911.294 762.914 911.294H754.22L753.354 912.168V917.353L754.22 918.215H762.914C765.342 918.234 767.711 917.475 769.671 916.051C771.632 914.627 773.079 912.613 773.799 910.307C774.52 908.002 774.474 905.527 773.671 903.248C772.867 900.97 771.347 899.01 769.336 897.657Z" fill="#4285F4"/>
<path d="M745.515 918.166H754.208V911.245H745.515C744.895 911.245 744.283 911.112 743.72 910.856L742.499 911.233L738.995 914.694L738.689 915.908C740.655 917.384 743.052 918.177 745.515 918.166Z" fill="#34A853"/>
<path d="M745.515 895.714C743.16 895.728 740.867 896.474 738.958 897.846C737.05 899.219 735.619 901.15 734.868 903.37C734.116 905.59 734.08 907.988 734.765 910.23C735.451 912.471 736.823 914.443 738.69 915.871L743.733 910.856C743.092 910.569 742.531 910.13 742.098 909.579C741.665 909.028 741.372 908.381 741.246 907.693C741.12 907.005 741.163 906.297 741.373 905.629C741.582 904.962 741.951 904.355 742.449 903.86C742.946 903.366 743.556 902.999 744.228 902.79C744.899 902.582 745.611 902.539 746.303 902.664C746.994 902.79 747.645 903.081 748.199 903.511C748.753 903.942 749.194 904.5 749.483 905.137L754.526 900.122C753.468 898.746 752.104 897.632 750.54 896.867C748.977 896.103 747.257 895.708 745.515 895.714Z" fill="#FBBC05"/>
<path d="M797.456 913.334C795.959 913.353 794.474 913.071 793.09 912.505C791.705 911.94 790.449 911.102 789.398 910.043C788.313 909.028 787.452 907.801 786.87 906.438C786.288 905.075 785.997 903.606 786.015 902.126C785.998 900.645 786.289 899.177 786.871 897.814C787.453 896.451 788.314 895.224 789.398 894.209C790.444 893.138 791.697 892.289 793.082 891.713C794.467 891.137 795.955 890.846 797.456 890.857C798.887 890.838 800.306 891.102 801.633 891.634C802.96 892.165 804.167 892.954 805.185 893.954L803.012 896.151C801.523 894.721 799.526 893.935 797.456 893.966C796.383 893.953 795.318 894.162 794.33 894.58C793.342 894.998 792.452 895.616 791.718 896.394C790.954 897.148 790.351 898.047 789.946 899.039C789.541 900.03 789.342 901.092 789.361 902.162C789.352 903.22 789.556 904.268 789.961 905.246C790.365 906.225 790.963 907.112 791.718 907.857C793.23 909.356 795.27 910.208 797.405 910.233C799.539 910.258 801.599 909.454 803.146 907.991C804.104 906.948 804.691 905.621 804.819 904.214H797.493V901.106H807.859C807.961 901.732 808.002 902.366 807.981 903C808.046 904.312 807.842 905.623 807.382 906.855C806.923 908.086 806.217 909.212 805.307 910.164C804.296 911.211 803.074 912.035 801.721 912.581C800.369 913.127 798.915 913.383 797.456 913.334ZM821.559 911.269C820.167 912.596 818.315 913.336 816.388 913.336C814.461 913.336 812.608 912.596 811.217 911.269C810.524 910.602 809.979 909.798 809.615 908.91C809.252 908.021 809.078 907.067 809.104 906.109C809.079 905.15 809.253 904.196 809.616 903.308C809.98 902.42 810.525 901.616 811.217 900.948C812.609 899.624 814.462 898.886 816.388 898.886C818.314 898.886 820.166 899.624 821.559 900.948C822.25 901.616 822.795 902.42 823.159 903.308C823.523 904.196 823.697 905.15 823.671 906.109C823.696 907.068 823.52 908.023 823.154 908.911C822.789 909.8 822.241 910.603 821.546 911.269H821.559ZM813.5 909.241C813.87 909.634 814.317 909.948 814.814 910.162C815.311 910.376 815.846 910.487 816.388 910.487C816.929 910.487 817.465 910.376 817.961 910.162C818.458 909.948 818.905 909.634 819.275 909.241C819.679 908.827 819.995 908.336 820.204 907.798C820.414 907.26 820.513 906.685 820.496 906.109C820.514 905.53 820.416 904.953 820.206 904.413C819.996 903.873 819.68 903.38 819.275 902.964C818.9 902.575 818.45 902.265 817.952 902.054C817.454 901.842 816.917 901.733 816.376 901.733C815.834 901.733 815.297 901.842 814.799 902.054C814.301 902.265 813.851 902.575 813.476 902.964C813.071 903.38 812.755 903.873 812.545 904.413C812.335 904.953 812.237 905.53 812.255 906.109C812.239 906.686 812.34 907.261 812.552 907.799C812.764 908.337 813.082 908.828 813.488 909.241H813.5ZM837.456 911.269C836.065 912.596 834.212 913.336 832.285 913.336C830.358 913.336 828.505 912.596 827.114 911.269C826.422 910.602 825.876 909.798 825.513 908.91C825.149 908.021 824.975 907.067 825.002 906.109C824.976 905.15 825.15 904.196 825.514 903.308C825.877 902.42 826.422 901.616 827.114 900.948C828.505 899.622 830.358 898.881 832.285 898.881C834.212 898.881 836.065 899.622 837.456 900.948C838.148 901.616 838.693 902.42 839.056 903.308C839.42 904.196 839.594 905.15 839.568 906.109C839.595 907.067 839.421 908.021 839.057 908.91C838.694 909.798 838.148 910.602 837.456 911.269ZM829.397 909.241C829.767 909.634 830.215 909.948 830.711 910.162C831.208 910.376 831.744 910.487 832.285 910.487C832.826 910.487 833.362 910.376 833.859 910.162C834.355 909.948 834.803 909.634 835.173 909.241C835.576 908.827 835.892 908.336 836.102 907.798C836.312 907.26 836.411 906.685 836.394 906.109C836.412 905.53 836.313 904.953 836.103 904.413C835.894 903.873 835.577 903.38 835.173 902.964C834.798 902.575 834.348 902.265 833.849 902.054C833.351 901.842 832.815 901.733 832.273 901.733C831.731 901.733 831.195 901.842 830.696 902.054C830.198 902.265 829.748 902.575 829.373 902.964C828.969 903.38 828.652 903.873 828.442 904.413C828.233 904.953 828.134 905.53 828.152 906.109C828.137 906.686 828.238 907.261 828.45 907.799C828.661 908.337 828.98 908.828 829.385 909.241H829.397ZM847.908 919.818C846.444 919.864 845.009 919.41 843.842 918.531C842.805 917.756 841.989 916.727 841.473 915.544L844.257 914.39C844.56 915.097 845.034 915.718 845.637 916.199C846.282 916.717 847.092 916.988 847.92 916.964C848.445 916.996 848.971 916.915 849.462 916.726C849.953 916.538 850.397 916.246 850.765 915.871C851.5 914.989 851.864 913.857 851.778 912.714V911.67H851.668C851.203 912.22 850.615 912.654 849.952 912.938C849.289 913.223 848.568 913.35 847.847 913.309C846.93 913.312 846.023 913.126 845.182 912.762C844.341 912.398 843.586 911.865 842.963 911.196C842.287 910.533 841.753 909.74 841.394 908.865C841.035 907.991 840.859 907.053 840.875 906.109C840.858 905.159 841.034 904.215 841.393 903.335C841.752 902.454 842.286 901.655 842.963 900.984C843.584 900.313 844.339 899.777 845.18 899.411C846.021 899.045 846.929 898.857 847.847 898.859C848.623 898.858 849.391 899.028 850.093 899.357C850.701 899.621 851.243 900.015 851.681 900.511H851.79V899.357H854.819V912.289C854.898 913.312 854.767 914.341 854.433 915.312C854.1 916.283 853.57 917.175 852.877 917.936C852.217 918.564 851.437 919.054 850.584 919.377C849.73 919.7 848.82 919.85 847.908 919.818ZM848.127 910.492C848.649 910.504 849.166 910.401 849.643 910.191C850.12 909.981 850.545 909.669 850.887 909.278C851.64 908.419 852.037 907.308 851.998 906.169C852.043 905.011 851.646 903.879 850.887 903C850.545 902.608 850.121 902.296 849.644 902.086C849.167 901.876 848.649 901.773 848.127 901.786C847.592 901.775 847.06 901.877 846.567 902.087C846.075 902.296 845.633 902.607 845.27 903C844.463 903.847 844.024 904.978 844.049 906.145C844.037 906.718 844.138 907.287 844.348 907.82C844.557 908.354 844.871 908.841 845.27 909.254C845.631 909.65 846.072 909.965 846.565 910.179C847.057 910.392 847.59 910.499 848.127 910.492ZM860.203 891.671V912.896H857.016V891.671H860.203ZM868.945 913.334C867.991 913.358 867.042 913.186 866.157 912.829C865.273 912.472 864.472 911.936 863.805 911.257C863.128 910.583 862.596 909.779 862.242 908.894C861.887 908.009 861.717 907.061 861.742 906.109C861.705 905.154 861.863 904.202 862.205 903.309C862.547 902.416 863.066 901.6 863.732 900.911C864.359 900.254 865.117 899.734 865.958 899.385C866.799 899.035 867.705 898.865 868.616 898.884C869.454 898.875 870.285 899.036 871.058 899.357C871.754 899.637 872.389 900.049 872.926 900.571C873.387 901.014 873.797 901.507 874.147 902.041C874.43 902.491 874.671 902.967 874.867 903.461L875.197 904.287L865.429 908.282C865.724 908.957 866.219 909.527 866.846 909.918C867.474 910.308 868.206 910.5 868.945 910.468C869.665 910.47 870.373 910.286 871 909.935C871.627 909.584 872.152 909.077 872.523 908.464L874.965 910.104C874.342 910.99 873.544 911.742 872.621 912.314C871.522 913.004 870.244 913.358 868.945 913.334ZM864.867 905.89L871.363 903.206C871.163 902.733 870.805 902.343 870.35 902.101C869.84 901.815 869.262 901.668 868.677 901.676C867.683 901.702 866.74 902.117 866.052 902.83C865.64 903.222 865.32 903.699 865.115 904.228C864.911 904.757 864.826 905.325 864.867 905.89Z" fill="#5F6368"/>
<path d="M891.888 913.334C890.533 913.357 889.187 913.108 887.931 912.601C886.675 912.094 885.535 911.339 884.579 910.383C883.623 909.427 882.872 908.289 882.37 907.037C881.867 905.785 881.625 904.445 881.656 903.097C881.625 901.749 881.867 900.409 882.37 899.157C882.872 897.905 883.623 896.767 884.579 895.811C885.535 894.855 886.675 894.101 887.931 893.594C889.187 893.087 890.533 892.837 891.888 892.861C893.26 892.818 894.623 893.084 895.877 893.639C897.131 894.194 898.242 895.024 899.128 896.066L897.37 897.766C896.72 896.953 895.885 896.303 894.935 895.871C893.984 895.438 892.945 895.235 891.9 895.277C890.895 895.255 889.895 895.435 888.961 895.806C888.028 896.177 887.179 896.733 886.467 897.439C885.726 898.179 885.147 899.064 884.767 900.038C884.387 901.012 884.213 902.053 884.257 903.097C884.213 904.141 884.387 905.182 884.767 906.156C885.147 907.13 885.726 908.015 886.467 908.756C887.179 909.462 888.028 910.017 888.961 910.388C889.895 910.76 890.895 910.94 891.9 910.917C893.067 910.93 894.222 910.681 895.279 910.19C896.336 909.698 897.268 908.975 898.005 908.076L899.763 909.824C898.843 910.919 897.687 911.795 896.381 912.386C894.974 913.033 893.438 913.356 891.888 913.334Z" fill="#5F6368"/>
<path d="M904.488 912.896H901.961V893.286H904.488V912.896Z" fill="#5F6368"/>
<path d="M908.616 901.094C909.94 899.785 911.731 899.051 913.598 899.051C915.464 899.051 917.255 899.785 918.579 901.094C919.227 901.774 919.733 902.574 920.068 903.449C920.404 904.325 920.561 905.257 920.533 906.194C920.561 907.13 920.404 908.062 920.068 908.938C919.733 909.813 919.227 910.613 918.579 911.294C917.255 912.602 915.464 913.336 913.598 913.336C911.731 913.336 909.94 912.602 908.616 911.294C907.968 910.613 907.462 909.813 907.127 908.938C906.792 908.062 906.634 907.13 906.662 906.194C906.634 905.257 906.792 904.325 907.127 903.449C907.462 902.574 907.968 901.774 908.616 901.094ZM910.496 909.715C910.895 910.133 911.374 910.467 911.907 910.695C912.439 910.923 913.012 911.04 913.592 911.04C914.171 911.04 914.744 910.923 915.277 910.695C915.809 910.467 916.289 910.133 916.687 909.715C917.129 909.244 917.472 908.689 917.696 908.085C917.92 907.48 918.021 906.837 917.993 906.194C918.021 905.55 917.92 904.907 917.696 904.302C917.472 903.698 917.129 903.144 916.687 902.672C916.289 902.254 915.809 901.92 915.277 901.692C914.744 901.464 914.171 901.347 913.592 901.347C913.012 901.347 912.439 901.464 911.907 901.692C911.374 901.92 910.895 902.254 910.496 902.672C910.055 903.144 909.712 903.698 909.487 904.302C909.263 904.907 909.162 905.55 909.19 906.194C909.165 906.836 909.269 907.477 909.495 908.08C909.722 908.682 910.066 909.234 910.509 909.703L910.496 909.715Z" fill="#5F6368"/>
<path d="M934.538 912.896H932.096V911.039H932.023C931.588 911.744 930.973 912.322 930.24 912.714C929.479 913.153 928.616 913.383 927.737 913.382C927.023 913.431 926.308 913.318 925.644 913.053C924.98 912.788 924.385 912.378 923.903 911.852C922.978 910.689 922.513 909.229 922.596 907.748V899.491H925.124V907.286C925.124 909.788 926.235 911.039 928.457 911.039C928.951 911.054 929.441 910.952 929.887 910.74C930.333 910.529 930.722 910.215 931.021 909.824C931.676 908.999 932.026 907.974 932.01 906.922V899.491H934.538V912.896Z" fill="#5F6368"/>
<path d="M943.121 913.334C942.264 913.336 941.416 913.154 940.636 912.8C939.856 912.446 939.163 911.928 938.603 911.281C937.337 909.891 936.659 908.069 936.711 906.194C936.659 904.319 937.337 902.496 938.603 901.106C939.163 900.459 939.856 899.941 940.636 899.587C941.416 899.233 942.264 899.051 943.121 899.054C944.081 899.039 945.03 899.264 945.88 899.709C946.627 900.083 947.26 900.649 947.712 901.349H947.822L947.712 899.491V893.286H950.239V912.896H947.797V911.039H947.687C947.235 911.738 946.603 912.304 945.856 912.678C945.013 913.119 944.073 913.345 943.121 913.334ZM943.536 911.039C944.107 911.047 944.674 910.934 945.198 910.708C945.722 910.482 946.192 910.148 946.576 909.727C947.435 908.755 947.874 907.485 947.797 906.194C947.874 904.902 947.435 903.632 946.576 902.66C946.19 902.237 945.718 901.9 945.193 901.668C944.667 901.437 944.099 901.318 943.524 901.318C942.949 901.318 942.381 901.437 941.855 901.668C941.329 901.9 940.858 902.237 940.471 902.66C940.045 903.138 939.717 903.695 939.508 904.3C939.298 904.904 939.211 905.543 939.25 906.181C939.211 906.819 939.298 907.459 939.508 908.063C939.717 908.668 940.045 909.225 940.471 909.703C940.856 910.131 941.329 910.472 941.858 910.702C942.386 910.933 942.959 911.047 943.536 911.039Z" fill="#5F6368"/>
</svg>
