<svg width="120" height="120" viewBox="0 0 120 120" fill="none" xmlns="http://www.w3.org/2000/svg">
<circle cx="60" cy="60" r="59" stroke="#829CF8" stroke-width="2"/>
<g clip-path="url(#clip0_670_1436)">
<path d="M87.4454 32.5542C72.2771 17.3855 47.7239 17.3831 32.5531 32.5542C17.3845 47.7225 17.3822 72.2755 32.5531 87.4463C47.7215 102.615 72.2747 102.617 87.4454 87.4463C102.614 72.278 102.616 47.725 87.4454 32.5542ZM94.1698 57.7169H82.8317V61.1418C82.8317 63.0302 81.2954 64.5666 79.4068 64.5666C77.5183 64.5666 75.982 63.0302 75.982 61.1418V57.7169H62.2827V48.5028C66.1503 47.9472 69.1323 44.6116 69.1323 40.5928C69.1323 36.574 66.1503 33.2385 62.2827 32.6828V25.8298C79.3516 26.9589 93.0406 40.6482 94.1698 57.7169ZM57.7161 25.8298V37.1679H61.1409C63.0294 37.1679 64.5657 38.7044 64.5657 40.5928C64.5657 42.4812 63.0294 44.0176 61.1409 44.0176H57.7161V57.7169H48.5019C47.9463 53.8495 44.6107 50.8673 40.5919 50.8673C36.5731 50.8673 33.2376 53.8495 32.6819 57.7169H25.829C26.9582 40.6482 40.6472 26.9589 57.7161 25.8298ZM25.829 62.2834H37.1672V58.8586C37.1672 56.9702 38.7035 55.4337 40.5921 55.4337C42.4806 55.4337 44.0169 56.9702 44.0169 58.8586V62.2834H57.7162V71.4976C53.8486 72.0531 50.8666 75.3888 50.8666 79.4076C50.8666 83.4263 53.8486 86.7618 57.7162 87.3176V94.1706C40.6472 93.0416 26.9582 79.3523 25.829 62.2834ZM62.2825 94.1707V82.8325H58.8577C56.9692 82.8325 55.4328 81.2961 55.4328 79.4077C55.4328 77.5193 56.9692 75.9829 58.8577 75.9829H62.2825V62.2835H71.4967C72.0523 66.151 75.3879 69.1332 79.4067 69.1332C83.4255 69.1332 86.7609 66.151 87.3167 62.2835H94.1697C93.0406 79.3523 79.3516 93.0416 62.2825 94.1707Z" fill="#829CF8"/>
<path d="M87.4454 32.5542C72.2771 17.3855 47.7239 17.3831 32.5531 32.5542C17.3845 47.7225 17.3822 72.2755 32.5531 87.4463C47.7215 102.615 72.2747 102.617 87.4454 87.4463C102.614 72.278 102.616 47.725 87.4454 32.5542ZM94.1698 57.7169H82.8317V61.1418C82.8317 63.0302 81.2954 64.5666 79.4068 64.5666C77.5183 64.5666 75.982 63.0302 75.982 61.1418V57.7169H62.2827V48.5028C66.1503 47.9472 69.1323 44.6116 69.1323 40.5928C69.1323 36.574 66.1503 33.2385 62.2827 32.6828V25.8298C79.3516 26.9589 93.0406 40.6482 94.1698 57.7169ZM57.7161 25.8298V37.1679H61.1409C63.0294 37.1679 64.5657 38.7044 64.5657 40.5928C64.5657 42.4812 63.0294 44.0176 61.1409 44.0176H57.7161V57.7169H48.5019C47.9463 53.8495 44.6107 50.8673 40.5919 50.8673C36.5731 50.8673 33.2376 53.8495 32.6819 57.7169H25.829C26.9582 40.6482 40.6472 26.9589 57.7161 25.8298ZM25.829 62.2834H37.1672V58.8586C37.1672 56.9702 38.7035 55.4337 40.5921 55.4337C42.4806 55.4337 44.0169 56.9702 44.0169 58.8586V62.2834H57.7162V71.4976C53.8486 72.0531 50.8666 75.3888 50.8666 79.4076C50.8666 83.4263 53.8486 86.7618 57.7162 87.3176V94.1706C40.6472 93.0416 26.9582 79.3523 25.829 62.2834ZM62.2825 94.1707V82.8325H58.8577C56.9692 82.8325 55.4328 81.2961 55.4328 79.4077C55.4328 77.5193 56.9692 75.9829 58.8577 75.9829H62.2825V62.2835H71.4967C72.0523 66.151 75.3879 69.1332 79.4067 69.1332C83.4255 69.1332 86.7609 66.151 87.3167 62.2835H94.1697C93.0406 79.3523 79.3516 93.0416 62.2825 94.1707Z" stroke="white"/>
</g>
<defs>
<clipPath id="clip0_670_1436">
<rect width="77.6471" height="77.6471" fill="white" transform="translate(21.1758 21.1768)"/>
</clipPath>
</defs>
</svg>
