<svg width="24" height="24" viewBox="0 0 24 24" fill="none" xmlns="http://www.w3.org/2000/svg">
<path d="M20.7273 24H3.27273C2.40475 24 1.57232 23.6552 0.95856 23.0414C0.344804 22.4277 0 21.5953 0 20.7273V3.27273C0 2.40475 0.344804 1.57232 0.95856 0.95856C1.57232 0.344804 2.40475 0 3.27273 0H9.81818C10.1075 0 10.385 0.114935 10.5896 0.31952C10.7942 0.524105 10.9091 0.801582 10.9091 1.09091C10.9091 1.38024 10.7942 1.65771 10.5896 1.8623C10.385 2.06688 10.1075 2.18182 9.81818 2.18182H3.27273C2.9834 2.18182 2.70592 2.29675 2.50134 2.50134C2.29675 2.70592 2.18182 2.9834 2.18182 3.27273V20.7273C2.18182 21.0166 2.29675 21.2941 2.50134 21.4987C2.70592 21.7032 2.9834 21.8182 3.27273 21.8182H20.7273C21.0166 21.8182 21.2941 21.7032 21.4987 21.4987C21.7032 21.2941 21.8182 21.0166 21.8182 20.7273V14.1818C21.8182 13.8925 21.9331 13.615 22.1377 13.4104C22.3423 13.2058 22.6198 13.0909 22.9091 13.0909C23.1984 13.0909 23.4759 13.2058 23.6805 13.4104C23.8851 13.615 24 13.8925 24 14.1818V20.7273C24 21.5953 23.6552 22.4277 23.0414 23.0414C22.4277 23.6552 21.5953 24 20.7273 24ZM9.81818 15.2727C9.67461 15.2736 9.53229 15.246 9.39937 15.1918C9.26646 15.1375 9.14557 15.0575 9.04364 14.9564C8.94139 14.8549 8.86023 14.7343 8.80485 14.6014C8.74946 14.4684 8.72095 14.3258 8.72095 14.1818C8.72095 14.0378 8.74946 13.8952 8.80485 13.7623C8.86023 13.6293 8.94139 13.5087 9.04364 13.4073L20.28 2.18182H16.3636C16.0743 2.18182 15.7968 2.06688 15.5922 1.8623C15.3877 1.65771 15.2727 1.38024 15.2727 1.09091C15.2727 0.801582 15.3877 0.524105 15.5922 0.31952C15.7968 0.114935 16.0743 0 16.3636 0H22.9091C23.1984 0 23.4759 0.114935 23.6805 0.31952C23.8851 0.524105 24 0.801582 24 1.09091V7.63636C24 7.92569 23.8851 8.20317 23.6805 8.40775C23.4759 8.61234 23.1984 8.72727 22.9091 8.72727C22.6198 8.72727 22.3423 8.61234 22.1377 8.40775C21.9331 8.20317 21.8182 7.92569 21.8182 7.63636V3.72L10.5927 14.9564C10.4908 15.0575 10.3699 15.1375 10.237 15.1918C10.1041 15.246 9.96175 15.2736 9.81818 15.2727Z" fill="#5048E5"/>
</svg>
