<svg width="14" height="14" viewBox="0 0 14 14" fill="none" xmlns="http://www.w3.org/2000/svg">
<path d="M12.0909 14H1.90909C1.40277 14 0.917184 13.7989 0.55916 13.4408C0.201136 13.0828 0 12.5972 0 12.0909V1.90909C0 1.40277 0.201136 0.917184 0.55916 0.55916C0.917184 0.201136 1.40277 0 1.90909 0H5.72727C5.89605 0 6.05791 0.0670452 6.17725 0.186387C6.29659 0.305728 6.36364 0.467589 6.36364 0.636364C6.36364 0.805138 6.29659 0.966999 6.17725 1.08634C6.05791 1.20568 5.89605 1.27273 5.72727 1.27273H1.90909C1.74032 1.27273 1.57846 1.33977 1.45911 1.45911C1.33977 1.57846 1.27273 1.74032 1.27273 1.90909V12.0909C1.27273 12.2597 1.33977 12.4215 1.45911 12.5409C1.57846 12.6602 1.74032 12.7273 1.90909 12.7273H12.0909C12.2597 12.7273 12.4215 12.6602 12.5409 12.5409C12.6602 12.4215 12.7273 12.2597 12.7273 12.0909V8.27273C12.7273 8.10395 12.7943 7.94209 12.9137 7.82275C13.033 7.70341 13.1949 7.63636 13.3636 7.63636C13.5324 7.63636 13.6943 7.70341 13.8136 7.82275C13.933 7.94209 14 8.10395 14 8.27273V12.0909C14 12.5972 13.7989 13.0828 13.4408 13.4408C13.0828 13.7989 12.5972 14 12.0909 14ZM5.72727 8.90909C5.64352 8.90957 5.5605 8.89352 5.48297 8.86185C5.40544 8.83019 5.33492 8.78352 5.27545 8.72455C5.21581 8.66539 5.16847 8.59501 5.13616 8.51746C5.10385 8.43991 5.08722 8.35673 5.08722 8.27273C5.08722 8.18872 5.10385 8.10554 5.13616 8.028C5.16847 7.95045 5.21581 7.88007 5.27545 7.82091L11.83 1.27273H9.54545C9.37668 1.27273 9.21482 1.20568 9.09548 1.08634C8.97614 0.966999 8.90909 0.805138 8.90909 0.636364C8.90909 0.467589 8.97614 0.305728 9.09548 0.186387C9.21482 0.0670452 9.37668 0 9.54545 0H13.3636C13.5324 0 13.6943 0.0670452 13.8136 0.186387C13.933 0.305728 14 0.467589 14 0.636364V4.45455C14 4.62332 13.933 4.78518 13.8136 4.90452C13.6943 5.02386 13.5324 5.09091 13.3636 5.09091C13.1949 5.09091 13.033 5.02386 12.9137 4.90452C12.7943 4.78518 12.7273 4.62332 12.7273 4.45455V2.17L6.17909 8.72455C6.11963 8.78352 6.04911 8.83019 5.97158 8.86185C5.89404 8.89352 5.81102 8.90957 5.72727 8.90909Z" fill="#5048E5"/>
</svg>
