<svg width="49" height="49" viewBox="0 0 49 49" fill="none" xmlns="http://www.w3.org/2000/svg">
<path fill-rule="evenodd" clip-rule="evenodd" d="M42.875 36.75C42.875 37.8776 41.9609 38.7917 40.8333 38.7917H8.16666C7.03905 38.7917 6.125 37.8776 6.125 36.75C6.125 35.6224 7.03905 34.7083 8.16666 34.7083H40.8333C41.9609 34.7083 42.875 35.6224 42.875 36.75ZM42.875 24.5C42.875 25.6276 41.9609 26.5417 40.8333 26.5417H20.4167C19.2891 26.5417 18.375 25.6276 18.375 24.5C18.375 23.3724 19.2891 22.4583 20.4167 22.4583H40.8333C41.9609 22.4583 42.875 23.3724 42.875 24.5ZM42.875 12.25C42.875 13.3776 41.9609 14.2917 40.8333 14.2917H30.625C29.4974 14.2917 28.5833 13.3776 28.5833 12.25C28.5833 11.1224 29.4974 10.2083 30.625 10.2083H40.8333C41.9609 10.2083 42.875 11.1224 42.875 12.25Z" fill="#5048E5"/>
</svg>
