<svg width="120" height="120" viewBox="0 0 120 120" fill="none" xmlns="http://www.w3.org/2000/svg">
<circle cx="60" cy="60" r="59" stroke="#829CF8" stroke-width="2"/>
<g clip-path="url(#clip0_670_1429)">
<path d="M84.4384 21.1768H46.127C41.8752 21.1768 38.4163 24.4423 38.4163 28.4562V30.8826H33.1169C30.2113 30.8826 27.8477 33.2463 27.8477 36.1519V93.5546C27.8477 96.4601 30.2113 98.8238 33.1169 98.8238H76.3112C79.2168 98.8238 81.5805 96.4601 81.5805 93.5546V89.1179H84.4384C88.69 89.1179 92.1491 85.8524 92.1491 81.8385V28.4562C92.1491 24.4423 88.69 21.1768 84.4384 21.1768ZM76.7275 93.5546C76.7275 93.7842 76.5409 93.9709 76.3112 93.9709H33.1169C32.8873 93.9709 32.7006 93.7842 32.7006 93.5546V36.1519C32.7006 35.9223 32.8873 35.7356 33.1169 35.7356H76.3112C76.5409 35.7356 76.7275 35.9223 76.7275 36.1519V93.5546ZM87.2962 81.8385C87.2962 83.1764 86.0141 84.265 84.4384 84.265H81.5805V36.1519C81.5805 33.2463 79.2168 30.8826 76.3112 30.8826H43.2692V28.4562C43.2692 27.1183 44.5513 26.0297 46.127 26.0297H84.4384C86.0141 26.0297 87.2962 27.1183 87.2962 28.4562V81.8385Z" fill="#829CF8"/>
<path d="M84.4384 21.1768H46.127C41.8752 21.1768 38.4163 24.4423 38.4163 28.4562V30.8826H33.1169C30.2113 30.8826 27.8477 33.2463 27.8477 36.1519V93.5546C27.8477 96.4601 30.2113 98.8238 33.1169 98.8238H76.3112C79.2168 98.8238 81.5805 96.4601 81.5805 93.5546V89.1179H84.4384C88.69 89.1179 92.1491 85.8524 92.1491 81.8385V28.4562C92.1491 24.4423 88.69 21.1768 84.4384 21.1768ZM76.7275 93.5546C76.7275 93.7842 76.5409 93.9709 76.3112 93.9709H33.1169C32.8873 93.9709 32.7006 93.7842 32.7006 93.5546V36.1519C32.7006 35.9223 32.8873 35.7356 33.1169 35.7356H76.3112C76.5409 35.7356 76.7275 35.9223 76.7275 36.1519V93.5546ZM87.2962 81.8385C87.2962 83.1764 86.0141 84.265 84.4384 84.265H81.5805V36.1519C81.5805 33.2463 79.2168 30.8826 76.3112 30.8826H43.2692V28.4562C43.2692 27.1183 44.5513 26.0297 46.127 26.0297H84.4384C86.0141 26.0297 87.2962 27.1183 87.2962 28.4562V81.8385Z" stroke="white"/>
<path d="M66.6713 53.934H43.6198C42.2798 53.934 41.1934 52.8475 41.1934 51.5075C41.1934 50.1675 42.2798 49.0811 43.6198 49.0811H66.6713C68.0113 49.0811 69.0978 50.1675 69.0978 51.5075C69.0978 52.8475 68.0113 53.934 66.6713 53.934Z" fill="#829CF8"/>
<path d="M66.6713 53.934H43.6198C42.2798 53.934 41.1934 52.8475 41.1934 51.5075C41.1934 50.1675 42.2798 49.0811 43.6198 49.0811H66.6713C68.0113 49.0811 69.0978 50.1675 69.0978 51.5075C69.0978 52.8475 68.0113 53.934 66.6713 53.934Z" stroke="white"/>
<path d="M66.6713 63.6401H43.6198C42.2798 63.6401 41.1934 62.5536 41.1934 61.2136C41.1934 59.8736 42.2798 58.7871 43.6198 58.7871H66.6713C68.0113 58.7871 69.0978 59.8736 69.0978 61.2136C69.0978 62.5536 68.0113 63.6401 66.6713 63.6401Z" fill="#829CF8"/>
<path d="M66.6713 63.6401H43.6198C42.2798 63.6401 41.1934 62.5536 41.1934 61.2136C41.1934 59.8736 42.2798 58.7871 43.6198 58.7871H66.6713C68.0113 58.7871 69.0978 59.8736 69.0978 61.2136C69.0978 62.5536 68.0113 63.6401 66.6713 63.6401Z" stroke="white"/>
<path d="M66.6713 73.3461H43.6198C42.2798 73.3461 41.1934 72.2597 41.1934 70.9196C41.1934 69.5796 42.2798 68.4932 43.6198 68.4932H66.6713C68.0113 68.4932 69.0978 69.5796 69.0978 70.9196C69.0978 72.2597 68.0113 73.3461 66.6713 73.3461Z" fill="#829CF8"/>
<path d="M66.6713 73.3461H43.6198C42.2798 73.3461 41.1934 72.2597 41.1934 70.9196C41.1934 69.5796 42.2798 68.4932 43.6198 68.4932H66.6713C68.0113 68.4932 69.0978 69.5796 69.0978 70.9196C69.0978 72.2597 68.0113 73.3461 66.6713 73.3461Z" stroke="white"/>
</g>
<defs>
<clipPath id="clip0_670_1429">
<rect width="77.6471" height="77.6471" fill="white" transform="translate(21.1758 21.1768)"/>
</clipPath>
</defs>
</svg>
