<svg width="50" height="50" viewBox="0 0 50 50" fill="none" xmlns="http://www.w3.org/2000/svg">
<path d="M15.9474 27.9689L8.43587 19.3704L15.9474 10.7719C16.5544 10.0763 16.4836 9.01995 15.788 8.41239C15.0924 7.80539 14.0366 7.87675 13.4285 8.57181L4.95602 18.2706C4.40528 18.9004 4.40528 19.8408 4.95602 20.4707L13.4286 30.1695C13.7596 30.5474 14.2229 30.7414 14.6888 30.7414C15.079 30.7414 15.4708 30.6054 15.788 30.3284C16.4837 29.7208 16.555 28.6645 15.9474 27.9689Z" fill="#829CF8"/>
<path d="M33.305 17.6973H6.21517C5.29157 17.6973 4.54297 18.4458 4.54297 19.3695C4.54297 20.2931 5.29157 21.0417 6.21517 21.0417H33.305C38.1617 21.0417 42.1126 24.9925 42.1126 29.8486C42.1126 34.7048 38.1617 38.6556 33.305 38.6556H8.44482C7.52122 38.6556 6.77262 39.4042 6.77262 40.3278C6.77262 41.2514 7.52122 42 8.44482 42H33.305C40.005 42 45.457 36.5486 45.457 29.8486C45.457 23.1487 40.0056 17.6973 33.305 17.6973Z" fill="#829CF8"/>
</svg>
