<svg width="50" height="50" viewBox="0 0 50 50" fill="none" xmlns="http://www.w3.org/2000/svg">
<g clip-path="url(#clip0_662_769)">
<path d="M50 10.2021V31.3936C49.9976 33.4648 49.1738 35.4506 47.7092 36.9152C46.2446 38.3798 44.2588 39.2037 42.1875 39.2061H33.7402C33.3258 39.2061 32.9284 39.0414 32.6354 38.7484C32.3424 38.4554 32.1777 38.058 32.1777 37.6436C32.1777 37.2292 32.3424 36.8317 32.6354 36.5387C32.9284 36.2457 33.3258 36.0811 33.7402 36.0811H42.1875C43.4303 36.0797 44.6217 35.5854 45.5005 34.7066C46.3793 33.8278 46.8736 32.6363 46.875 31.3936V10.2021C46.8736 8.95937 46.3793 7.7679 45.5005 6.88913C44.6217 6.01035 43.4303 5.51604 42.1875 5.51465H7.8125C6.56973 5.51604 5.37825 6.01035 4.49948 6.88913C3.6207 7.7679 3.1264 8.95937 3.125 10.2021V31.3936C3.1264 32.6363 3.6207 33.8278 4.49948 34.7066C5.37825 35.5854 6.56973 36.0797 7.8125 36.0811H16.8502C17.2646 36.0811 17.662 36.2457 17.955 36.5387C18.2481 36.8317 18.4127 37.2292 18.4127 37.6436C18.4127 38.058 18.2481 38.4554 17.955 38.7484C17.662 39.0414 17.2646 39.2061 16.8502 39.2061H7.8125C5.74122 39.2037 3.75544 38.3798 2.29083 36.9152C0.826208 35.4506 0.00235207 33.4648 0 31.3936V10.2021C0.00232628 8.13086 0.826174 6.14507 2.2908 4.68045C3.75542 3.21582 5.74121 2.39197 7.8125 2.38965H42.1875C44.2588 2.39197 46.2446 3.21582 47.7092 4.68045C49.1738 6.14507 49.9977 8.13086 50 10.2021ZM33.6823 27.7733C33.995 27.5014 34.1868 27.1164 34.2156 26.703C34.2444 26.2896 34.1078 25.8817 33.8358 25.569L26.1789 16.7661C26.0322 16.5975 25.8511 16.4623 25.6477 16.3697C25.4444 16.277 25.2235 16.2291 25 16.2291C24.7765 16.2291 24.5556 16.277 24.3523 16.3697C24.1489 16.4623 23.9678 16.5975 23.8211 16.7661L16.1642 25.5692C15.8943 25.8822 15.7594 26.2893 15.789 26.7015C15.8186 27.1137 16.0103 27.4973 16.3221 27.7685C16.6339 28.0397 17.0405 28.1763 17.4528 28.1485C17.8651 28.1207 18.2495 27.9307 18.5221 27.62L23.4375 21.9689V46.0477C23.4375 46.4621 23.6021 46.8595 23.8951 47.1525C24.1882 47.4455 24.5856 47.6102 25 47.6102C25.4144 47.6102 25.8118 47.4455 26.1049 47.1525C26.3979 46.8595 26.5625 46.4621 26.5625 46.0477V21.9689L31.4779 27.62C31.6126 27.7748 31.7764 27.9016 31.9601 27.9931C32.1437 28.0846 32.3436 28.1391 32.5483 28.1533C32.753 28.1676 32.9585 28.1414 33.1531 28.0762C33.3477 28.0111 33.5275 27.9082 33.6823 27.7735V27.7733Z" fill="#829CF8"/>
</g>
<defs>
<clipPath id="clip0_662_769">
<rect width="50" height="50" fill="white"/>
</clipPath>
</defs>
</svg>
